<svg width="44" height="44" viewBox="0 0 44 44" fill="none" xmlns="http://www.w3.org/2000/svg">
<path d="M27.3119 24.3195H29.7101C36.5142 24.3195 42.0514 18.8655 42.0514 12.1597C42.0514 5.45486 36.5151 0 29.7101 0H2.35428C1.0538 0 0 1.03914 0 2.31965C0 3.601 1.05466 4.6393 2.35428 4.6393H29.7109C33.9192 4.6393 37.3428 8.01248 37.3428 12.1589C37.3428 16.3053 33.9192 19.6785 29.7109 19.6785H27.3128C26.0123 19.6785 24.9585 20.7176 24.9585 21.9981C24.9585 23.2787 26.0123 24.3195 27.3119 24.3195Z" fill="#F3B811"/>
<path d="M2.35428 0H29.7101C36.5151 0 42.0514 5.45486 42.0514 12.1597C42.0514 18.8655 36.5142 24.3195 29.7101 24.3195H27.3119C26.0114 24.3195 24.958 23.2803 24.958 21.9998C24.958 20.7193 26.0126 19.6802 27.3122 19.6802H29.7104C33.9187 19.6802 37.3422 16.307 37.3422 12.1606C37.3422 8.01419 33.9187 4.64099 29.7104 4.64099H2.35459C1.0541 4.64099 0.000307567 3.60185 0.000307567 2.32134C-0.000551974 1.03914 1.0538 0 2.35428 0Z" fill="#F3B811"/>
<path d="M14.2891 44H41.6457C42.9462 44 44 42.9609 44 41.6804C44 40.3998 42.9453 39.3607 41.6457 39.3607H14.2891C10.0808 39.3607 6.65723 35.9875 6.65723 31.8411C6.65723 27.6947 10.0808 24.3215 14.2891 24.3215H16.6872C17.9877 24.3215 19.0415 23.2824 19.0415 22.0019C19.0415 20.7214 17.9868 19.6822 16.6872 19.6822H14.2891C7.48497 19.6822 1.9478 25.1362 1.9478 31.842C1.9478 38.546 7.48411 44 14.2891 44Z" fill="#F3B811"/>
<path d="M14.2891 19.6804H16.6872C17.9877 19.6804 19.0415 20.7195 19.0415 22C19.0415 23.2805 17.9868 24.3197 16.6872 24.3197H14.2891C10.0808 24.3197 6.65723 27.6928 6.65723 31.8392C6.65723 35.9848 10.0808 39.3588 14.2891 39.3588H41.6457C42.9462 39.3588 44 40.398 44 41.6785C44 42.959 42.9453 43.9981 41.6457 43.9981H14.2891C7.48497 43.9981 1.9478 38.5441 1.9478 31.8384C1.9478 25.1344 7.48411 19.6804 14.2891 19.6804Z" fill="#F3B811"/>
<path d="M23.3083 31.4399C23.8764 31.4399 24.4472 31.2383 24.8993 30.8293C25.8577 29.9638 25.9221 28.4961 25.0437 27.5518L11.7895 13.3129C10.9111 12.3669 9.42151 12.3034 8.46313 13.1715C7.50388 14.037 7.44027 15.5047 8.31872 16.449L21.5728 30.6879C22.037 31.1875 22.6713 31.4399 23.3083 31.4399Z" fill="#F3B811"/>
<path d="M33.9338 31.4395C34.502 31.4395 35.0727 31.238 35.5248 30.8289C36.4841 29.9634 36.5477 28.4957 35.6692 27.5514L22.4151 13.3125C21.5358 12.3665 20.0471 12.303 19.0887 13.1711C18.1294 14.0366 18.0658 15.5043 18.9443 16.4486L32.1984 30.6875C32.6625 31.1871 33.2969 31.4395 33.9338 31.4395Z" fill="#F3B811"/>
</svg>
