<svg width="41" height="41" viewBox="0 0 41 41" fill="none" xmlns="http://www.w3.org/2000/svg">
<path d="M1.0262 39.3965C1.0262 39.3965 1.21336 39.3479 1.5306 39.238C4.42814 38.0323 6.26885 36.2887 7.0047 35.4947C8.27864 34.0943 9.27994 32.336 9.26746 30.3439C9.26746 29.8322 9.20664 29.2951 9.06346 28.718C8.5235 26.4976 7.1301 23.6908 5.81031 20.5457C4.50144 17.3942 3.26089 13.8427 3.25558 9.90989C3.2456 7.10557 3.92468 4.13615 5.57699 1.16797C3.57188 2.86518 -1.43994 8.09435 0.39797 16.7783C2.3254 25.8864 6.36711 32.0644 1.0262 39.3965Z" fill="#E54C3A"/>
<path d="M35.8506 19.9682C37.4152 19.0308 38.5382 17.792 39.2147 16.2557C39.8902 14.7204 40.2298 13.2481 40.2298 11.8399C40.2298 10.1759 40.0081 8.63011 39.563 7.20044C39.118 5.77139 38.3893 4.52306 37.3733 3.4564C36.3587 2.39037 35.0584 1.54764 33.4706 0.928203C31.8838 0.310032 29.9489 0 27.6647 0H11.2332C11.2235 0.122373 11.2129 0.310032 11.2129 0.558247C11.231 1.78292 11.4506 4.26412 13.2138 7.04053H13.2363L13.2325 7.0317H28.4137C28.5109 7.0317 28.5973 7.03769 28.6898 7.04053H28.7427C28.7765 7.04053 28.809 7.04463 28.8428 7.04558C28.9 7.04842 28.9585 7.05031 29.0135 7.05378C29.1252 7.06008 29.2352 7.07049 29.3438 7.08532C30.3214 7.19507 30.8677 7.44171 30.8677 7.44171C30.8677 7.44171 34.1877 8.4475 36.3772 12.9352C36.3772 12.9352 35.3411 13.3651 33.9529 14.4895C32.18 16.0586 30.7067 17.6185 29.6853 19.4872C29.0357 20.6608 28.5332 22.0255 27.9637 23.4889H28.7424C29.9696 23.4889 31.0275 23.9589 31.9154 24.8969C32.8042 25.8355 33.2492 26.9239 33.2492 28.1612C33.2492 29.6539 32.8255 30.8594 31.9798 31.7762C31.1326 32.6946 30.0327 33.1523 28.6792 33.1523H22.3241C21.1585 34.4924 19.8613 35.7284 18.4205 36.8055C16.6886 38.0999 14.9835 39.1687 13.1572 40.1928H27.665C29.9495 40.1928 31.8941 39.8519 33.5025 39.1687C35.1112 38.4859 36.4125 37.5902 37.4061 36.4809C38.3994 35.3714 39.1183 34.1029 39.563 32.6729C40.0081 31.2435 40.2298 29.7823 40.2298 28.2895C40.2298 26.711 39.8811 25.1643 39.1831 23.6495C38.4847 22.1346 37.3733 20.9074 35.8506 19.9682Z" fill="#26A75C"/>
<path d="M23.451 10.0067C20.7004 10.1585 17.9653 10.0435 17.9656 10.0448C17.0074 10.0008 16.1954 9.93512 16.1954 9.93512C20.574 16.1472 19.2474 21.6691 19.2474 21.6691C18.8706 19.5085 18.3998 15.8761 14.064 12.4464C6.76164 6.54163 7.8662 0.0380859 7.8662 0.0380859C-0.80678 11.2179 7.97038 20.653 9.8479 28.2144C11.726 35.7777 3.06836 40.2309 3.06836 40.2309C5.15831 39.9911 8.23927 39.1449 10.434 37.955C12.3558 36.9114 14.0808 35.8548 15.851 34.5532C18.6244 32.5131 20.8747 29.8125 22.5729 26.8416C23.0667 25.9773 23.5168 25.0901 23.9214 24.181C24.8048 22.2 25.4364 20.1193 26.4948 18.2155C27.6986 16.0502 29.3802 14.3338 31.2406 12.714C31.2646 12.6936 31.759 12.2602 31.7799 12.2832C29.7171 10.0067 26.2022 9.8552 23.451 10.0067ZM28.1222 12.0214C27.9041 12.0214 27.7269 11.8461 27.7269 11.6292C27.7269 11.4124 27.9038 11.2371 28.1222 11.2371C28.3405 11.2371 28.5171 11.4124 28.5171 11.6292C28.5168 11.8461 28.3402 12.0214 28.1222 12.0214Z" fill="#FAD117"/>
</svg>
