<svg width="114" height="65" viewBox="0 0 114 65" fill="none" xmlns="http://www.w3.org/2000/svg">
<rect x="0.5" y="0.5" width="113" height="64" rx="9.5" fill="#FAFAFA"/>
<rect x="0.5" y="0.5" width="113" height="64" rx="9.5" stroke="#F4F2F2"/>
<path d="M26.8271 21.4024L26.8203 21.4059C26.0197 22.0444 25.6805 23.131 25.9655 24.1365L25.9689 24.1435C26.4234 25.7417 25.2972 27.3539 23.696 27.3962H23.6892C22.6783 27.4244 21.7895 28.0947 21.4536 29.0861V29.0896C20.9176 30.663 19.0926 31.2804 17.773 30.3313C16.9536 29.7495 15.8703 29.7191 15.0082 30.3313H15.0048C13.6853 31.2768 11.8602 30.663 11.3276 29.086C10.9887 28.0922 10.1012 27.4244 9.09203 27.3962H9.08523C7.48409 27.3538 6.35779 25.7416 6.81239 24.1435L6.81576 24.1364C7.10066 23.1309 6.76143 22.0443 5.9609 21.4058L5.95411 21.4023C4.68196 20.3862 4.68196 18.3966 5.95411 17.3805L5.9609 17.377C6.76143 16.7385 7.10066 15.6519 6.81239 14.6464V14.6394C6.35437 13.0413 7.48404 11.429 9.08523 11.3867H9.09203C10.0995 11.3585 10.9917 10.6881 11.3276 9.69683V9.69332C11.8601 8.1199 13.6853 7.50253 15.0048 8.45157H15.0082C15.8393 9.04777 16.9384 9.04777 17.773 8.45157C19.1059 7.49432 20.9208 8.12934 21.4536 9.69332V9.69683C21.7895 10.6846 22.6782 11.3585 23.6892 11.3867H23.696C25.2972 11.429 26.4234 13.0413 25.9689 14.6394L25.9655 14.6464C25.6805 15.6519 26.0197 16.7385 26.8203 17.377L26.8271 17.3805C28.0993 18.3966 28.0993 20.3863 26.8271 21.4024Z" fill="url(#paint0_linear_329_526)"/>
<path d="M16.3907 25.9622C19.8806 25.9622 22.7098 23.02 22.7098 19.3907C22.7098 15.7613 19.8806 12.8191 16.3907 12.8191C12.9008 12.8191 10.0717 15.7613 10.0717 19.3907C10.0717 23.02 12.9008 25.9622 16.3907 25.9622Z" fill="url(#paint1_linear_329_526)"/>
<path d="M14.8867 21.9634L13.4894 20.4173C13.1234 20.0124 13.1423 19.3756 13.5316 18.9951C13.9208 18.614 14.5334 18.6344 14.899 19.0391L15.5661 19.7769L18.4014 16.4067C18.7529 15.9884 19.3642 15.946 19.7667 16.312C20.1689 16.678 20.2095 17.3136 19.8577 17.7318L16.3197 21.9369C15.9428 22.3844 15.2776 22.3961 14.8867 21.9634Z" fill="url(#paint2_linear_329_526)"/>
<path opacity="0.5" d="M33.9433 16.8906V10.9406C33.9433 10.8193 33.9479 10.726 33.9573 10.6606C33.9666 10.5953 33.9993 10.544 34.0553 10.5066C34.1113 10.4693 34.1999 10.4506 34.3213 10.4506H39.8793V11.0666H35.0213V13.2086H39.4733V13.8246H35.0213V16.8906H33.9433ZM42.1481 16.8906H41.5321C41.4108 16.8906 41.3175 16.8626 41.2521 16.8066C41.1961 16.7413 41.1681 16.6246 41.1681 16.4566V11.5846C41.3735 11.5193 41.6535 11.4493 42.0081 11.3746C42.3721 11.3 42.8201 11.2626 43.3521 11.2626C43.8561 11.2626 44.2528 11.3 44.5421 11.3746C44.8408 11.44 45.0555 11.5333 45.1861 11.6546C45.3261 11.776 45.4148 11.9253 45.4521 12.1026C45.4988 12.2706 45.5221 12.462 45.5221 12.6766H44.5841L44.5701 12.4806C44.5608 12.266 44.4908 12.112 44.3601 12.0186C44.2295 11.916 44.0755 11.8553 43.8981 11.8366C43.7208 11.8086 43.5435 11.7946 43.3661 11.7946C43.0955 11.7946 42.8528 11.818 42.6381 11.8646C42.4328 11.9113 42.2695 11.972 42.1481 12.0466V16.8906ZM49.2829 16.9746C48.7415 16.9746 48.2842 16.9373 47.9109 16.8626C47.5469 16.788 47.2529 16.648 47.0289 16.4426C46.8142 16.2373 46.6555 15.9526 46.5529 15.5886C46.4595 15.2153 46.4129 14.7346 46.4129 14.1466C46.4129 13.4746 46.4969 12.924 46.6649 12.4946C46.8329 12.0653 47.1315 11.748 47.5609 11.5426C47.9902 11.3373 48.5922 11.2346 49.3669 11.2346C49.9642 11.2346 50.4402 11.314 50.7949 11.4726C51.1589 11.6313 51.4202 11.874 51.5789 12.2006C51.7469 12.5273 51.8309 12.952 51.8309 13.4746V14.2726H47.8829C47.8829 14.1606 47.9109 14.0673 47.9669 13.9926C48.0229 13.9086 48.1255 13.8666 48.2749 13.8666H50.9489L50.9349 13.4606C50.9255 12.882 50.7995 12.462 50.5569 12.2006C50.3235 11.9393 49.9129 11.8086 49.3249 11.8086C48.8302 11.8086 48.4429 11.8833 48.1629 12.0326C47.8829 12.182 47.6869 12.4246 47.5749 12.7606C47.4629 13.0966 47.4069 13.554 47.4069 14.1326C47.4069 14.7486 47.4675 15.22 47.5889 15.5466C47.7195 15.864 47.9342 16.0833 48.2329 16.2046C48.5315 16.3166 48.9375 16.3726 49.4509 16.3726C49.6282 16.3726 49.8289 16.368 50.0529 16.3586C50.2862 16.34 50.5195 16.3213 50.7529 16.3026C50.9862 16.284 51.1915 16.2606 51.3689 16.2326C51.5555 16.1953 51.6862 16.158 51.7609 16.1206V16.2886C51.7609 16.382 51.7329 16.4706 51.6769 16.5546C51.6302 16.6386 51.5275 16.7086 51.3689 16.7646C51.1635 16.8486 50.8835 16.9046 50.5289 16.9326C50.1835 16.9606 49.7682 16.9746 49.2829 16.9746ZM55.7907 16.9746C55.2494 16.9746 54.792 16.9373 54.4187 16.8626C54.0547 16.788 53.7607 16.648 53.5367 16.4426C53.322 16.2373 53.1634 15.9526 53.0607 15.5886C52.9674 15.2153 52.9207 14.7346 52.9207 14.1466C52.9207 13.4746 53.0047 12.924 53.1727 12.4946C53.3407 12.0653 53.6394 11.748 54.0687 11.5426C54.498 11.3373 55.1 11.2346 55.8747 11.2346C56.472 11.2346 56.948 11.314 57.3027 11.4726C57.6667 11.6313 57.928 11.874 58.0867 12.2006C58.2547 12.5273 58.3387 12.952 58.3387 13.4746V14.2726H54.3907C54.3907 14.1606 54.4187 14.0673 54.4747 13.9926C54.5307 13.9086 54.6334 13.8666 54.7827 13.8666H57.4567L57.4427 13.4606C57.4334 12.882 57.3074 12.462 57.0647 12.2006C56.8314 11.9393 56.4207 11.8086 55.8327 11.8086C55.338 11.8086 54.9507 11.8833 54.6707 12.0326C54.3907 12.182 54.1947 12.4246 54.0827 12.7606C53.9707 13.0966 53.9147 13.554 53.9147 14.1326C53.9147 14.7486 53.9754 15.22 54.0967 15.5466C54.2274 15.864 54.442 16.0833 54.7407 16.2046C55.0394 16.3166 55.4454 16.3726 55.9587 16.3726C56.136 16.3726 56.3367 16.368 56.5607 16.3586C56.794 16.34 57.0274 16.3213 57.2607 16.3026C57.494 16.284 57.6994 16.2606 57.8767 16.2326C58.0634 16.1953 58.194 16.158 58.2687 16.1206V16.2886C58.2687 16.382 58.2407 16.4706 58.1847 16.5546C58.138 16.6386 58.0354 16.7086 57.8767 16.7646C57.6714 16.8486 57.3914 16.9046 57.0367 16.9326C56.6914 16.9606 56.276 16.9746 55.7907 16.9746ZM64.6342 10.4506V16.2746H68.9322V16.8906H63.5702V10.9126C63.5702 10.81 63.5749 10.726 63.5842 10.6606C63.5935 10.5953 63.6262 10.544 63.6822 10.5066C63.7382 10.4693 63.8269 10.4506 63.9482 10.4506H64.6342ZM71.0401 16.9466C70.6014 16.9466 70.3074 16.83 70.1581 16.5966C70.0087 16.3633 69.9341 16.0226 69.9341 15.5746V11.3046H70.9141V15.5186C70.9141 15.9013 70.9561 16.158 71.0401 16.2886C71.1241 16.4193 71.2734 16.4846 71.4881 16.4846C71.5627 16.4846 71.6561 16.4753 71.7681 16.4566C71.8801 16.438 71.9501 16.424 71.9781 16.4146V16.8486C71.9501 16.858 71.8941 16.872 71.8101 16.8906C71.7354 16.9 71.6327 16.9093 71.5021 16.9186C71.3807 16.9373 71.2267 16.9466 71.0401 16.9466ZM70.4381 10.4926C70.2794 10.4926 70.1534 10.4693 70.0601 10.4226C69.9667 10.376 69.9201 10.278 69.9201 10.1286C69.9201 9.97929 69.9621 9.88129 70.0461 9.83462C70.1394 9.78796 70.2654 9.76462 70.4241 9.76462C70.6014 9.76462 70.7321 9.78796 70.8161 9.83462C70.9001 9.88129 70.9374 9.97929 70.9281 10.1286C70.9281 10.278 70.8861 10.376 70.8021 10.4226C70.7181 10.4693 70.5967 10.4926 70.4381 10.4926ZM74.8879 16.9466C74.7292 16.9466 74.5286 16.942 74.2859 16.9326C74.0526 16.9233 73.8099 16.9046 73.5579 16.8766C73.3152 16.8393 73.0959 16.788 72.8999 16.7226C72.8066 16.6853 72.7319 16.648 72.6759 16.6106C72.6199 16.5733 72.5779 16.508 72.5499 16.4146C72.5312 16.3213 72.5219 16.1813 72.5219 15.9946C72.7272 16.0973 72.9699 16.1813 73.2499 16.2466C73.5299 16.3026 73.8099 16.34 74.0899 16.3586C74.3699 16.3773 74.6032 16.3866 74.7899 16.3866C75.0699 16.3866 75.3406 16.3773 75.6019 16.3586C75.8726 16.3306 76.1152 16.2793 76.3299 16.2046C76.5446 16.1206 76.7126 15.9993 76.8339 15.8406C76.9646 15.682 77.0299 15.472 77.0299 15.2106C77.0299 14.828 76.9319 14.5853 76.7359 14.4826C76.5399 14.3706 76.2739 14.3146 75.9379 14.3146H74.5239C74.1786 14.3146 73.8519 14.296 73.5439 14.2586C73.2452 14.212 72.9979 14.0953 72.8019 13.9086C72.6152 13.7126 72.5219 13.386 72.5219 12.9286C72.5219 12.434 72.6432 12.0653 72.8859 11.8226C73.1286 11.58 73.4692 11.4213 73.9079 11.3466C74.3559 11.272 74.8739 11.2346 75.4619 11.2346C75.6766 11.2346 75.9332 11.2393 76.2319 11.2486C76.5306 11.258 76.8152 11.286 77.0859 11.3326C77.2726 11.3606 77.4266 11.398 77.5479 11.4446C77.6786 11.482 77.7719 11.538 77.8279 11.6126C77.8932 11.6873 77.9259 11.7946 77.9259 11.9346V12.2146C77.8419 12.1213 77.7019 12.0466 77.5059 11.9906C77.3099 11.9346 77.0812 11.8926 76.8199 11.8646C76.5679 11.8366 76.3066 11.8226 76.0359 11.8226C75.7652 11.8133 75.5132 11.8086 75.2799 11.8086C74.9812 11.8086 74.6919 11.8273 74.4119 11.8646C74.1319 11.902 73.9032 11.9953 73.7259 12.1446C73.5579 12.2846 73.4739 12.5273 73.4739 12.8726C73.4739 13.134 73.5299 13.3253 73.6419 13.4466C73.7539 13.568 73.9032 13.6473 74.0899 13.6846C74.2859 13.7126 74.5052 13.7266 74.7479 13.7266H76.1899C76.5446 13.7266 76.8572 13.7593 77.1279 13.8246C77.4079 13.8806 77.6226 14.016 77.7719 14.2306C77.9306 14.436 78.0099 14.7626 78.0099 15.2106C78.0099 15.7053 77.8746 16.0786 77.6039 16.3306C77.3332 16.5826 76.9599 16.7506 76.4839 16.8346C76.0172 16.9093 75.4852 16.9466 74.8879 16.9466ZM80.6306 16.9326C80.3133 16.9326 80.066 16.8953 79.8886 16.8206C79.7113 16.7366 79.5806 16.5966 79.4966 16.4006C79.4126 16.2046 79.3706 15.9386 79.3706 15.6026V11.8506H78.8386V11.3046H79.3706V10.2966C79.3706 10.1566 79.38 10.054 79.3986 9.98862C79.4266 9.91396 79.4686 9.86729 79.5246 9.84862C79.5806 9.82996 79.66 9.82063 79.7626 9.82063H80.3646C80.3646 9.83929 80.36 9.88129 80.3506 9.94662C80.3506 10.0026 80.3506 10.0866 80.3506 10.1986V11.3046H81.6526V11.8506H80.3506V15.4906C80.3506 15.8546 80.388 16.1113 80.4626 16.2606C80.5373 16.41 80.7053 16.4846 80.9666 16.4846C81.0693 16.4846 81.1766 16.4753 81.2886 16.4566C81.4006 16.438 81.48 16.4193 81.5266 16.4006V16.8346C81.4706 16.844 81.3633 16.8626 81.2046 16.8906C81.046 16.9186 80.8546 16.9326 80.6306 16.9326Z" fill="#1C274C"/>
<path d="M35.2733 21.4506V27.0926H39.5293V27.8906H33.8453V21.9966C33.8453 21.8753 33.8499 21.7773 33.8593 21.7026C33.8686 21.6186 33.9106 21.558 33.9853 21.5206C34.0599 21.474 34.1766 21.4506 34.3353 21.4506H35.2733ZM40.7359 27.8906C40.7359 26.9013 40.7359 25.9166 40.7359 24.9366C40.7359 23.9473 40.7359 22.9626 40.7359 21.9826C40.7359 21.8613 40.7405 21.7633 40.7499 21.6886C40.7685 21.614 40.8105 21.558 40.8759 21.5206C40.9505 21.474 41.0672 21.4506 41.2259 21.4506H42.1779V27.8906H40.7359ZM43.8986 26.7426C44.1039 26.864 44.3699 26.9573 44.6966 27.0226C45.0326 27.0786 45.3779 27.116 45.7326 27.1346C46.0872 27.144 46.3952 27.1486 46.6566 27.1486C46.7592 27.1486 46.8759 27.1486 47.0066 27.1486C47.1466 27.1393 47.2679 27.1346 47.3706 27.1346C47.7066 27.1253 48.0006 27.088 48.2526 27.0226C48.5046 26.948 48.6959 26.8266 48.8266 26.6586C48.9666 26.4906 49.0366 26.2526 49.0366 25.9446C49.0366 25.562 48.9339 25.3146 48.7286 25.2026C48.5326 25.0906 48.2432 25.0346 47.8606 25.0346C47.7299 25.0346 47.5899 25.0346 47.4406 25.0346C47.2912 25.0346 47.1186 25.0346 46.9226 25.0346C46.7359 25.0346 46.5166 25.0346 46.2646 25.0346C45.9846 25.0346 45.7046 25.0206 45.4246 24.9926C45.1446 24.9646 44.8926 24.904 44.6686 24.8106C44.4446 24.708 44.2626 24.5493 44.1226 24.3346C43.9826 24.1106 43.9126 23.798 43.9126 23.3966C43.9126 22.93 43.9966 22.5613 44.1646 22.2906C44.3326 22.02 44.5659 21.824 44.8646 21.7026C45.1726 21.572 45.5226 21.488 45.9146 21.4506C46.3159 21.4133 46.7546 21.3946 47.2306 21.3946C47.5106 21.3946 47.8186 21.3993 48.1546 21.4086C48.4906 21.418 48.8126 21.4413 49.1206 21.4786C49.4286 21.5066 49.6666 21.558 49.8346 21.6326C50.0306 21.6513 50.1799 21.712 50.2826 21.8146C50.3946 21.908 50.4506 22.0293 50.4506 22.1786C50.4506 22.2066 50.4506 22.2533 50.4506 22.3186C50.4506 22.384 50.4506 22.4446 50.4506 22.5006C50.4506 22.5566 50.4506 22.5986 50.4506 22.6266C50.3759 22.5333 50.2359 22.4633 50.0306 22.4166C49.8346 22.3606 49.6106 22.3186 49.3586 22.2906C49.1066 22.2626 48.8592 22.244 48.6166 22.2346C48.3832 22.216 48.1826 22.2066 48.0146 22.2066H47.0626C46.7452 22.2066 46.4606 22.2346 46.2086 22.2906C45.9566 22.3373 45.7559 22.44 45.6066 22.5986C45.4572 22.748 45.3826 22.9813 45.3826 23.2986C45.3826 23.5413 45.4292 23.728 45.5226 23.8586C45.6252 23.98 45.7699 24.064 45.9566 24.1106C46.1526 24.148 46.3812 24.1666 46.6426 24.1666C47.0719 24.1666 47.4359 24.1666 47.7346 24.1666C48.0332 24.1666 48.2619 24.1666 48.4206 24.1666C48.8406 24.1666 49.2092 24.204 49.5266 24.2786C49.8532 24.344 50.1052 24.498 50.2826 24.7406C50.4692 24.9833 50.5626 25.366 50.5626 25.8886C50.5626 26.3833 50.4552 26.78 50.2406 27.0786C50.0259 27.368 49.7319 27.578 49.3586 27.7086C48.9852 27.83 48.5559 27.9046 48.0706 27.9326C47.7812 27.9513 47.5012 27.9606 47.2306 27.9606C46.9599 27.97 46.6752 27.97 46.3766 27.9606C46.1059 27.9606 45.8259 27.9513 45.5366 27.9326C45.2472 27.914 44.9766 27.8813 44.7246 27.8346C44.4819 27.7786 44.2812 27.704 44.1226 27.6106C43.9732 27.5173 43.8986 27.3913 43.8986 27.2326V26.7426ZM51.4776 21.4506H58.2536V22.2486H55.5936V27.3446C55.5936 27.55 55.5609 27.6946 55.4956 27.7786C55.4396 27.8533 55.3043 27.8906 55.0896 27.8906H54.1516V22.2486H51.4776V21.4506ZM62.5381 21.4506H69.3141V22.2486H66.6541V27.3446C66.6541 27.55 66.6215 27.6946 66.5561 27.7786C66.5001 27.8533 66.3648 27.8906 66.1501 27.8906H65.2121V22.2486H62.5381V21.4506ZM70.6773 27.8906C70.6773 26.9013 70.6773 25.9166 70.6773 24.9366C70.6773 23.9473 70.6773 22.9626 70.6773 21.9826C70.6773 21.8613 70.6819 21.7633 70.6913 21.6886C70.7099 21.614 70.7519 21.558 70.8173 21.5206C70.8919 21.474 71.0086 21.4506 71.1673 21.4506H72.1193V27.8906H70.6773ZM73.462 21.4506H80.238V22.2486H77.578V27.3446C77.578 27.55 77.5453 27.6946 77.48 27.7786C77.424 27.8533 77.2886 27.8906 77.074 27.8906H76.136V22.2486H73.462V21.4506ZM83.0291 21.4506V27.0926H87.2851V27.8906H81.6011V21.9966C81.6011 21.8753 81.6058 21.7773 81.6151 21.7026C81.6244 21.6186 81.6664 21.558 81.7411 21.5206C81.8158 21.474 81.9324 21.4506 82.0911 21.4506H83.0291ZM88.4917 27.8906V21.9826C88.4917 21.7773 88.5197 21.6373 88.5757 21.5626C88.6411 21.488 88.7764 21.4506 88.9817 21.4506H94.8057V22.2486H89.9337V24.1386H94.3857V24.9366H89.9337V27.0926H94.8057V27.8906H88.4917Z" fill="#1C274C"/>
<rect x="5" y="44.7812" width="41" height="15" rx="5" fill="#1BC469"/>
<path d="M16.1163 54.7812V50.7012C16.1163 50.5746 16.123 50.4746 16.1363 50.4012C16.1496 50.3212 16.1863 50.2646 16.2463 50.2312C16.3063 50.1979 16.413 50.1812 16.5663 50.1812H20.9563V50.8912H17.4563V52.0512H20.6463V52.7612H17.4563V54.7812H16.1163ZM22.9475 54.7812H22.0975C21.9709 54.7812 21.8775 54.7512 21.8175 54.6912C21.7575 54.6246 21.7275 54.4979 21.7275 54.3112V50.9912C21.9009 50.9446 22.1475 50.8946 22.4675 50.8412C22.7942 50.7879 23.1675 50.7612 23.5875 50.7612C24.0209 50.7612 24.3609 50.7879 24.6075 50.8412C24.8542 50.8946 25.0342 50.9712 25.1475 51.0712C25.2675 51.1712 25.3442 51.2979 25.3775 51.4512C25.4109 51.6046 25.4275 51.7879 25.4275 52.0012H24.2675V51.8612C24.2609 51.7012 24.2242 51.5846 24.1575 51.5112C24.0909 51.4379 24.0075 51.3946 23.9075 51.3812C23.8075 51.3612 23.7075 51.3512 23.6075 51.3512C23.4609 51.3512 23.3275 51.3679 23.2075 51.4012C23.0942 51.4279 23.0075 51.4679 22.9475 51.5212V54.7812ZM28.2123 54.8413C27.7723 54.8413 27.409 54.8146 27.1223 54.7612C26.8356 54.7012 26.609 54.6012 26.4423 54.4612C26.2756 54.3212 26.1556 54.1212 26.0823 53.8612C26.009 53.6012 25.9723 53.2679 25.9723 52.8612C25.9723 52.3546 26.039 51.9479 26.1723 51.6412C26.3123 51.3346 26.5523 51.1112 26.8923 50.9712C27.239 50.8312 27.719 50.7612 28.3323 50.7612C28.8123 50.7612 29.1956 50.8146 29.4823 50.9212C29.769 51.0279 29.9756 51.1979 30.1023 51.4312C30.229 51.6579 30.2923 51.9512 30.2923 52.3112V53.0112H27.4923C27.4923 52.8912 27.519 52.7912 27.5723 52.7112C27.6323 52.6246 27.7356 52.5812 27.8823 52.5812H29.2023V52.3412C29.1956 52.0212 29.1256 51.7846 28.9923 51.6312C28.8656 51.4779 28.6323 51.4012 28.2923 51.4012C28.0056 51.4012 27.7823 51.4446 27.6223 51.5312C27.469 51.6179 27.359 51.7646 27.2923 51.9712C27.2323 52.1779 27.2023 52.4679 27.2023 52.8412C27.2023 53.2012 27.239 53.4746 27.3123 53.6612C27.3856 53.8479 27.5123 53.9746 27.6923 54.0412C27.879 54.1012 28.1356 54.1312 28.4623 54.1312C28.5823 54.1312 28.7323 54.1279 28.9123 54.1213C29.099 54.1146 29.2856 54.1079 29.4723 54.1012C29.6656 54.0879 29.8356 54.0746 29.9823 54.0612C30.129 54.0412 30.2223 54.0246 30.2623 54.0112V54.1712C30.2623 54.2512 30.2456 54.3379 30.2123 54.4312C30.1856 54.5179 30.1223 54.5879 30.0223 54.6412C29.8956 54.7212 29.6823 54.7746 29.3823 54.8013C29.089 54.8279 28.699 54.8413 28.2123 54.8413ZM33.183 54.8413C32.743 54.8413 32.3797 54.8146 32.093 54.7612C31.8063 54.7012 31.5797 54.6012 31.413 54.4612C31.2463 54.3212 31.1263 54.1212 31.053 53.8612C30.9797 53.6012 30.943 53.2679 30.943 52.8612C30.943 52.3546 31.0097 51.9479 31.143 51.6412C31.283 51.3346 31.523 51.1112 31.863 50.9712C32.2097 50.8312 32.6897 50.7612 33.303 50.7612C33.783 50.7612 34.1663 50.8146 34.453 50.9212C34.7397 51.0279 34.9463 51.1979 35.073 51.4312C35.1997 51.6579 35.263 51.9512 35.263 52.3112V53.0112H32.463C32.463 52.8912 32.4897 52.7912 32.543 52.7112C32.603 52.6246 32.7063 52.5812 32.853 52.5812H34.173V52.3412C34.1663 52.0212 34.0963 51.7846 33.963 51.6312C33.8363 51.4779 33.603 51.4012 33.263 51.4012C32.9763 51.4012 32.753 51.4446 32.593 51.5312C32.4397 51.6179 32.3297 51.7646 32.263 51.9712C32.203 52.1779 32.173 52.4679 32.173 52.8412C32.173 53.2012 32.2097 53.4746 32.283 53.6612C32.3563 53.8479 32.483 53.9746 32.663 54.0412C32.8497 54.1012 33.1063 54.1312 33.433 54.1312C33.553 54.1312 33.703 54.1279 33.883 54.1213C34.0697 54.1146 34.2563 54.1079 34.443 54.1012C34.6363 54.0879 34.8063 54.0746 34.953 54.0612C35.0997 54.0412 35.193 54.0246 35.233 54.0112V54.1712C35.233 54.2512 35.2163 54.3379 35.183 54.4312C35.1563 54.5179 35.093 54.5879 34.993 54.6412C34.8663 54.7212 34.653 54.7746 34.353 54.8013C34.0597 54.8279 33.6697 54.8413 33.183 54.8413Z" fill="white"/>
<rect x="50" y="44.7812" width="58" height="15" rx="5" fill="#1BC469"/>
<path d="M57.8113 55.2812C57.8113 55.0732 57.8113 54.8696 57.8113 54.6702C57.8113 54.4622 57.8113 54.2542 57.8113 54.0462C57.8113 53.6129 57.846 53.2662 57.9153 53.0062C57.9933 52.7376 58.1147 52.5339 58.2793 52.3952C58.4527 52.2566 58.678 52.1612 58.9553 52.1092C59.2327 52.0572 59.575 52.0312 59.9823 52.0312C60.1903 52.0312 60.368 52.0312 60.5153 52.0312C60.6713 52.0312 60.8533 52.0312 61.0613 52.0312C61.3733 52.0312 61.6333 51.9662 61.8413 51.8362C62.0493 51.6976 62.1533 51.4332 62.1533 51.0432C62.1533 50.7052 62.0753 50.4712 61.9193 50.3412C61.7633 50.2026 61.5553 50.1116 61.2953 50.0682C61.1393 50.0509 60.9833 50.0422 60.8273 50.0422C60.6713 50.0336 60.4807 50.0292 60.2553 50.0292C59.978 50.0292 59.705 50.0379 59.4363 50.0552C59.1763 50.0726 58.9597 50.1072 58.7863 50.1592C58.6997 50.1766 58.5913 50.1982 58.4613 50.2242C58.34 50.2502 58.223 50.2849 58.1103 50.3282C57.9977 50.3629 57.9153 50.4062 57.8633 50.4582C57.8633 50.4062 57.8633 50.3412 57.8633 50.2632C57.8633 50.1852 57.8633 50.1116 57.8633 50.0422C57.8633 49.9729 57.8633 49.9382 57.8633 49.9382C57.8633 49.8082 57.9283 49.7042 58.0583 49.6262C58.197 49.5396 58.3833 49.4702 58.6173 49.4182C58.8513 49.3662 59.12 49.3316 59.4233 49.3142C59.7353 49.2882 60.0603 49.2752 60.3983 49.2752C60.9703 49.2752 61.473 49.3099 61.9063 49.3792C62.3483 49.4399 62.695 49.5959 62.9463 49.8472C63.1977 50.0899 63.3233 50.4929 63.3233 51.0562C63.3233 51.5589 63.2323 51.9402 63.0503 52.2002C62.8683 52.4516 62.6257 52.6206 62.3223 52.7072C62.0277 52.7852 61.7027 52.8242 61.3473 52.8242C61.2 52.8242 61.0397 52.8242 60.8663 52.8242C60.693 52.8242 60.4893 52.8242 60.2553 52.8242C59.9867 52.8242 59.7613 52.8546 59.5793 52.9152C59.3973 52.9672 59.263 53.0669 59.1763 53.2142C59.0983 53.3616 59.0593 53.5739 59.0593 53.8512V54.5272H63.3753V55.2812H57.8113ZM69.9775 53.3962C69.9775 53.7949 69.9298 54.1199 69.8345 54.3712C69.7478 54.6226 69.5962 54.8219 69.3795 54.9692C69.1715 55.1166 68.8898 55.2206 68.5345 55.2812C68.1878 55.3333 67.7502 55.3593 67.2215 55.3593C66.6148 55.3593 66.0862 55.3376 65.6355 55.2943C65.1935 55.2509 64.8858 55.1989 64.7125 55.1382C64.5998 55.1036 64.5132 55.0689 64.4525 55.0342C64.4005 54.9909 64.3658 54.9302 64.3485 54.8523C64.3312 54.7656 64.3268 54.6442 64.3355 54.4882V54.2412C64.6995 54.3452 65.1112 54.4319 65.5705 54.5012C66.0298 54.5619 66.5108 54.5922 67.0135 54.5922C67.3948 54.5922 67.7242 54.5619 68.0015 54.5012C68.2788 54.4319 68.4912 54.3106 68.6385 54.1372C68.7858 53.9552 68.8595 53.6952 68.8595 53.3572C68.8595 53.0626 68.8205 52.8372 68.7425 52.6812C68.6732 52.5252 68.5388 52.4169 68.3395 52.3562C68.1488 52.2869 67.8715 52.2522 67.5075 52.2522C67.2475 52.2436 66.9745 52.2392 66.6885 52.2392C66.4025 52.2392 66.1165 52.2479 65.8305 52.2652C65.5532 52.2826 65.3018 52.3042 65.0765 52.3302C64.8512 52.3476 64.6735 52.3649 64.5435 52.3822V49.3012H69.8605V50.0292H65.6225V51.5762C65.7958 51.5676 65.9952 51.5632 66.2205 51.5632C66.4458 51.5546 66.6755 51.5502 66.9095 51.5502C67.1435 51.5416 67.3688 51.5416 67.5855 51.5502C67.8108 51.5502 68.0015 51.5546 68.1575 51.5632C68.6602 51.5892 69.0415 51.6672 69.3015 51.7972C69.5702 51.9272 69.7478 52.1222 69.8345 52.3822C69.9298 52.6336 69.9775 52.9716 69.9775 53.3962ZM74.5205 54.2152C74.7112 54.3279 74.9582 54.4146 75.2615 54.4752C75.5735 54.5272 75.8942 54.5619 76.2235 54.5792C76.5528 54.5879 76.8388 54.5922 77.0815 54.5922C77.1768 54.5922 77.2852 54.5922 77.4065 54.5922C77.5365 54.5836 77.6492 54.5792 77.7445 54.5792C78.0565 54.5706 78.3295 54.5359 78.5635 54.4752C78.7975 54.4059 78.9752 54.2932 79.0965 54.1372C79.2265 53.9812 79.2915 53.7602 79.2915 53.4742C79.2915 53.1189 79.1962 52.8892 79.0055 52.7852C78.8235 52.6812 78.5548 52.6292 78.1995 52.6292C78.0782 52.6292 77.9482 52.6292 77.8095 52.6292C77.6708 52.6292 77.5105 52.6292 77.3285 52.6292C77.1552 52.6292 76.9515 52.6292 76.7175 52.6292C76.4575 52.6292 76.1975 52.6162 75.9375 52.5902C75.6775 52.5642 75.4435 52.5079 75.2355 52.4212C75.0275 52.3259 74.8585 52.1786 74.7285 51.9792C74.5985 51.7712 74.5335 51.4809 74.5335 51.1082C74.5335 50.6749 74.6115 50.3326 74.7675 50.0812C74.9235 49.8299 75.1402 49.6479 75.4175 49.5352C75.7035 49.4139 76.0285 49.3359 76.3925 49.3012C76.7652 49.2666 77.1725 49.2492 77.6145 49.2492C77.8745 49.2492 78.1605 49.2536 78.4725 49.2622C78.7845 49.2709 79.0835 49.2926 79.3695 49.3272C79.6555 49.3532 79.8765 49.4009 80.0325 49.4702C80.2145 49.4876 80.3532 49.5439 80.4485 49.6392C80.5525 49.7259 80.6045 49.8386 80.6045 49.9772C80.6045 50.0032 80.6045 50.0466 80.6045 50.1072C80.6045 50.1679 80.6045 50.2242 80.6045 50.2762C80.6045 50.3282 80.6045 50.3672 80.6045 50.3932C80.5352 50.3066 80.4052 50.2416 80.2145 50.1982C80.0325 50.1462 79.8245 50.1072 79.5905 50.0812C79.3565 50.0552 79.1268 50.0379 78.9015 50.0292C78.6848 50.0119 78.4985 50.0032 78.3425 50.0032H77.4585C77.1638 50.0032 76.8995 50.0292 76.6655 50.0812C76.4315 50.1246 76.2452 50.2199 76.1065 50.3672C75.9678 50.5059 75.8985 50.7226 75.8985 51.0172C75.8985 51.2426 75.9418 51.4159 76.0285 51.5372C76.1238 51.6499 76.2582 51.7279 76.4315 51.7712C76.6135 51.8059 76.8258 51.8232 77.0685 51.8232C77.4672 51.8232 77.8052 51.8232 78.0825 51.8232C78.3598 51.8232 78.5722 51.8232 78.7195 51.8232C79.1095 51.8232 79.4518 51.8579 79.7465 51.9272C80.0498 51.9879 80.2838 52.1309 80.4485 52.3562C80.6218 52.5816 80.7085 52.9369 80.7085 53.4222C80.7085 53.8816 80.6088 54.2499 80.4095 54.5272C80.2102 54.7959 79.9372 54.9909 79.5905 55.1122C79.2438 55.2249 78.8452 55.2943 78.3945 55.3203C78.1258 55.3376 77.8658 55.3463 77.6145 55.3463C77.3632 55.3549 77.0988 55.3549 76.8215 55.3463C76.5702 55.3463 76.3102 55.3376 76.0415 55.3203C75.7728 55.3029 75.5215 55.2726 75.2875 55.2292C75.0622 55.1772 74.8758 55.1079 74.7285 55.0212C74.5898 54.9346 74.5205 54.8176 74.5205 54.6702V54.2152ZM84.5482 55.3593C84.1148 55.3593 83.7292 55.3289 83.3912 55.2682C83.0618 55.1989 82.7758 55.0732 82.5332 54.8912C82.2992 54.7092 82.1215 54.4406 82.0002 54.0852C81.8788 53.7299 81.8182 53.2662 81.8182 52.6942C81.8182 52.1222 81.8788 51.6586 82.0002 51.3032C82.1215 50.9479 82.2992 50.6792 82.5332 50.4972C82.7758 50.3152 83.0618 50.1939 83.3912 50.1332C83.7292 50.0639 84.1148 50.0292 84.5482 50.0292C84.9642 50.0292 85.3368 50.0639 85.6662 50.1332C86.0042 50.1939 86.2902 50.3152 86.5242 50.4972C86.7582 50.6792 86.9358 50.9479 87.0572 51.3032C87.1872 51.6586 87.2522 52.1222 87.2522 52.6942C87.2522 53.2749 87.1872 53.7429 87.0572 54.0982C86.9358 54.4536 86.7582 54.7222 86.5242 54.9042C86.2902 55.0776 86.0042 55.1989 85.6662 55.2682C85.3368 55.3289 84.9642 55.3593 84.5482 55.3593ZM84.5482 54.7092C84.8602 54.7092 85.1245 54.6616 85.3412 54.5662C85.5665 54.4709 85.7355 54.2802 85.8482 53.9942C85.9608 53.7082 86.0172 53.2749 86.0172 52.6942C86.0172 52.1136 85.9608 51.6802 85.8482 51.3942C85.7355 51.1082 85.5665 50.9176 85.3412 50.8222C85.1245 50.7269 84.8602 50.6792 84.5482 50.6792C84.2362 50.6792 83.9675 50.7269 83.7422 50.8222C83.5168 50.9176 83.3435 51.1082 83.2222 51.3942C83.1095 51.6802 83.0532 52.1136 83.0532 52.6942C83.0532 53.2749 83.1095 53.7082 83.2222 53.9942C83.3435 54.2802 83.5168 54.4709 83.7422 54.5662C83.9675 54.6616 84.2362 54.7092 84.5482 54.7092ZM88.8515 55.2812C88.6088 55.2812 88.4875 55.1599 88.4875 54.9172V50.4452C88.7475 50.3412 89.0985 50.2502 89.5405 50.1722C89.9825 50.0856 90.4851 50.0422 91.0485 50.0422C91.6031 50.0422 92.0451 50.0769 92.3745 50.1462C92.7125 50.2156 92.9681 50.3282 93.1415 50.4842C93.3148 50.6316 93.4275 50.8266 93.4795 51.0692C93.5401 51.3119 93.5705 51.6109 93.5705 51.9662V54.7872C93.5705 54.9086 93.5575 55.0082 93.5315 55.0862C93.5141 55.1642 93.4665 55.2162 93.3885 55.2422C93.3191 55.2682 93.2108 55.2812 93.0635 55.2812H92.3485V51.7062C92.3485 51.3682 92.2445 51.1256 92.0365 50.9782C91.8285 50.8309 91.4991 50.7572 91.0485 50.7572C90.9098 50.7572 90.7538 50.7702 90.5805 50.7962C90.4071 50.8136 90.2425 50.8439 90.0865 50.8872C89.9305 50.9306 89.8048 50.9869 89.7095 51.0562V55.2812H88.8515ZM97.251 56.7893C96.9997 56.7893 96.7483 56.7806 96.497 56.7633C96.2457 56.7459 96.0117 56.7156 95.795 56.6723C95.587 56.6289 95.4137 56.5639 95.275 56.4773C95.145 56.3993 95.08 56.2953 95.08 56.1653C95.08 56.1306 95.08 56.0829 95.08 56.0223C95.08 55.9616 95.08 55.9183 95.08 55.8923C95.1927 55.9529 95.3617 56.0049 95.587 56.0483C95.821 56.1003 96.068 56.1393 96.328 56.1653C96.5967 56.1999 96.8307 56.2173 97.03 56.2173C97.5327 56.2173 97.9183 56.1436 98.187 55.9963C98.4557 55.8489 98.6377 55.6106 98.733 55.2812C98.8283 54.9606 98.8587 54.5316 98.824 53.9942H99.032C98.9453 54.2802 98.8023 54.5013 98.603 54.6572C98.4123 54.8132 98.1783 54.9216 97.901 54.9822C97.6237 55.0429 97.3117 55.0732 96.965 55.0732C96.4537 55.0732 96.029 55.0126 95.691 54.8912C95.3617 54.7612 95.119 54.5229 94.963 54.1762C94.8157 53.8296 94.742 53.3269 94.742 52.6682C94.742 52.1136 94.7897 51.6672 94.885 51.3292C94.989 50.9826 95.1537 50.7182 95.379 50.5362C95.613 50.3456 95.912 50.2199 96.276 50.1592C96.6487 50.0899 97.108 50.0552 97.654 50.0552C97.836 50.0552 98.0527 50.0639 98.304 50.0812C98.5553 50.0986 98.8023 50.1159 99.045 50.1332C99.2963 50.1506 99.513 50.1679 99.695 50.1852C99.8857 50.2026 100.016 50.2156 100.085 50.2242C100.076 50.2502 100.068 50.3196 100.059 50.4322C100.059 50.5449 100.059 50.6749 100.059 50.8222C100.059 50.9609 100.059 51.0996 100.059 51.2382L100.046 54.3192C100.046 54.9519 99.9507 55.4459 99.76 55.8013C99.5693 56.1653 99.266 56.4209 98.85 56.5683C98.4427 56.7156 97.9097 56.7893 97.251 56.7893ZM97.303 54.3712C97.589 54.3712 97.8447 54.3366 98.07 54.2672C98.2953 54.1979 98.4773 54.0809 98.616 53.9162C98.7633 53.7516 98.837 53.5262 98.837 53.2402V50.8482C98.759 50.8309 98.5943 50.8092 98.343 50.7832C98.0917 50.7572 97.8013 50.7442 97.472 50.7442C97.0993 50.7442 96.8047 50.7919 96.588 50.8872C96.3713 50.9826 96.2153 51.1602 96.12 51.4202C96.0247 51.6802 95.977 52.0572 95.977 52.5512C95.977 53.0366 96.0203 53.4136 96.107 53.6822C96.2023 53.9422 96.3453 54.1242 96.536 54.2282C96.7267 54.3236 96.9823 54.3712 97.303 54.3712Z" fill="white"/>
<defs>
<linearGradient id="paint0_linear_329_526" x1="16.3907" y1="30.7813" x2="16.3907" y2="7.99996" gradientUnits="userSpaceOnUse">
<stop stop-color="#20C59D"/>
<stop offset="0.3103" stop-color="#38CE8C"/>
<stop offset="0.9631" stop-color="#75E461"/>
<stop offset="1" stop-color="#79E55E"/>
</linearGradient>
<linearGradient id="paint1_linear_329_526" x1="16.3907" y1="25.9622" x2="16.3907" y2="12.8191" gradientUnits="userSpaceOnUse">
<stop offset="0.0168" stop-color="#CCCCCC"/>
<stop offset="1" stop-color="#F2F2F2"/>
</linearGradient>
<linearGradient id="paint2_linear_329_526" x1="13.2268" y1="19.1717" x2="20.0971" y2="19.1717" gradientUnits="userSpaceOnUse">
<stop stop-color="#41262F"/>
<stop offset="1" stop-color="#543843"/>
</linearGradient>
</defs>
</svg>
