<svg width="127" height="65" viewBox="0 0 127 65" fill="none" xmlns="http://www.w3.org/2000/svg">
<rect x="0.5" y="0.5" width="126" height="64" rx="9.5" fill="#FAFAFA"/>
<rect x="0.5" y="0.5" width="126" height="64" rx="9.5" stroke="#F4F2F2"/>
<mask id="mask0_329_458" style="mask-type:alpha" maskUnits="userSpaceOnUse" x="5" y="8" width="12" height="2">
<rect x="5" y="8" width="12" height="1.15079" rx="0.575397" fill="#F3B811"/>
</mask>
<g mask="url(#mask0_329_458)">
<path d="M5 8H9.44V12.3155V14.3294H9.34814C7.6733 14.3294 6.08319 13.5929 5 12.3155V8Z" fill="#E52021"/>
<rect x="9.44073" y="8" width="3.12" height="6.32937" fill="#F7F7F7"/>
<path d="M12.5579 8H16.9979V12.3155C15.9147 13.5929 14.3246 14.3294 12.6498 14.3294H12.5579V12.3155V8Z" fill="#268A42"/>
<rect x="5" y="8" width="12" height="1.15079" rx="0.575397" fill="black" fill-opacity="0.05"/>
</g>
<path d="M9.43689 13.4426L9.4281 13.4407C8.92024 13.3103 8.37932 13.5599 8.16931 14.0208L8.03259 14.3206C8.01249 14.3647 7.98114 14.4038 7.94177 14.4338C7.90242 14.4638 7.85545 14.4835 7.80603 14.4924L7.47009 14.553C7.37672 14.5698 7.28804 14.5986 7.20544 14.637C6.94478 14.4077 6.71639 14.1371 6.53357 13.8303L6.31677 13.4661V9.15063H9.43689V13.4426Z" fill="#E52021"/>
<path d="M12.5618 13.4429L12.2425 13.5259C12.1938 13.5384 12.1422 13.5395 12.0931 13.5288C12.0441 13.5181 11.9983 13.4957 11.9603 13.4644L11.7015 13.2515C11.3032 12.9233 10.7024 12.9233 10.304 13.2515L10.0452 13.4644C10.0071 13.4958 9.96148 13.5181 9.91241 13.5288C9.86328 13.5395 9.81167 13.5384 9.763 13.5259L9.44171 13.4429V9.15088H12.5618V13.4429Z" fill="#F7F7F7"/>
<path d="M15.6791 13.4663L15.4623 13.8315C15.2794 14.1385 15.0502 14.4079 14.7894 14.6372C14.7069 14.599 14.6181 14.57 14.5248 14.5532L14.1888 14.4927C14.1394 14.4837 14.0934 14.4631 14.0541 14.4331C14.0148 14.4031 13.9834 14.3649 13.9633 14.3208L13.8265 14.021C13.6166 13.5602 13.0755 13.3106 12.5677 13.4409L12.559 13.4429V9.15088H15.6791V13.4663Z" fill="#268A42"/>
<path d="M11.0589 8.65503L11.187 9.95846L11.6928 8.74243L11.4328 10.0277L12.2753 8.99756L11.6483 10.1605L12.7593 9.39975L11.816 10.3461L13.1056 9.91641L11.9224 10.5696L13.286 10.5057L11.9589 10.8128L13.286 11.1198L11.9224 11.0559L13.1056 11.7091L11.816 11.2794L12.7593 12.2258L11.6483 11.4651L12.2753 12.628L11.4328 11.5979L11.6928 12.8831L11.187 11.6671L11.0589 12.9705L10.9308 11.6671L10.425 12.8831L10.685 11.5979L9.84246 12.628L10.4695 11.4651L9.35846 12.2258L10.3018 11.2794L9.01223 11.7091L10.1954 11.0559L8.8318 11.1198L10.1589 10.8128L8.8318 10.5057L10.1954 10.5696L9.01223 9.91641L10.3018 10.3461L9.35846 9.39975L10.4695 10.1605L9.84246 8.99756L10.685 10.0277L10.425 8.74243L10.9308 9.95846L11.0589 8.65503Z" fill="#F7B70F"/>
<path fill-rule="evenodd" clip-rule="evenodd" d="M15.4926 18.4357C15.4716 18.3968 15.4606 18.3535 15.4606 18.3095C15.4606 18.2655 15.4716 18.2221 15.4926 18.1833L15.635 17.9196C15.8542 17.5139 15.7351 17.0026 15.358 16.7302L15.1129 16.5532C15.0768 16.5271 15.0477 16.4928 15.0282 16.4531C15.0087 16.4135 14.9994 16.3698 15.0012 16.3258L15.0128 16.0277C15.0306 15.569 14.6969 15.1589 14.2365 15.0739L13.9373 15.0186C13.8932 15.0105 13.8518 14.9919 13.8167 14.9644C13.7816 14.937 13.7539 14.9016 13.736 14.8612L13.6144 14.5877C13.4273 14.1669 12.9452 13.9392 12.4927 14.0584L12.1987 14.1358C12.1553 14.1472 12.1098 14.1481 12.066 14.1383C12.0222 14.1285 11.9816 14.1084 11.9476 14.0796L11.7169 13.8849C11.3621 13.5853 10.8269 13.5853 10.472 13.8849L10.2413 14.0796C10.2073 14.1084 10.1667 14.1285 10.1229 14.1383C10.0791 14.1481 10.0336 14.1472 9.99023 14.1358L9.69618 14.0584C9.24372 13.9393 8.76158 14.1669 8.57452 14.5877L8.45292 14.8613C8.43501 14.9016 8.4073 14.937 8.37219 14.9645C8.33709 14.9919 8.29567 15.0105 8.25155 15.0186L7.95235 15.0739C7.49202 15.1589 7.15831 15.569 7.17613 16.0277L7.18771 16.3258C7.18944 16.3698 7.18016 16.4135 7.16068 16.4531C7.1412 16.4928 7.11212 16.5271 7.07596 16.5532L6.83087 16.7302C6.45379 17.0026 6.3347 17.5139 6.55384 17.9196L6.69629 18.1833C6.71731 18.2222 6.72831 18.2655 6.72831 18.3095C6.72831 18.3535 6.71731 18.3968 6.69629 18.4357L6.55384 18.6994C6.3347 19.105 6.45379 19.6164 6.83087 19.8887L7.07594 20.0657C7.1121 20.0918 7.14119 20.1262 7.16067 20.1658C7.18015 20.2055 7.18942 20.2492 7.18768 20.2932L7.17611 20.5913C7.15829 21.05 7.492 21.46 7.95232 21.5451L8.10921 21.5741L8.10924 21.574L8.25149 21.6003C8.29561 21.6084 8.33704 21.627 8.37214 21.6545C8.40725 21.6819 8.43497 21.7173 8.45288 21.7577L8.57445 22.0312C8.76151 22.452 9.24368 22.6797 9.69611 22.5605L9.99016 22.4831C10.0335 22.4717 10.0791 22.4708 10.1228 22.4806C10.1666 22.4904 10.2073 22.5106 10.2413 22.5393L10.4719 22.734C10.4911 22.7501 10.5109 22.7655 10.5313 22.78L10.5313 22.7801L10.5314 22.7801C10.6978 22.8991 10.8961 22.9588 11.0944 22.9588C11.2898 22.9588 11.4851 22.9011 11.6499 22.7856L11.6499 22.7856C11.673 22.7694 11.6954 22.7522 11.7169 22.734L11.9476 22.5393C11.9816 22.5106 12.0222 22.4904 12.066 22.4806C12.1097 22.4708 12.1553 22.4717 12.1986 22.4831L12.4927 22.5605C12.5736 22.5818 12.6554 22.592 12.7364 22.592C13.1081 22.592 13.4608 22.3768 13.6144 22.0312L13.736 21.7577C13.7539 21.7173 13.7816 21.6819 13.8167 21.6545C13.8518 21.627 13.8932 21.6084 13.9373 21.6003L14.0698 21.5758L14.0698 21.5759L14.0698 21.5759L14.2366 21.5451C14.6969 21.46 15.0306 21.05 15.0128 20.5913L15.0012 20.2931C14.9995 20.2492 15.0087 20.2055 15.0282 20.1658C15.0477 20.1262 15.0768 20.0918 15.1129 20.0657L15.358 19.8887C15.7351 19.6164 15.8542 19.1051 15.6351 18.6994L15.4926 18.4357Z" fill="#F3B811"/>
<ellipse cx="11.0929" cy="18.3338" rx="3.04039" ry="2.97929" fill="url(#paint0_linear_329_458)"/>
<g filter="url(#filter0_i_329_458)">
<path d="M13.1924 18.2558C13.3025 18.1507 13.3415 17.9965 13.294 17.8532C13.2465 17.7099 13.1225 17.6076 12.9706 17.5858L12.016 17.4497C12.0072 17.4485 11.9989 17.4452 11.9918 17.4401C11.9847 17.435 11.9789 17.4282 11.975 17.4205L11.5483 16.5729C11.4803 16.4379 11.3425 16.354 11.1889 16.354C11.0352 16.354 10.8975 16.4382 10.8295 16.5729L10.4028 17.4205C10.3989 17.4283 10.3932 17.435 10.386 17.4401C10.3789 17.4452 10.3706 17.4485 10.3618 17.4497L9.40766 17.5858C9.25553 17.6076 9.13131 17.7099 9.08401 17.8532C9.03672 17.9965 9.07551 18.1507 9.18557 18.2558L9.87601 18.9154C9.88909 18.9278 9.89476 18.9455 9.8917 18.9628L9.72868 19.8941C9.71572 19.9664 9.72382 20.0407 9.75204 20.1087C9.78025 20.1767 9.82745 20.2355 9.88822 20.2783C9.94857 20.3217 10.0201 20.3475 10.0948 20.3528C10.1694 20.3582 10.244 20.3428 10.3102 20.3085L11.1636 19.8687C11.1715 19.8646 11.1802 19.8624 11.1891 19.8624C11.198 19.8624 11.2068 19.8646 11.2146 19.8687L12.0681 20.3085C12.1342 20.3427 12.2088 20.358 12.2833 20.3527C12.3579 20.3474 12.4294 20.3216 12.4898 20.2783C12.5506 20.2355 12.5978 20.1767 12.626 20.1087C12.6542 20.0408 12.6623 19.9664 12.6493 19.8941L12.4863 18.9628C12.4848 18.9543 12.4855 18.9455 12.4882 18.9372C12.4909 18.929 12.4957 18.9215 12.502 18.9154L13.1924 18.2558Z" fill="#F3B811"/>
</g>
<path d="M19.912 18.4795V13.4155C19.912 13.2395 19.936 13.1195 19.984 13.0555C20.04 12.9915 20.156 12.9595 20.332 12.9595H25.324V13.6435H21.148V15.2635H24.964V15.9475H21.148V17.7955H25.324V18.4795H19.912ZM32.6737 15.7555C32.6737 16.3955 32.6017 16.8995 32.4577 17.2675C32.3217 17.6355 32.1177 17.9075 31.8457 18.0835C31.5817 18.2595 31.2497 18.3755 30.8497 18.4315C30.4497 18.4795 29.9897 18.5035 29.4697 18.5035C29.1977 18.5035 28.9257 18.4995 28.6537 18.4915C28.3817 18.4915 28.1137 18.4915 27.8497 18.4915C27.5937 18.4915 27.3577 18.4875 27.1417 18.4795C26.9337 18.4795 26.7577 18.4795 26.6137 18.4795V13.7275C26.6137 13.4715 26.6537 13.2835 26.7337 13.1635C26.8137 13.0435 27.0017 12.9755 27.2977 12.9595C27.4417 12.9515 27.6217 12.9475 27.8377 12.9475C28.0617 12.9475 28.2937 12.9475 28.5337 12.9475C28.7817 12.9395 29.0177 12.9355 29.2417 12.9355C29.4737 12.9355 29.6777 12.9395 29.8537 12.9475C30.3337 12.9635 30.7497 13.0035 31.1017 13.0675C31.4537 13.1235 31.7457 13.2475 31.9777 13.4395C32.2177 13.6235 32.3937 13.8995 32.5057 14.2675C32.6177 14.6355 32.6737 15.1315 32.6737 15.7555ZM27.8497 17.8195C27.9057 17.8195 28.0017 17.8235 28.1377 17.8315C28.2737 17.8315 28.4217 17.8315 28.5817 17.8315C28.7417 17.8315 28.8977 17.8355 29.0497 17.8435C29.2017 17.8435 29.3217 17.8435 29.4097 17.8435C29.7857 17.8435 30.0977 17.8155 30.3457 17.7595C30.6017 17.7035 30.8097 17.6035 30.9697 17.4595C31.1297 17.3155 31.2417 17.1075 31.3057 16.8355C31.3777 16.5555 31.4137 16.1995 31.4137 15.7675C31.4137 15.1675 31.3497 14.7115 31.2217 14.3995C31.1017 14.0875 30.8977 13.8755 30.6097 13.7635C30.3297 13.6515 29.9377 13.5955 29.4337 13.5955C29.3297 13.5955 29.1817 13.5955 28.9897 13.5955C28.8057 13.5955 28.6217 13.5995 28.4377 13.6075C28.2537 13.6075 28.1057 13.6155 27.9937 13.6315C27.9457 13.6635 27.9097 13.7075 27.8857 13.7635C27.8617 13.8115 27.8497 13.9075 27.8497 14.0515V17.8195ZM39.636 16.0075C39.636 16.3835 39.616 16.7275 39.576 17.0395C39.544 17.3515 39.436 17.6195 39.252 17.8435C39.076 18.0595 38.792 18.2275 38.4 18.3475C38.016 18.4595 37.472 18.5155 36.768 18.5155C36.208 18.5155 35.748 18.4795 35.388 18.4075C35.036 18.3275 34.76 18.2155 34.56 18.0715C34.368 17.9275 34.228 17.7595 34.14 17.5675C34.052 17.3675 34 17.1435 33.984 16.8955C33.968 16.6395 33.96 16.3715 33.96 16.0915V13.5595C33.96 13.3915 33.964 13.2675 33.972 13.1875C33.98 13.0995 34.016 13.0395 34.08 13.0075C34.152 12.9755 34.268 12.9595 34.428 12.9595H35.196V16.4995C35.196 16.8515 35.248 17.1235 35.352 17.3155C35.456 17.4995 35.624 17.6275 35.856 17.6995C36.096 17.7715 36.404 17.8075 36.78 17.8075C37.364 17.8075 37.78 17.7075 38.028 17.5075C38.276 17.3075 38.4 16.9715 38.4 16.4995V12.9595H39.156C39.316 12.9595 39.428 12.9755 39.492 13.0075C39.564 13.0395 39.604 13.0995 39.612 13.1875C39.628 13.2675 39.636 13.3915 39.636 13.5595V16.0075ZM40.9256 15.7195C40.9256 15.1515 40.9856 14.6875 41.1056 14.3275C41.2256 13.9595 41.4176 13.6715 41.6816 13.4635C41.9536 13.2555 42.3056 13.1115 42.7376 13.0315C43.1776 12.9435 43.7136 12.8995 44.3456 12.8995C44.6496 12.8995 44.9376 12.9115 45.2096 12.9355C45.4896 12.9515 45.7776 12.9835 46.0736 13.0315C46.3376 13.0715 46.5096 13.1355 46.5896 13.2235C46.6776 13.3035 46.7216 13.4155 46.7216 13.5595V13.9555C46.5376 13.8755 46.3056 13.8115 46.0256 13.7635C45.7456 13.7075 45.4576 13.6675 45.1616 13.6435C44.8736 13.6115 44.6136 13.5955 44.3816 13.5955C43.8536 13.5955 43.4256 13.6555 43.0976 13.7755C42.7776 13.8955 42.5456 14.1075 42.4016 14.4115C42.2576 14.7155 42.1856 15.1515 42.1856 15.7195C42.1856 16.2875 42.2536 16.7275 42.3896 17.0395C42.5336 17.3435 42.7696 17.5555 43.0976 17.6755C43.4336 17.7955 43.8896 17.8555 44.4656 17.8555C44.6896 17.8555 44.9336 17.8435 45.1976 17.8195C45.4616 17.7875 45.7256 17.7475 45.9896 17.6995C46.2536 17.6515 46.4976 17.5955 46.7216 17.5315V17.9035C46.7216 18.0315 46.6776 18.1395 46.5896 18.2275C46.5096 18.3155 46.3296 18.3795 46.0496 18.4195C45.7616 18.4755 45.4736 18.5115 45.1856 18.5275C44.8976 18.5435 44.6056 18.5515 44.3096 18.5515C43.6616 18.5515 43.1176 18.5115 42.6776 18.4315C42.2456 18.3515 41.9016 18.2075 41.6456 17.9995C41.3896 17.7915 41.2056 17.5035 41.0936 17.1355C40.9816 16.7675 40.9256 16.2955 40.9256 15.7195ZM47.2341 18.4795L48.9141 13.8115C49.0261 13.5235 49.1781 13.3035 49.3701 13.1515C49.5621 12.9915 49.8741 12.9115 50.3061 12.9115C50.6901 12.9115 50.9821 12.9835 51.1821 13.1275C51.3901 13.2715 51.5501 13.4995 51.6621 13.8115L53.3781 18.4795H52.0461L51.5301 17.0395H48.6861L48.1821 18.4795H47.2341ZM48.8781 16.5235H51.3021L50.5461 14.3275C50.5141 14.2235 50.4701 14.1315 50.4141 14.0515C50.3661 13.9715 50.2581 13.9315 50.0901 13.9315C49.9141 13.9315 49.7981 13.9755 49.7421 14.0635C49.6861 14.1435 49.6421 14.2315 49.6101 14.3275L48.8781 16.5235ZM52.9083 12.9595H58.7162V13.6435H56.4363V18.0115C56.4363 18.1875 56.4083 18.3115 56.3523 18.3835C56.3043 18.4475 56.1883 18.4795 56.0043 18.4795H55.2003V13.6435H52.9083V12.9595ZM59.8847 18.4795V13.4155C59.8847 13.2395 59.9087 13.1195 59.9567 13.0555C60.0127 12.9915 60.1287 12.9595 60.3047 12.9595H65.2967V13.6435H61.1207V15.2635H64.9367V15.9475H61.1207V17.7955H65.2967V18.4795H59.8847ZM72.6464 15.7555C72.6464 16.3955 72.5744 16.8995 72.4304 17.2675C72.2944 17.6355 72.0904 17.9075 71.8184 18.0835C71.5544 18.2595 71.2224 18.3755 70.8224 18.4315C70.4224 18.4795 69.9624 18.5035 69.4424 18.5035C69.1704 18.5035 68.8984 18.4995 68.6264 18.4915C68.3544 18.4915 68.0864 18.4915 67.8224 18.4915C67.5664 18.4915 67.3304 18.4875 67.1144 18.4795C66.9064 18.4795 66.7304 18.4795 66.5864 18.4795V13.7275C66.5864 13.4715 66.6264 13.2835 66.7064 13.1635C66.7864 13.0435 66.9744 12.9755 67.2704 12.9595C67.4144 12.9515 67.5944 12.9475 67.8104 12.9475C68.0344 12.9475 68.2664 12.9475 68.5064 12.9475C68.7544 12.9395 68.9904 12.9355 69.2144 12.9355C69.4464 12.9355 69.6504 12.9395 69.8264 12.9475C70.3064 12.9635 70.7224 13.0035 71.0744 13.0675C71.4264 13.1235 71.7184 13.2475 71.9504 13.4395C72.1904 13.6235 72.3664 13.8995 72.4784 14.2675C72.5904 14.6355 72.6464 15.1315 72.6464 15.7555ZM67.8224 17.8195C67.8784 17.8195 67.9744 17.8235 68.1104 17.8315C68.2464 17.8315 68.3944 17.8315 68.5544 17.8315C68.7144 17.8315 68.8704 17.8355 69.0224 17.8435C69.1744 17.8435 69.2944 17.8435 69.3824 17.8435C69.7584 17.8435 70.0704 17.8155 70.3184 17.7595C70.5744 17.7035 70.7824 17.6035 70.9424 17.4595C71.1024 17.3155 71.2144 17.1075 71.2784 16.8355C71.3504 16.5555 71.3864 16.1995 71.3864 15.7675C71.3864 15.1675 71.3224 14.7115 71.1944 14.3995C71.0744 14.0875 70.8704 13.8755 70.5824 13.7635C70.3024 13.6515 69.9104 13.5955 69.4064 13.5955C69.3024 13.5955 69.1544 13.5955 68.9624 13.5955C68.7784 13.5955 68.5944 13.5995 68.4104 13.6075C68.2264 13.6075 68.0784 13.6155 67.9664 13.6315C67.9184 13.6635 67.8824 13.7075 67.8584 13.7635C67.8344 13.8115 67.8224 13.9075 67.8224 14.0515V17.8195Z" fill="#1C274C"/>
<rect x="81" y="9.97949" width="41" height="11" rx="5" fill="#1BC469"/>
<path d="M87.0143 17.9795C86.8943 17.9795 86.8143 17.9628 86.7743 17.9295C86.7343 17.8895 86.7143 17.8095 86.7143 17.6895V14.2795C86.7676 14.2595 86.8443 14.2328 86.9443 14.1995C87.0443 14.1662 87.1643 14.1328 87.3043 14.0995C87.4443 14.0595 87.6043 14.0295 87.7843 14.0095C87.9709 13.9828 88.1743 13.9695 88.3943 13.9695C88.6209 13.9695 88.8176 13.9895 88.9843 14.0295C89.1509 14.0628 89.2943 14.1262 89.4143 14.2195C89.5343 14.3062 89.6343 14.4262 89.7143 14.5795H89.5743C89.6276 14.4662 89.7043 14.3695 89.8043 14.2895C89.9043 14.2028 90.0209 14.1362 90.1543 14.0895C90.2876 14.0428 90.4243 14.0095 90.5643 13.9895C90.7109 13.9695 90.8509 13.9595 90.9843 13.9595C91.3576 13.9595 91.6509 13.9962 91.8643 14.0695C92.0776 14.1428 92.2276 14.2662 92.3143 14.4395C92.4076 14.6128 92.4543 14.8428 92.4543 15.1295V17.7095C92.4543 17.8162 92.4343 17.8895 92.3943 17.9295C92.3543 17.9628 92.2809 17.9795 92.1743 17.9795H91.7543C91.7543 17.4995 91.7543 17.0228 91.7543 16.5495C91.7543 16.0695 91.7543 15.5895 91.7543 15.1095C91.7543 14.8162 91.6809 14.6162 91.5343 14.5095C91.3943 14.3962 91.1843 14.3395 90.9043 14.3395C90.7709 14.3395 90.6276 14.3562 90.4743 14.3895C90.3276 14.4228 90.2009 14.4728 90.0943 14.5395C89.9876 14.6062 89.9343 14.6828 89.9343 14.7695V17.9795H89.2343V14.8495C89.2343 14.7095 89.1509 14.5928 88.9843 14.4995C88.8243 14.3995 88.6176 14.3495 88.3643 14.3495C88.2109 14.3495 88.0643 14.3628 87.9243 14.3895C87.7843 14.4095 87.6676 14.4428 87.5743 14.4895C87.4809 14.5295 87.4276 14.5862 87.4143 14.6595V17.9795H87.0143ZM95.439 18.0395C95.1324 18.0395 94.8557 18.0162 94.609 17.9695C94.369 17.9228 94.159 17.8295 93.979 17.6895C93.8057 17.5495 93.6724 17.3428 93.579 17.0695C93.4857 16.7962 93.439 16.4362 93.439 15.9895C93.439 15.5428 93.4857 15.1828 93.579 14.9095C93.6724 14.6362 93.8057 14.4295 93.979 14.2895C94.159 14.1495 94.369 14.0562 94.609 14.0095C94.8557 13.9628 95.1324 13.9395 95.439 13.9395C95.739 13.9395 96.009 13.9628 96.249 14.0095C96.4957 14.0562 96.7057 14.1495 96.879 14.2895C97.0524 14.4295 97.1857 14.6362 97.279 14.9095C97.3724 15.1828 97.419 15.5428 97.419 15.9895C97.419 16.4428 97.3724 16.8062 97.279 17.0795C97.1857 17.3528 97.0524 17.5595 96.879 17.6995C96.7057 17.8328 96.4957 17.9228 96.249 17.9695C96.009 18.0162 95.739 18.0395 95.439 18.0395ZM95.439 17.6495C95.7057 17.6495 95.9324 17.6095 96.119 17.5295C96.3124 17.4495 96.459 17.2928 96.559 17.0595C96.659 16.8262 96.709 16.4695 96.709 15.9895C96.709 15.5095 96.659 15.1528 96.559 14.9195C96.459 14.6862 96.3124 14.5295 96.119 14.4495C95.9324 14.3695 95.7057 14.3295 95.439 14.3295C95.1724 14.3295 94.9424 14.3695 94.749 14.4495C94.5624 14.5295 94.4157 14.6862 94.309 14.9195C94.209 15.1528 94.159 15.5095 94.159 15.9895C94.159 16.4695 94.209 16.8262 94.309 17.0595C94.4157 17.2928 94.5624 17.4495 94.749 17.5295C94.9424 17.6095 95.1724 17.6495 95.439 17.6495ZM98.6923 17.9795C98.539 17.9795 98.4623 17.8995 98.4623 17.7395V14.2795C98.6556 14.1928 98.909 14.1162 99.2223 14.0495C99.5423 13.9828 99.909 13.9495 100.322 13.9495C100.709 13.9495 101.022 13.9762 101.262 14.0295C101.502 14.0828 101.686 14.1628 101.812 14.2695C101.939 14.3762 102.022 14.5162 102.062 14.6895C102.109 14.8562 102.132 15.0595 102.132 15.2995V17.6795C102.132 17.7528 102.122 17.8128 102.102 17.8595C102.089 17.9062 102.059 17.9395 102.012 17.9595C101.972 17.9728 101.909 17.9795 101.822 17.9795H101.432V15.1595C101.432 14.8928 101.346 14.6962 101.172 14.5695C100.999 14.4428 100.716 14.3795 100.322 14.3795C100.196 14.3795 100.056 14.3895 99.9023 14.4095C99.7556 14.4295 99.6156 14.4595 99.4823 14.4995C99.349 14.5328 99.239 14.5795 99.1523 14.6395V17.9795H98.6923ZM104.277 18.0095C104.05 18.0095 103.873 17.9828 103.747 17.9295C103.62 17.8695 103.527 17.7695 103.467 17.6295C103.407 17.4895 103.377 17.2995 103.377 17.0595V14.3795H102.997V13.9895H103.377V13.2695C103.377 13.1695 103.383 13.0962 103.397 13.0495C103.417 12.9962 103.447 12.9628 103.487 12.9495C103.527 12.9362 103.583 12.9295 103.657 12.9295H104.087C104.087 12.9428 104.083 12.9728 104.077 13.0195C104.077 13.0595 104.077 13.1195 104.077 13.1995V13.9895H105.007V14.3795H104.077V16.9795C104.077 17.2395 104.103 17.4228 104.157 17.5295C104.21 17.6362 104.33 17.6895 104.517 17.6895C104.59 17.6895 104.667 17.6828 104.747 17.6695C104.827 17.6562 104.883 17.6428 104.917 17.6295V17.9395C104.877 17.9462 104.8 17.9595 104.687 17.9795C104.573 17.9995 104.437 18.0095 104.277 18.0095ZM106.106 17.9795C105.972 17.9795 105.889 17.9595 105.856 17.9195C105.829 17.8795 105.816 17.7962 105.816 17.6695V12.9395H106.516V14.1295C106.589 14.0962 106.696 14.0728 106.836 14.0595C106.982 14.0395 107.132 14.0228 107.286 14.0095C107.446 13.9962 107.592 13.9895 107.726 13.9895C108.126 13.9895 108.446 14.0295 108.686 14.1095C108.926 14.1828 109.102 14.2928 109.216 14.4395C109.329 14.5795 109.402 14.7562 109.436 14.9695C109.476 15.1762 109.496 15.4128 109.496 15.6795V17.5895C109.496 17.7028 109.486 17.7895 109.466 17.8495C109.452 17.9028 109.422 17.9395 109.376 17.9595C109.329 17.9728 109.259 17.9795 109.166 17.9795H108.816V15.5195C108.816 15.1995 108.769 14.9562 108.676 14.7895C108.589 14.6228 108.456 14.5095 108.276 14.4495C108.096 14.3895 107.876 14.3595 107.616 14.3595C107.516 14.3595 107.392 14.3662 107.246 14.3795C107.106 14.3862 106.966 14.3995 106.826 14.4195C106.692 14.4395 106.589 14.4662 106.516 14.4995V17.9795H106.106ZM111.49 18.0195C111.183 18.0195 110.963 17.9528 110.83 17.8195C110.696 17.6795 110.63 17.4328 110.63 17.0795V13.2595C110.63 13.1795 110.636 13.1162 110.65 13.0695C110.663 13.0162 110.69 12.9795 110.73 12.9595C110.776 12.9395 110.84 12.9295 110.92 12.9295H111.34C111.34 12.9362 111.336 12.9795 111.33 13.0595C111.323 13.1395 111.32 13.2395 111.32 13.3595V16.9695C111.32 17.2228 111.346 17.4062 111.4 17.5195C111.46 17.6328 111.573 17.6895 111.74 17.6895C111.786 17.6895 111.85 17.6828 111.93 17.6695C112.01 17.6562 112.063 17.6462 112.09 17.6395V17.9495C112.05 17.9562 111.983 17.9695 111.89 17.9895C111.803 18.0095 111.67 18.0195 111.49 18.0195ZM114.479 19.0895C114.179 19.0895 113.895 19.0728 113.629 19.0395C113.362 19.0128 113.145 18.9695 112.979 18.9095C112.812 18.8495 112.729 18.7828 112.729 18.7095V18.4595C112.835 18.5195 112.975 18.5695 113.149 18.6095C113.329 18.6495 113.519 18.6795 113.719 18.6995C113.919 18.7262 114.112 18.7395 114.299 18.7395C114.619 18.7395 114.879 18.6962 115.079 18.6095C115.285 18.5228 115.439 18.3828 115.539 18.1895C115.645 17.9962 115.699 17.7528 115.699 17.4595V16.9195C115.639 17.0528 115.542 17.1662 115.409 17.2595C115.275 17.3528 115.109 17.4195 114.909 17.4595C114.715 17.4995 114.489 17.5195 114.229 17.5195C113.755 17.5195 113.405 17.4528 113.179 17.3195C112.959 17.1862 112.815 16.9962 112.749 16.7495C112.689 16.5028 112.659 16.2162 112.659 15.8895V14.3795C112.659 14.2795 112.662 14.2028 112.669 14.1495C112.682 14.0895 112.705 14.0495 112.739 14.0295C112.779 14.0028 112.842 13.9895 112.929 13.9895H113.369C113.369 14.1628 113.369 14.3295 113.369 14.4895C113.369 14.6428 113.369 14.7962 113.369 14.9495C113.369 15.0962 113.369 15.2462 113.369 15.3995C113.369 15.5528 113.369 15.7162 113.369 15.8895C113.369 16.2695 113.419 16.5495 113.519 16.7295C113.625 16.9095 113.765 17.0228 113.939 17.0695C114.119 17.1162 114.315 17.1395 114.529 17.1395C114.742 17.1395 114.935 17.1128 115.109 17.0595C115.282 16.9995 115.422 16.8862 115.529 16.7195C115.635 16.5528 115.689 16.3028 115.689 15.9695V13.9895H116.119C116.219 13.9895 116.289 14.0062 116.329 14.0395C116.375 14.0662 116.399 14.1495 116.399 14.2895V17.3795C116.399 17.9728 116.242 18.4062 115.929 18.6795C115.622 18.9528 115.139 19.0895 114.479 19.0895Z" fill="white"/>
<rect x="5" y="41.9587" width="116" height="15" rx="7.5" fill="#1BC469"/>
<path d="M16.8954 50.1687C16.8954 50.1687 16.8088 50.1687 16.6354 50.1687C16.4688 50.1687 16.2454 50.1687 15.9654 50.1687C15.6854 50.1687 15.3821 50.1721 15.0554 50.1787V51.9587H14.0254V47.9087C14.0254 47.7154 14.0654 47.5787 14.1454 47.4987C14.2321 47.4121 14.3821 47.3654 14.5954 47.3587C14.6954 47.3521 14.8321 47.3487 15.0054 47.3487C15.1788 47.3487 15.3754 47.3487 15.5954 47.3487C15.8154 47.3421 16.0388 47.3387 16.2654 47.3387C16.4988 47.3387 16.7221 47.3387 16.9354 47.3387C17.1488 47.3387 17.3354 47.3421 17.4954 47.3487C17.6621 47.3554 17.7888 47.3621 17.8754 47.3687C18.2288 47.4021 18.4888 47.5154 18.6554 47.7087C18.8221 47.9021 18.9054 48.1954 18.9054 48.5887C18.9054 48.9154 18.8654 49.1687 18.7854 49.3487C18.7121 49.5221 18.5988 49.6554 18.4454 49.7487C18.4188 49.7687 18.3754 49.7854 18.3154 49.7987C18.2621 49.8121 18.2054 49.8187 18.1454 49.8187V49.8487C18.1788 49.8487 18.2154 49.8487 18.2554 49.8487C18.2954 49.8487 18.3288 49.8487 18.3554 49.8487C18.6088 49.8954 18.7621 49.9954 18.8154 50.1487C18.8688 50.3021 18.8954 50.4587 18.8954 50.6187V51.6787C18.8954 51.7654 18.9021 51.8321 18.9154 51.8787C18.9354 51.9254 18.9488 51.9521 18.9554 51.9587H18.2054C18.0921 51.9587 18.0021 51.9421 17.9354 51.9087C17.8688 51.8687 17.8354 51.7754 17.8354 51.6287V50.6887C17.8354 50.4821 17.7888 50.3454 17.6954 50.2787C17.6088 50.2054 17.4521 50.1687 17.2254 50.1687H16.8954ZM15.0554 49.6387C15.1421 49.6387 15.2754 49.6421 15.4554 49.6487C15.6421 49.6487 15.8454 49.6521 16.0654 49.6587C16.2854 49.6587 16.4888 49.6587 16.6754 49.6587C16.8621 49.6587 16.9954 49.6587 17.0754 49.6587C17.2821 49.6587 17.4621 49.5954 17.6154 49.4687C17.7754 49.3421 17.8554 49.1054 17.8554 48.7587C17.8554 48.5187 17.8088 48.3287 17.7154 48.1887C17.6288 48.0487 17.4854 47.9687 17.2854 47.9487C17.1654 47.9287 17.0088 47.9187 16.8154 47.9187C16.6221 47.9121 16.4221 47.9087 16.2154 47.9087C16.0088 47.9087 15.8188 47.9121 15.6454 47.9187C15.4788 47.9187 15.3521 47.9221 15.2654 47.9287C15.2454 47.9287 15.2054 47.9387 15.1454 47.9587C15.0854 47.9787 15.0554 48.0421 15.0554 48.1487V49.6387ZM21.998 52.0187C21.5913 52.0187 21.248 51.9921 20.968 51.9387C20.6947 51.8854 20.4747 51.7854 20.308 51.6387C20.148 51.4921 20.0347 51.2887 19.968 51.0287C19.9013 50.7687 19.868 50.4321 19.868 50.0187C19.868 49.5254 19.9313 49.1254 20.058 48.8187C20.1847 48.5121 20.408 48.2887 20.728 48.1487C21.0547 48.0021 21.508 47.9287 22.088 47.9287C22.5413 47.9287 22.9013 47.9854 23.168 48.0987C23.4413 48.2054 23.638 48.3754 23.758 48.6087C23.878 48.8421 23.938 49.1387 23.938 49.4987V50.1387H21.128C21.128 50.0321 21.1513 49.9454 21.198 49.8787C21.2447 49.8121 21.3313 49.7787 21.458 49.7787H23.098L23.088 49.5187C23.0813 49.1454 23.0013 48.8721 22.848 48.6987C22.7013 48.5254 22.4347 48.4387 22.048 48.4387C21.728 48.4387 21.478 48.4887 21.298 48.5887C21.118 48.6887 20.9913 48.8521 20.918 49.0787C20.8447 49.2987 20.808 49.6054 20.808 49.9987C20.808 50.4054 20.848 50.7154 20.928 50.9287C21.0147 51.1354 21.1547 51.2754 21.348 51.3487C21.548 51.4221 21.8247 51.4587 22.178 51.4587C22.3047 51.4587 22.4513 51.4554 22.618 51.4487C22.7913 51.4421 22.9647 51.4321 23.138 51.4187C23.318 51.4054 23.478 51.3887 23.618 51.3687C23.758 51.3487 23.8513 51.3287 23.898 51.3087V51.4487C23.898 51.5221 23.8813 51.5954 23.848 51.6687C23.8147 51.7421 23.7447 51.8021 23.638 51.8487C23.498 51.9154 23.2913 51.9587 23.018 51.9787C22.7513 52.0054 22.4113 52.0187 21.998 52.0187ZM25.0927 51.9587C24.906 51.9587 24.8127 51.8654 24.8127 51.6787V48.2387C25.0127 48.1587 25.2827 48.0887 25.6227 48.0287C25.9627 47.9621 26.3494 47.9287 26.7827 47.9287C27.2094 47.9287 27.5494 47.9554 27.8027 48.0087C28.0627 48.0621 28.2594 48.1487 28.3927 48.2687C28.526 48.3821 28.6127 48.5321 28.6527 48.7187C28.6994 48.9054 28.7227 49.1354 28.7227 49.4087V51.5787C28.7227 51.6721 28.7127 51.7487 28.6927 51.8087C28.6794 51.8687 28.6427 51.9087 28.5827 51.9287C28.5294 51.9487 28.446 51.9587 28.3327 51.9587H27.7827V49.2087C27.7827 48.9487 27.7027 48.7621 27.5427 48.6487C27.3827 48.5354 27.1294 48.4787 26.7827 48.4787C26.676 48.4787 26.556 48.4887 26.4227 48.5087C26.2894 48.5221 26.1627 48.5454 26.0427 48.5787C25.9227 48.6121 25.826 48.6554 25.7527 48.7087V51.9587H25.0927ZM31.7539 52.0187C31.3472 52.0187 31.0039 51.9921 30.7239 51.9387C30.4505 51.8854 30.2305 51.7854 30.0639 51.6387C29.9039 51.4921 29.7905 51.2887 29.7239 51.0287C29.6572 50.7687 29.6239 50.4321 29.6239 50.0187C29.6239 49.5254 29.6872 49.1254 29.8139 48.8187C29.9405 48.5121 30.1639 48.2887 30.4839 48.1487C30.8105 48.0021 31.2639 47.9287 31.8439 47.9287C32.2972 47.9287 32.6572 47.9854 32.9239 48.0987C33.1972 48.2054 33.3939 48.3754 33.5139 48.6087C33.6339 48.8421 33.6939 49.1387 33.6939 49.4987V50.1387H30.8839C30.8839 50.0321 30.9072 49.9454 30.9539 49.8787C31.0005 49.8121 31.0872 49.7787 31.2139 49.7787H32.8539L32.8439 49.5187C32.8372 49.1454 32.7572 48.8721 32.6039 48.6987C32.4572 48.5254 32.1905 48.4387 31.8039 48.4387C31.4839 48.4387 31.2339 48.4887 31.0539 48.5887C30.8739 48.6887 30.7472 48.8521 30.6739 49.0787C30.6005 49.2987 30.5639 49.6054 30.5639 49.9987C30.5639 50.4054 30.6039 50.7154 30.6839 50.9287C30.7705 51.1354 30.9105 51.2754 31.1039 51.3487C31.3039 51.4221 31.5805 51.4587 31.9339 51.4587C32.0605 51.4587 32.2072 51.4554 32.3739 51.4487C32.5472 51.4421 32.7205 51.4321 32.8939 51.4187C33.0739 51.4054 33.2339 51.3887 33.3739 51.3687C33.5139 51.3487 33.6072 51.3287 33.6539 51.3087V51.4487C33.6539 51.5221 33.6372 51.5954 33.6039 51.6687C33.5705 51.7421 33.5005 51.8021 33.3939 51.8487C33.2539 51.9154 33.0472 51.9587 32.7739 51.9787C32.5072 52.0054 32.1672 52.0187 31.7539 52.0187ZM36.0786 51.9987C35.7119 51.9987 35.4086 51.9687 35.1686 51.9087C34.9352 51.8421 34.7619 51.7154 34.6486 51.5287C34.5419 51.3354 34.4886 51.0487 34.4886 50.6687V48.3987C34.4886 48.2254 34.5086 48.1121 34.5486 48.0587C34.5952 47.9987 34.6886 47.9687 34.8286 47.9687H35.4286V50.6887C35.4286 51.0021 35.4919 51.2087 35.6186 51.3087C35.7452 51.4021 35.9452 51.4487 36.2186 51.4487C36.5119 51.4487 36.7219 51.3987 36.8486 51.2987C36.9752 51.1987 37.0386 51.0354 37.0386 50.8087V47.9687H37.9786V50.8187C37.9786 51.0387 38.0419 51.1987 38.1686 51.2987C38.2952 51.3987 38.5019 51.4487 38.7886 51.4487C39.0686 51.4487 39.2719 51.4021 39.3986 51.3087C39.5252 51.2087 39.5886 50.9987 39.5886 50.6787V47.9687H40.1586C40.3186 47.9687 40.4186 47.9954 40.4586 48.0487C40.5052 48.1021 40.5286 48.2187 40.5286 48.3987V50.6687C40.5286 51.0354 40.4719 51.3154 40.3586 51.5087C40.2452 51.7021 40.0686 51.8321 39.8286 51.8987C39.5952 51.9654 39.2819 51.9987 38.8886 51.9987C38.4886 51.9987 38.1619 51.9354 37.9086 51.8087C37.6552 51.6821 37.5019 51.4587 37.4486 51.1387H37.5786C37.5319 51.3587 37.4486 51.5321 37.3286 51.6587C37.2086 51.7854 37.0452 51.8754 36.8386 51.9287C36.6386 51.9754 36.3852 51.9987 36.0786 51.9987ZM44.0477 51.9587C44.0477 51.7987 44.0477 51.6421 44.0477 51.4887C44.0477 51.3287 44.0477 51.1687 44.0477 51.0087C44.0477 50.6754 44.0744 50.4087 44.1277 50.2087C44.1877 50.0021 44.281 49.8454 44.4077 49.7387C44.541 49.6321 44.7144 49.5587 44.9277 49.5187C45.141 49.4787 45.4044 49.4587 45.7177 49.4587C45.8777 49.4587 46.0144 49.4587 46.1277 49.4587C46.2477 49.4587 46.3877 49.4587 46.5477 49.4587C46.7877 49.4587 46.9877 49.4087 47.1477 49.3087C47.3077 49.2021 47.3877 48.9987 47.3877 48.6987C47.3877 48.4387 47.3277 48.2587 47.2077 48.1587C47.0877 48.0521 46.9277 47.9821 46.7277 47.9487C46.6077 47.9354 46.4877 47.9287 46.3677 47.9287C46.2477 47.9221 46.101 47.9187 45.9277 47.9187C45.7144 47.9187 45.5044 47.9254 45.2977 47.9387C45.0977 47.9521 44.931 47.9787 44.7977 48.0187C44.731 48.0321 44.6477 48.0487 44.5477 48.0687C44.4544 48.0887 44.3644 48.1154 44.2777 48.1487C44.191 48.1754 44.1277 48.2087 44.0877 48.2487C44.0877 48.2087 44.0877 48.1587 44.0877 48.0987C44.0877 48.0387 44.0877 47.9821 44.0877 47.9287C44.0877 47.8754 44.0877 47.8487 44.0877 47.8487C44.0877 47.7487 44.1377 47.6687 44.2377 47.6087C44.3444 47.5421 44.4877 47.4887 44.6677 47.4487C44.8477 47.4087 45.0544 47.3821 45.2877 47.3687C45.5277 47.3487 45.7777 47.3387 46.0377 47.3387C46.4777 47.3387 46.8644 47.3654 47.1977 47.4187C47.5377 47.4654 47.8044 47.5854 47.9977 47.7787C48.191 47.9654 48.2877 48.2754 48.2877 48.7087C48.2877 49.0954 48.2177 49.3887 48.0777 49.5887C47.9377 49.7821 47.751 49.9121 47.5177 49.9787C47.291 50.0387 47.041 50.0687 46.7677 50.0687C46.6544 50.0687 46.531 50.0687 46.3977 50.0687C46.2644 50.0687 46.1077 50.0687 45.9277 50.0687C45.721 50.0687 45.5477 50.0921 45.4077 50.1387C45.2677 50.1787 45.1644 50.2554 45.0977 50.3687C45.0377 50.4821 45.0077 50.6454 45.0077 50.8587V51.3787H48.3277V51.9587H44.0477ZM53.4063 50.5087C53.4063 50.8154 53.3696 51.0654 53.2963 51.2587C53.2296 51.4521 53.113 51.6054 52.9463 51.7187C52.7863 51.8321 52.5696 51.9121 52.2963 51.9587C52.0296 51.9987 51.693 52.0187 51.2863 52.0187C50.8196 52.0187 50.413 52.0021 50.0663 51.9687C49.7263 51.9354 49.4896 51.8954 49.3563 51.8487C49.2696 51.8221 49.203 51.7954 49.1563 51.7687C49.1163 51.7354 49.0896 51.6887 49.0763 51.6287C49.063 51.5621 49.0596 51.4687 49.0663 51.3487V51.1587C49.3463 51.2387 49.663 51.3054 50.0163 51.3587C50.3696 51.4054 50.7396 51.4287 51.1263 51.4287C51.4196 51.4287 51.673 51.4054 51.8863 51.3587C52.0996 51.3054 52.263 51.2121 52.3763 51.0787C52.4896 50.9387 52.5463 50.7387 52.5463 50.4787C52.5463 50.2521 52.5163 50.0787 52.4563 49.9587C52.403 49.8387 52.2996 49.7554 52.1463 49.7087C51.9996 49.6554 51.7863 49.6287 51.5063 49.6287C51.3063 49.6221 51.0963 49.6187 50.8763 49.6187C50.6563 49.6187 50.4363 49.6254 50.2163 49.6387C50.003 49.6521 49.8096 49.6687 49.6363 49.6887C49.463 49.7021 49.3263 49.7154 49.2263 49.7287V47.3587H53.3163V47.9187H50.0563V49.1087C50.1896 49.1021 50.343 49.0987 50.5163 49.0987C50.6896 49.0921 50.8663 49.0887 51.0463 49.0887C51.2263 49.0821 51.3996 49.0821 51.5663 49.0887C51.7396 49.0887 51.8863 49.0921 52.0063 49.0987C52.393 49.1187 52.6863 49.1787 52.8863 49.2787C53.093 49.3787 53.2296 49.5287 53.2963 49.7287C53.3696 49.9221 53.4063 50.1821 53.4063 50.5087ZM54.5142 51.6287C54.5142 51.4754 54.5642 51.3821 54.6642 51.3487C54.7642 51.3087 54.8842 51.2887 55.0242 51.2887C55.1642 51.2887 55.2775 51.3087 55.3642 51.3487C55.4575 51.3821 55.5042 51.4754 55.5042 51.6287C55.5042 51.7354 55.4808 51.8154 55.4342 51.8687C55.3942 51.9154 55.3375 51.9454 55.2642 51.9587C55.1908 51.9721 55.1075 51.9787 55.0142 51.9787C54.9208 51.9787 54.8375 51.9721 54.7642 51.9587C54.6908 51.9454 54.6308 51.9154 54.5842 51.8687C54.5375 51.8154 54.5142 51.7354 54.5142 51.6287ZM58.4914 52.0287C58.1781 52.0287 57.8914 52.0021 57.6314 51.9487C57.3714 51.8954 57.1448 51.7921 56.9514 51.6387C56.7581 51.4787 56.6081 51.2387 56.5014 50.9187C56.4014 50.5987 56.3514 50.1754 56.3514 49.6487C56.3514 49.1087 56.4081 48.6787 56.5214 48.3587C56.6414 48.0387 56.8081 47.8021 57.0214 47.6487C57.2348 47.4887 57.4781 47.3854 57.7514 47.3387C58.0314 47.2921 58.3248 47.2687 58.6314 47.2687C58.9448 47.2687 59.2314 47.2954 59.4914 47.3487C59.7581 47.4021 59.9881 47.5087 60.1814 47.6687C60.3748 47.8221 60.5214 48.0587 60.6214 48.3787C60.7281 48.6987 60.7814 49.1221 60.7814 49.6487C60.7814 50.1887 60.7214 50.6187 60.6014 50.9387C60.4814 51.2587 60.3148 51.4987 60.1014 51.6587C59.8948 51.8121 59.6514 51.9121 59.3714 51.9587C59.0981 52.0054 58.8048 52.0287 58.4914 52.0287ZM58.5614 51.5487C58.7548 51.5487 58.9248 51.5287 59.0714 51.4887C59.2248 51.4421 59.3514 51.3554 59.4514 51.2287C59.5581 51.0954 59.6381 50.9021 59.6914 50.6487C59.7514 50.3954 59.7814 50.0621 59.7814 49.6487C59.7814 49.2354 59.7514 48.9021 59.6914 48.6487C59.6381 48.3954 59.5581 48.2054 59.4514 48.0787C59.3514 47.9454 59.2248 47.8587 59.0714 47.8187C58.9248 47.7721 58.7548 47.7487 58.5614 47.7487C58.3748 47.7487 58.2081 47.7721 58.0614 47.8187C57.9148 47.8587 57.7881 47.9454 57.6814 48.0787C57.5814 48.2054 57.5014 48.3954 57.4414 48.6487C57.3881 48.9021 57.3614 49.2354 57.3614 49.6487C57.3614 50.0687 57.3881 50.4054 57.4414 50.6587C57.5014 50.9054 57.5814 51.0954 57.6814 51.2287C57.7814 51.3554 57.9048 51.4421 58.0514 51.4887C58.2048 51.5287 58.3748 51.5487 58.5614 51.5487ZM62.5375 51.9587L62.5475 48.3587C62.5475 48.1587 62.5108 48.0254 62.4375 47.9587C62.3708 47.8854 62.2741 47.8487 62.1475 47.8487C62.0341 47.8487 61.9141 47.8621 61.7875 47.8887C61.6675 47.9154 61.5475 47.9421 61.4275 47.9687V47.4887C61.6141 47.4554 61.8141 47.4254 62.0275 47.3987C62.2475 47.3654 62.4541 47.3487 62.6475 47.3487C62.8808 47.3487 63.0675 47.3787 63.2075 47.4387C63.3475 47.4921 63.4441 47.5821 63.4975 47.7087C63.5575 47.8287 63.5875 47.9887 63.5875 48.1887V51.9587H62.5375ZM64.9439 51.6287C64.9439 51.4754 64.9939 51.3821 65.0939 51.3487C65.1939 51.3087 65.3139 51.2887 65.4539 51.2887C65.5939 51.2887 65.7072 51.3087 65.7939 51.3487C65.8872 51.3821 65.9339 51.4754 65.9339 51.6287C65.9339 51.7354 65.9105 51.8154 65.8639 51.8687C65.8239 51.9154 65.7672 51.9454 65.6939 51.9587C65.6205 51.9721 65.5372 51.9787 65.4439 51.9787C65.3505 51.9787 65.2672 51.9721 65.1939 51.9587C65.1205 51.9454 65.0605 51.9154 65.0139 51.8687C64.9672 51.8154 64.9439 51.7354 64.9439 51.6287ZM66.8211 51.9587C66.8211 51.7987 66.8211 51.6421 66.8211 51.4887C66.8211 51.3287 66.8211 51.1687 66.8211 51.0087C66.8211 50.6754 66.8478 50.4087 66.9011 50.2087C66.9611 50.0021 67.0545 49.8454 67.1811 49.7387C67.3145 49.6321 67.4878 49.5587 67.7011 49.5187C67.9145 49.4787 68.1778 49.4587 68.4911 49.4587C68.6511 49.4587 68.7878 49.4587 68.9011 49.4587C69.0211 49.4587 69.1611 49.4587 69.3211 49.4587C69.5611 49.4587 69.7611 49.4087 69.9211 49.3087C70.0811 49.2021 70.1611 48.9987 70.1611 48.6987C70.1611 48.4387 70.1011 48.2587 69.9811 48.1587C69.8611 48.0521 69.7011 47.9821 69.5011 47.9487C69.3811 47.9354 69.2611 47.9287 69.1411 47.9287C69.0211 47.9221 68.8745 47.9187 68.7011 47.9187C68.4878 47.9187 68.2778 47.9254 68.0711 47.9387C67.8711 47.9521 67.7045 47.9787 67.5711 48.0187C67.5045 48.0321 67.4211 48.0487 67.3211 48.0687C67.2278 48.0887 67.1378 48.1154 67.0511 48.1487C66.9645 48.1754 66.9011 48.2087 66.8611 48.2487C66.8611 48.2087 66.8611 48.1587 66.8611 48.0987C66.8611 48.0387 66.8611 47.9821 66.8611 47.9287C66.8611 47.8754 66.8611 47.8487 66.8611 47.8487C66.8611 47.7487 66.9111 47.6687 67.0111 47.6087C67.1178 47.5421 67.2611 47.4887 67.4411 47.4487C67.6211 47.4087 67.8278 47.3821 68.0611 47.3687C68.3011 47.3487 68.5511 47.3387 68.8111 47.3387C69.2511 47.3387 69.6378 47.3654 69.9711 47.4187C70.3111 47.4654 70.5778 47.5854 70.7711 47.7787C70.9645 47.9654 71.0611 48.2754 71.0611 48.7087C71.0611 49.0954 70.9911 49.3887 70.8511 49.5887C70.7111 49.7821 70.5245 49.9121 70.2911 49.9787C70.0645 50.0387 69.8145 50.0687 69.5411 50.0687C69.4278 50.0687 69.3045 50.0687 69.1711 50.0687C69.0378 50.0687 68.8811 50.0687 68.7011 50.0687C68.4945 50.0687 68.3211 50.0921 68.1811 50.1387C68.0411 50.1787 67.9378 50.2554 67.8711 50.3687C67.8111 50.4821 67.7811 50.6454 67.7811 50.8587V51.3787H71.1011V51.9587H66.8211ZM73.9797 52.0287C73.6664 52.0287 73.3797 52.0021 73.1197 51.9487C72.8597 51.8954 72.6331 51.7921 72.4397 51.6387C72.2464 51.4787 72.0964 51.2387 71.9897 50.9187C71.8897 50.5987 71.8397 50.1754 71.8397 49.6487C71.8397 49.1087 71.8964 48.6787 72.0097 48.3587C72.1297 48.0387 72.2964 47.8021 72.5097 47.6487C72.7231 47.4887 72.9664 47.3854 73.2397 47.3387C73.5197 47.2921 73.8131 47.2687 74.1197 47.2687C74.4331 47.2687 74.7197 47.2954 74.9797 47.3487C75.2464 47.4021 75.4764 47.5087 75.6697 47.6687C75.8631 47.8221 76.0097 48.0587 76.1097 48.3787C76.2164 48.6987 76.2697 49.1221 76.2697 49.6487C76.2697 50.1887 76.2097 50.6187 76.0897 50.9387C75.9697 51.2587 75.8031 51.4987 75.5897 51.6587C75.3831 51.8121 75.1397 51.9121 74.8597 51.9587C74.5864 52.0054 74.2931 52.0287 73.9797 52.0287ZM74.0497 51.5487C74.2431 51.5487 74.4131 51.5287 74.5597 51.4887C74.7131 51.4421 74.8397 51.3554 74.9397 51.2287C75.0464 51.0954 75.1264 50.9021 75.1797 50.6487C75.2397 50.3954 75.2697 50.0621 75.2697 49.6487C75.2697 49.2354 75.2397 48.9021 75.1797 48.6487C75.1264 48.3954 75.0464 48.2054 74.9397 48.0787C74.8397 47.9454 74.7131 47.8587 74.5597 47.8187C74.4131 47.7721 74.2431 47.7487 74.0497 47.7487C73.8631 47.7487 73.6964 47.7721 73.5497 47.8187C73.4031 47.8587 73.2764 47.9454 73.1697 48.0787C73.0697 48.2054 72.9897 48.3954 72.9297 48.6487C72.8764 48.9021 72.8497 49.2354 72.8497 49.6487C72.8497 50.0687 72.8764 50.4054 72.9297 50.6587C72.9897 50.9054 73.0697 51.0954 73.1697 51.2287C73.2697 51.3554 73.3931 51.4421 73.5397 51.4887C73.6931 51.5287 73.8631 51.5487 74.0497 51.5487ZM77.0457 51.9587C77.0457 51.7987 77.0457 51.6421 77.0457 51.4887C77.0457 51.3287 77.0457 51.1687 77.0457 51.0087C77.0457 50.6754 77.0724 50.4087 77.1257 50.2087C77.1857 50.0021 77.2791 49.8454 77.4057 49.7387C77.5391 49.6321 77.7124 49.5587 77.9257 49.5187C78.1391 49.4787 78.4024 49.4587 78.7157 49.4587C78.8757 49.4587 79.0124 49.4587 79.1257 49.4587C79.2457 49.4587 79.3857 49.4587 79.5457 49.4587C79.7857 49.4587 79.9857 49.4087 80.1457 49.3087C80.3057 49.2021 80.3857 48.9987 80.3857 48.6987C80.3857 48.4387 80.3257 48.2587 80.2057 48.1587C80.0857 48.0521 79.9257 47.9821 79.7257 47.9487C79.6057 47.9354 79.4857 47.9287 79.3657 47.9287C79.2457 47.9221 79.0991 47.9187 78.9257 47.9187C78.7124 47.9187 78.5024 47.9254 78.2957 47.9387C78.0957 47.9521 77.9291 47.9787 77.7957 48.0187C77.7291 48.0321 77.6457 48.0487 77.5457 48.0687C77.4524 48.0887 77.3624 48.1154 77.2757 48.1487C77.1891 48.1754 77.1257 48.2087 77.0857 48.2487C77.0857 48.2087 77.0857 48.1587 77.0857 48.0987C77.0857 48.0387 77.0857 47.9821 77.0857 47.9287C77.0857 47.8754 77.0857 47.8487 77.0857 47.8487C77.0857 47.7487 77.1357 47.6687 77.2357 47.6087C77.3424 47.5421 77.4857 47.4887 77.6657 47.4487C77.8457 47.4087 78.0524 47.3821 78.2857 47.3687C78.5257 47.3487 78.7757 47.3387 79.0357 47.3387C79.4757 47.3387 79.8624 47.3654 80.1957 47.4187C80.5357 47.4654 80.8024 47.5854 80.9957 47.7787C81.1891 47.9654 81.2857 48.2754 81.2857 48.7087C81.2857 49.0954 81.2157 49.3887 81.0757 49.5887C80.9357 49.7821 80.7491 49.9121 80.5157 49.9787C80.2891 50.0387 80.0391 50.0687 79.7657 50.0687C79.6524 50.0687 79.5291 50.0687 79.3957 50.0687C79.2624 50.0687 79.1057 50.0687 78.9257 50.0687C78.7191 50.0687 78.5457 50.0921 78.4057 50.1387C78.2657 50.1787 78.1624 50.2554 78.0957 50.3687C78.0357 50.4821 78.0057 50.6454 78.0057 50.8587V51.3787H81.3257V51.9587H77.0457ZM84.1643 51.9987C83.6977 51.9987 83.3243 51.9754 83.0443 51.9287C82.7643 51.8821 82.5543 51.7821 82.4143 51.6287C82.2743 51.4754 82.181 51.2487 82.1343 50.9487C82.0943 50.6487 82.0743 50.2487 82.0743 49.7487C82.0743 49.2487 82.0977 48.8454 82.1443 48.5387C82.191 48.2321 82.2777 47.9954 82.4043 47.8287C82.5377 47.6621 82.721 47.5487 82.9543 47.4887C83.1877 47.4221 83.4877 47.3821 83.8543 47.3687C84.0677 47.3621 84.291 47.3621 84.5243 47.3687C84.7643 47.3687 84.9577 47.3821 85.1043 47.4087C85.291 47.4221 85.441 47.4487 85.5543 47.4887C85.6677 47.5221 85.771 47.5621 85.8643 47.6087C85.9377 47.6087 85.9943 47.6221 86.0343 47.6487C86.0743 47.6687 86.091 47.7087 86.0843 47.7687C86.0843 47.8287 86.051 47.9154 85.9843 48.0287C85.831 48.0021 85.651 47.9821 85.4443 47.9687C85.2377 47.9487 85.021 47.9354 84.7943 47.9287C84.5743 47.9154 84.351 47.9087 84.1243 47.9087C83.871 47.9087 83.661 47.9354 83.4943 47.9887C83.3277 48.0354 83.1977 48.1154 83.1043 48.2287C83.0177 48.3421 82.961 48.4987 82.9343 48.6987C82.9277 48.7454 82.9177 48.8121 82.9043 48.8987C82.8977 48.9854 82.891 49.0654 82.8843 49.1387C82.8843 49.2121 82.8843 49.2621 82.8843 49.2887C83.0377 49.2487 83.2277 49.2154 83.4543 49.1887C83.681 49.1621 83.921 49.1421 84.1743 49.1287C84.4343 49.1087 84.681 49.1021 84.9143 49.1087C85.1277 49.1087 85.321 49.1254 85.4943 49.1587C85.6677 49.1921 85.8177 49.2554 85.9443 49.3487C86.071 49.4354 86.1677 49.5654 86.2343 49.7387C86.3077 49.9054 86.3443 50.1354 86.3443 50.4287C86.3443 50.7421 86.3077 51.0021 86.2343 51.2087C86.1677 51.4087 86.051 51.5687 85.8843 51.6887C85.7177 51.8021 85.4943 51.8821 85.2143 51.9287C84.9343 51.9754 84.5843 51.9987 84.1643 51.9987ZM84.1743 51.4587C84.4543 51.4587 84.691 51.4387 84.8843 51.3987C85.0843 51.3521 85.241 51.2587 85.3543 51.1187C85.4677 50.9787 85.5243 50.7554 85.5243 50.4487C85.5243 50.2421 85.491 50.0821 85.4243 49.9687C85.3577 49.8487 85.2577 49.7654 85.1243 49.7187C84.9977 49.6721 84.8377 49.6421 84.6443 49.6287C84.5177 49.6221 84.3677 49.6221 84.1943 49.6287C84.021 49.6287 83.8477 49.6354 83.6743 49.6487C83.5077 49.6554 83.351 49.6654 83.2043 49.6787C83.0643 49.6921 82.9577 49.7021 82.8843 49.7087C82.8843 49.7554 82.8843 49.8387 82.8843 49.9587C82.8843 50.0721 82.8843 50.1921 82.8843 50.3187C82.891 50.4454 82.8977 50.5521 82.9043 50.6387C82.931 50.8721 82.9943 51.0487 83.0943 51.1687C83.1943 51.2887 83.331 51.3687 83.5043 51.4087C83.6843 51.4421 83.9077 51.4587 84.1743 51.4587Z" fill="white"/>
<path d="M98.5 49.4587C98.5 47.1115 100.403 45.2087 102.75 45.2087H111.25C113.597 45.2087 115.5 47.1115 115.5 49.4587C115.5 51.806 113.597 53.7087 111.25 53.7087H102.75C100.403 53.7087 98.5 51.806 98.5 49.4587Z" fill="url(#paint1_linear_329_458)"/>
<circle cx="111.247" cy="49.4565" r="3.54167" fill="white"/>
<defs>
<filter id="filter0_i_329_458" x="9.06421" y="16.354" width="4.24969" height="8.19553" filterUnits="userSpaceOnUse" color-interpolation-filters="sRGB">
<feFlood flood-opacity="0" result="BackgroundImageFix"/>
<feBlend mode="normal" in="SourceGraphic" in2="BackgroundImageFix" result="shape"/>
<feColorMatrix in="SourceAlpha" type="matrix" values="0 0 0 0 0 0 0 0 0 0 0 0 0 0 0 0 0 0 127 0" result="hardAlpha"/>
<feOffset dy="4.19578"/>
<feGaussianBlur stdDeviation="4.19578"/>
<feComposite in2="hardAlpha" operator="arithmetic" k2="-1" k3="1"/>
<feColorMatrix type="matrix" values="0 0 0 0 0 0 0 0 0 0 0 0 0 0 0 0 0 0 0.1 0"/>
<feBlend mode="normal" in2="shape" result="effect1_innerShadow_329_458"/>
</filter>
<linearGradient id="paint0_linear_329_458" x1="11.0876" y1="24.9986" x2="11.0876" y2="15.3545" gradientUnits="userSpaceOnUse">
<stop stop-color="#FFE59A"/>
<stop offset="1" stop-color="#FFFFD5"/>
</linearGradient>
<linearGradient id="paint1_linear_329_458" x1="98.5" y1="45.2087" x2="113.418" y2="62.1943" gradientUnits="userSpaceOnUse">
<stop offset="0.96875" stop-color="#EBEBEA"/>
</linearGradient>
</defs>
</svg>
