<svg width="246" height="94" viewBox="0 0 246 94" fill="none" xmlns="http://www.w3.org/2000/svg">
<g filter="url(#filter0_d_329_512)">
<rect x="42" y="14" width="162" height="65" rx="12" fill="white"/>
<g clip-path="url(#clip0_329_512)">
<path d="M64.9951 40.071C68.9022 40.071 72.0694 36.9037 72.0694 32.9967C72.0694 29.0896 68.9022 25.9224 64.9951 25.9224C61.0881 25.9224 57.9208 29.0896 57.9208 32.9967C57.9208 36.9037 61.0881 40.071 64.9951 40.071Z" fill="url(#paint0_linear_329_512)"/>
<path d="M73.7164 24.6355L72.9115 25.3567C71.4863 23.8816 69.677 22.8344 67.688 22.3333C65.699 21.8322 63.6096 21.8972 61.6556 22.5209C59.7016 23.1446 57.9608 24.3022 56.63 25.8629C55.2991 27.4237 54.4311 29.3254 54.124 31.3534C53.8169 33.3815 54.0829 35.4549 54.892 37.3398C55.7011 39.2246 57.021 40.8457 58.7027 42.0199C60.3845 43.1942 62.361 43.8749 64.4092 43.9852C66.4573 44.0954 68.4955 43.6309 70.2936 42.6439C70.385 42.5938 70.4528 42.5094 70.482 42.4093C70.5112 42.3092 70.4994 42.2016 70.4493 42.1102C70.3991 42.0188 70.3147 41.951 70.2146 41.9219C70.1145 41.8927 70.007 41.9044 69.9155 41.9546C68.2462 42.8723 66.3535 43.3051 64.4512 43.2043C62.5489 43.1035 60.7126 42.473 59.1496 41.384C57.5866 40.295 56.359 38.7908 55.6054 37.0413C54.8518 35.2917 54.6022 33.3663 54.8848 31.4824C55.1673 29.5984 55.9708 27.831 57.2044 26.3794C58.4381 24.9279 60.0529 23.85 61.8666 23.2674C63.6804 22.6849 65.6208 22.6208 67.469 23.0825C69.3172 23.5441 70.9996 24.5132 72.3263 25.8802L71.3493 26.7558C71.3194 26.782 71.2982 26.8166 71.2884 26.8551C71.2785 26.8936 71.2806 26.9341 71.2943 26.9714C71.308 27.0087 71.3327 27.041 71.3651 27.0639C71.3975 27.0869 71.4361 27.0995 71.4758 27.1001H73.843C73.8941 27.0989 73.9427 27.0778 73.9785 27.0413C74.0143 27.0049 74.0345 26.9559 74.0348 26.9048V24.7825C74.0355 24.7453 74.0254 24.7087 74.0056 24.6772C73.9859 24.6456 73.9574 24.6205 73.9236 24.6049C73.8899 24.5894 73.8523 24.5839 73.8155 24.5894C73.7787 24.5948 73.7442 24.6108 73.7164 24.6355Z" fill="url(#paint1_linear_329_512)"/>
<path d="M74.9976 36.9268C74.9526 36.9267 74.9079 36.919 74.8655 36.904C74.8169 36.8866 74.7722 36.8599 74.7339 36.8253C74.6956 36.7906 74.6645 36.7488 74.6424 36.7022C74.6203 36.6555 74.6076 36.605 74.605 36.5534C74.6024 36.5019 74.61 36.4503 74.6274 36.4017C74.8025 35.9085 74.939 35.4025 75.0357 34.8882C75.0552 34.7858 75.1146 34.6953 75.2008 34.6367C75.287 34.578 75.3929 34.556 75.4953 34.5755C75.5977 34.595 75.6882 34.6544 75.7468 34.7406C75.8055 34.8268 75.8275 34.9328 75.808 35.0352C75.7035 35.5892 75.5563 36.1344 75.3678 36.6658C75.3405 36.7422 75.2903 36.8083 75.2241 36.855C75.1578 36.9017 75.0787 36.9268 74.9976 36.9268Z" fill="url(#paint2_linear_329_512)"/>
<path d="M72.5296 40.8568C72.4523 40.8565 72.3769 40.8334 72.3127 40.7905C72.2484 40.7475 72.1983 40.6866 72.1685 40.6153C72.1388 40.544 72.1307 40.4655 72.1452 40.3896C72.1598 40.3138 72.1965 40.2439 72.2505 40.1887C72.7105 39.725 73.1248 39.2182 73.4878 38.6752C73.5456 38.5885 73.6355 38.5283 73.7378 38.5079C73.84 38.4874 73.9461 38.5085 74.0329 38.5663C74.1196 38.6242 74.1798 38.7141 74.2002 38.8163C74.2206 38.9186 74.1996 39.0247 74.1417 39.1114C73.7506 39.6955 73.3042 40.2405 72.8086 40.7389C72.7722 40.7761 72.7288 40.8056 72.6809 40.8258C72.633 40.8461 72.5816 40.8566 72.5296 40.8568Z" fill="url(#paint3_linear_329_512)"/>
<path d="M75.6065 32.9968C75.5047 32.9968 75.4069 32.9574 75.3336 32.8868C75.2603 32.8163 75.2172 32.72 75.2134 32.6183C75.1951 32.1108 75.1376 31.6054 75.0413 31.1067C75.0229 31.0051 75.0453 30.9002 75.1036 30.8149C75.162 30.7297 75.2516 30.6708 75.353 30.651C75.4544 30.6313 75.5595 30.6523 75.6456 30.7095C75.7316 30.7667 75.7917 30.8555 75.8128 30.9566C75.9171 31.4952 75.9795 32.041 75.9995 32.5892C76.0014 32.6408 75.9932 32.6923 75.9752 32.7408C75.9572 32.7892 75.9299 32.8336 75.8947 32.8715C75.8596 32.9093 75.8173 32.9399 75.7703 32.9614C75.7234 32.9829 75.6726 32.9949 75.621 32.9968H75.6065Z" fill="url(#paint4_linear_329_512)"/>
<path d="M66.1066 33.4833H66.6062C68.0238 33.4833 69.1774 32.3471 69.1774 30.95C69.1774 29.5532 68.024 28.4167 66.6062 28.4167H60.9071C60.6362 28.4167 60.4166 28.6332 60.4166 28.9C60.4166 29.167 60.6363 29.3833 60.9071 29.3833H66.6064C67.4832 29.3833 68.1964 30.086 68.1964 30.9499C68.1964 31.8137 67.4832 32.5165 66.6064 32.5165H66.1068C65.8359 32.5165 65.6163 32.7329 65.6163 32.9997C65.6163 33.2665 65.8359 33.4833 66.1066 33.4833Z" fill="white"/>
<path d="M60.9071 28.4167H66.6062C68.024 28.4167 69.1774 29.5532 69.1774 30.95C69.1774 32.3471 68.0238 33.4833 66.6062 33.4833H66.1066C65.8357 33.4833 65.6162 33.2668 65.6162 33.0001C65.6162 32.7333 65.8359 32.5168 66.1067 32.5168H66.6063C67.483 32.5168 68.1963 31.814 68.1963 30.9502C68.1963 30.0864 67.483 29.3836 66.6063 29.3836H60.9072C60.6362 29.3836 60.4167 29.1671 60.4167 28.9004C60.4165 28.6332 60.6362 28.4167 60.9071 28.4167Z" fill="white"/>
<path d="M63.3936 37.5834H69.0929C69.3638 37.5834 69.5833 37.3669 69.5833 37.1001C69.5833 36.8333 69.3636 36.6168 69.0929 36.6168H63.3936C62.5168 36.6168 61.8036 35.9141 61.8036 35.0502C61.8036 34.1864 62.5168 33.4837 63.3936 33.4837H63.8932C64.1641 33.4837 64.3836 33.2672 64.3836 33.0004C64.3836 32.7336 64.1639 32.5171 63.8932 32.5171H63.3936C61.976 32.5171 60.8224 33.6534 60.8224 35.0504C60.8224 36.4471 61.9758 37.5834 63.3936 37.5834Z" fill="white"/>
<path d="M63.3936 32.5168H63.8932C64.1641 32.5168 64.3836 32.7333 64.3836 33.0001C64.3836 33.2669 64.1639 33.4834 63.8932 33.4834H63.3936C62.5168 33.4834 61.8036 34.1861 61.8036 35.05C61.8036 35.9136 62.5168 36.6165 63.3936 36.6165H69.0929C69.3638 36.6165 69.5833 36.833 69.5833 37.0998C69.5833 37.3666 69.3636 37.5831 69.0929 37.5831H63.3936C61.976 37.5831 60.8224 36.4468 60.8224 35.0498C60.8224 33.6531 61.9758 32.5168 63.3936 32.5168Z" fill="white"/>
<path d="M65.2725 34.9669C65.3909 34.9669 65.5098 34.9249 65.604 34.8396C65.8037 34.6593 65.8171 34.3536 65.6341 34.1568L62.8728 31.1904C62.6898 30.9933 62.3794 30.98 62.1798 31.1609C61.9799 31.3412 61.9667 31.647 62.1497 31.8437L64.911 34.8102C65.0077 34.9143 65.1398 34.9669 65.2725 34.9669Z" fill="white"/>
<path d="M67.4862 34.9666C67.6046 34.9666 67.7235 34.9246 67.8177 34.8394C68.0175 34.659 68.0308 34.3533 67.8477 34.1566L65.0865 31.1901C64.9033 30.993 64.5931 30.9798 64.3934 31.1606C64.1936 31.341 64.1804 31.6467 64.3634 31.8435L67.1247 34.8099C67.2213 34.914 67.3535 34.9666 67.4862 34.9666Z" fill="white"/>
</g>
<path opacity="0.5" d="M82.52 37.5V29.16C82.52 28.76 82.5667 28.52 82.66 28.44C82.7533 28.3467 82.98 28.3 83.34 28.3H84.86L87.88 35L87.92 35.16L87.96 35.12L88 34.96L90.98 28.3H92.6C92.9333 28.3 93.1467 28.34 93.24 28.42C93.3467 28.5 93.4 28.7 93.4 29.02V36.76C93.4 36.9867 93.38 37.1533 93.34 37.26C93.3 37.3533 93.22 37.42 93.1 37.46C92.9933 37.4867 92.8333 37.5 92.62 37.5H91.34V30.52L91.24 30.9L88.28 37.5H86.96L84.08 31.02L83.98 30.66V37.5H82.52ZM99.6658 39.72C99.0124 39.72 98.3991 39.6867 97.8258 39.62C97.2658 39.5667 96.8058 39.4733 96.4458 39.34C96.0991 39.22 95.9258 39.0667 95.9258 38.88V38.28C96.1391 38.4 96.4258 38.5 96.7858 38.58C97.1591 38.66 97.5458 38.72 97.9458 38.76C98.3591 38.8133 98.7524 38.84 99.1258 38.84C99.7658 38.84 100.279 38.7533 100.666 38.58C101.066 38.42 101.359 38.16 101.546 37.8C101.732 37.44 101.826 36.98 101.826 36.42V35.44C101.706 35.7067 101.512 35.9267 101.246 36.1C100.992 36.2733 100.672 36.4 100.286 36.48C99.8991 36.5467 99.4324 36.58 98.8858 36.58C97.9658 36.58 97.2858 36.4467 96.8458 36.18C96.4058 35.9133 96.1191 35.5333 95.9858 35.04C95.8658 34.5467 95.8058 33.9733 95.8058 33.32V30.38C95.8058 30.18 95.8191 30.02 95.8458 29.9C95.8724 29.7667 95.9324 29.6733 96.0258 29.62C96.1191 29.5533 96.2724 29.52 96.4858 29.52H97.7258C97.7258 29.8667 97.7258 30.1867 97.7258 30.48C97.7258 30.7733 97.7258 31.06 97.7258 31.34C97.7258 31.6067 97.7258 31.8933 97.7258 32.2C97.7258 32.4933 97.7258 32.8133 97.7258 33.16C97.7258 33.92 97.8124 34.48 97.9858 34.84C98.1591 35.1867 98.3991 35.4067 98.7058 35.5C99.0124 35.5933 99.3658 35.64 99.7658 35.64C100.166 35.64 100.519 35.5867 100.826 35.48C101.132 35.36 101.372 35.1333 101.546 34.8C101.719 34.4667 101.806 33.9667 101.806 33.3V29.52H103.026C103.266 29.52 103.439 29.5533 103.546 29.62C103.652 29.6867 103.706 29.88 103.706 30.2V36.26C103.706 37.46 103.386 38.3333 102.746 38.88C102.106 39.44 101.079 39.72 99.6658 39.72ZM110.707 32.9C110.707 31.9533 110.807 31.18 111.007 30.58C111.207 29.9667 111.527 29.4867 111.967 29.14C112.42 28.7933 113.007 28.5533 113.727 28.42C114.46 28.2733 115.353 28.2 116.407 28.2C116.913 28.2 117.393 28.22 117.847 28.26C118.313 28.2867 118.793 28.34 119.287 28.42C119.727 28.4867 120.013 28.5933 120.147 28.74C120.293 28.8733 120.367 29.06 120.367 29.3V29.96C120.06 29.8267 119.673 29.72 119.207 29.64C118.74 29.5467 118.26 29.48 117.767 29.44C117.287 29.3867 116.853 29.36 116.467 29.36C115.587 29.36 114.873 29.46 114.327 29.66C113.793 29.86 113.407 30.2133 113.167 30.72C112.927 31.2267 112.807 31.9533 112.807 32.9C112.807 33.8467 112.92 34.58 113.147 35.1C113.387 35.6067 113.78 35.96 114.327 36.16C114.887 36.36 115.647 36.46 116.607 36.46C116.98 36.46 117.387 36.44 117.827 36.4C118.267 36.3467 118.707 36.28 119.147 36.2C119.587 36.12 119.993 36.0267 120.367 35.92V36.54C120.367 36.7533 120.293 36.9333 120.147 37.08C120.013 37.2267 119.713 37.3333 119.247 37.4C118.767 37.4933 118.287 37.5533 117.807 37.58C117.327 37.6067 116.84 37.62 116.347 37.62C115.267 37.62 114.36 37.5533 113.627 37.42C112.907 37.2867 112.333 37.0467 111.907 36.7C111.48 36.3533 111.173 35.8733 110.987 35.26C110.8 34.6467 110.707 33.86 110.707 32.9ZM125.701 37.62C124.874 37.62 124.201 37.58 123.681 37.5C123.161 37.4333 122.761 37.3067 122.481 37.12C122.201 36.9333 122.008 36.68 121.901 36.36C121.808 36.04 121.761 35.64 121.761 35.16C121.761 34.48 121.834 33.9667 121.981 33.62C122.141 33.26 122.408 33.0133 122.781 32.88C123.168 32.7467 123.681 32.68 124.321 32.68C124.654 32.68 125.021 32.6867 125.421 32.7C125.834 32.7133 126.228 32.7333 126.601 32.76C126.988 32.7733 127.321 32.7933 127.601 32.82C127.894 32.8467 128.088 32.88 128.181 32.92C128.181 32.36 128.134 31.92 128.041 31.6C127.948 31.28 127.794 31.04 127.581 30.88C127.381 30.72 127.128 30.6133 126.821 30.56C126.514 30.5067 126.154 30.48 125.741 30.48C125.288 30.48 124.834 30.4933 124.381 30.52C123.941 30.5467 123.521 30.5933 123.121 30.66C122.734 30.7267 122.414 30.8133 122.161 30.92V30.54C122.161 30.2333 122.241 30.0133 122.401 29.88C122.574 29.7467 122.781 29.66 123.021 29.62C123.288 29.5533 123.681 29.5 124.201 29.46C124.721 29.42 125.274 29.4067 125.861 29.42C126.608 29.42 127.241 29.46 127.761 29.54C128.294 29.6067 128.721 29.7533 129.041 29.98C129.374 30.2067 129.614 30.5467 129.761 31C129.921 31.4533 130.001 32.06 130.001 32.82V36.9C129.881 37.1533 129.474 37.34 128.781 37.46C128.088 37.5667 127.061 37.62 125.701 37.62ZM125.701 36.78C126.234 36.78 126.668 36.7667 127.001 36.74C127.348 36.7 127.614 36.6533 127.801 36.6C127.988 36.5333 128.114 36.4533 128.181 36.36V33.6C128.061 33.56 127.848 33.5267 127.541 33.5C127.234 33.46 126.914 33.4267 126.581 33.4C126.248 33.3733 125.968 33.36 125.741 33.36C125.248 33.36 124.848 33.3933 124.541 33.46C124.234 33.5267 124.014 33.68 123.881 33.92C123.748 34.16 123.681 34.5333 123.681 35.04C123.681 35.4533 123.728 35.7867 123.821 36.04C123.914 36.2933 124.101 36.48 124.381 36.6C124.674 36.72 125.114 36.78 125.701 36.78ZM135.121 37.58C134.868 37.58 134.568 37.5733 134.221 37.56C133.875 37.5467 133.521 37.52 133.161 37.48C132.815 37.4267 132.501 37.3533 132.221 37.26C132.048 37.22 131.908 37.1667 131.801 37.1C131.708 37.0333 131.635 36.92 131.581 36.76C131.541 36.5867 131.521 36.3267 131.521 35.98C131.855 36.1267 132.228 36.2467 132.641 36.34C133.055 36.42 133.461 36.4733 133.861 36.5C134.275 36.5267 134.628 36.54 134.921 36.54C135.281 36.54 135.635 36.5267 135.981 36.5C136.341 36.4733 136.668 36.4133 136.961 36.32C137.268 36.2267 137.508 36.08 137.681 35.88C137.868 35.68 137.961 35.4067 137.961 35.06C137.961 34.5933 137.841 34.2933 137.601 34.16C137.361 34.0267 137.028 33.96 136.601 33.96H134.501C133.981 33.96 133.495 33.9267 133.041 33.86C132.601 33.7933 132.241 33.62 131.961 33.34C131.695 33.06 131.561 32.5867 131.561 31.92C131.561 31.1867 131.741 30.64 132.101 30.28C132.461 29.92 132.968 29.6867 133.621 29.58C134.288 29.4733 135.068 29.42 135.961 29.42C136.295 29.42 136.681 29.4267 137.121 29.44C137.575 29.4533 137.995 29.4933 138.381 29.56C138.701 29.5867 138.955 29.64 139.141 29.72C139.341 29.7867 139.488 29.8867 139.581 30.02C139.675 30.14 139.721 30.3267 139.721 30.58V31.04C139.601 30.8933 139.395 30.7867 139.101 30.72C138.808 30.64 138.461 30.58 138.061 30.54C137.675 30.5 137.268 30.48 136.841 30.48C136.428 30.4667 136.041 30.46 135.681 30.46C135.295 30.46 134.921 30.4867 134.561 30.54C134.215 30.58 133.935 30.6933 133.721 30.88C133.508 31.0667 133.401 31.3733 133.401 31.8C133.401 32.1333 133.468 32.3733 133.601 32.52C133.735 32.6667 133.921 32.76 134.161 32.8C134.401 32.84 134.675 32.86 134.981 32.86H137.181C137.715 32.86 138.181 32.9067 138.581 33C138.981 33.0933 139.295 33.2933 139.521 33.6C139.748 33.9067 139.861 34.3867 139.861 35.04C139.861 35.7867 139.655 36.34 139.241 36.7C138.828 37.06 138.268 37.3 137.561 37.42C136.855 37.5267 136.041 37.58 135.121 37.58ZM142.176 37.5C141.856 37.5 141.649 37.4533 141.556 37.36C141.476 37.2667 141.436 37.0733 141.436 36.78V27.42H143.316V29.78C143.476 29.7267 143.683 29.6867 143.936 29.66C144.203 29.62 144.483 29.5867 144.776 29.56C145.083 29.5333 145.363 29.52 145.616 29.52C146.456 29.52 147.123 29.5933 147.616 29.74C148.109 29.8867 148.476 30.1067 148.716 30.4C148.969 30.68 149.136 31.0333 149.216 31.46C149.296 31.8867 149.336 32.3933 149.336 32.98V36.58C149.336 36.8467 149.309 37.0467 149.256 37.18C149.216 37.3133 149.136 37.4 149.016 37.44C148.896 37.48 148.716 37.5 148.476 37.5H147.496V32.62C147.496 32.02 147.416 31.5667 147.256 31.26C147.096 30.9533 146.849 30.7467 146.516 30.64C146.196 30.52 145.789 30.46 145.296 30.46C145.109 30.46 144.883 30.4733 144.616 30.5C144.363 30.5133 144.116 30.54 143.876 30.58C143.649 30.6067 143.463 30.6533 143.316 30.72V37.5H142.176ZM155.276 37.56C154.476 37.56 153.816 37.52 153.296 37.44C152.79 37.3467 152.396 37.1667 152.116 36.9C151.85 36.6333 151.663 36.24 151.556 35.72C151.463 35.2 151.416 34.5067 151.416 33.64L151.396 27.4H153.236V29.58C153.29 29.58 153.416 29.58 153.616 29.58C153.816 29.5667 154.05 29.56 154.316 29.56C154.596 29.5467 154.87 29.5333 155.136 29.52C155.403 29.5067 155.636 29.5 155.836 29.5C156.796 29.5 157.543 29.6267 158.076 29.88C158.61 30.1333 158.983 30.5533 159.196 31.14C159.423 31.7267 159.543 32.52 159.556 33.52C159.556 34.48 159.456 35.2333 159.256 35.78C159.07 36.3267 158.796 36.7267 158.436 36.98C158.076 37.2333 157.63 37.3933 157.096 37.46C156.563 37.5267 155.956 37.56 155.276 37.56ZM155.296 36.52C155.923 36.52 156.403 36.4533 156.736 36.32C157.083 36.1733 157.323 35.88 157.456 35.44C157.603 35 157.676 34.3333 157.676 33.44C157.663 32.7067 157.583 32.1333 157.436 31.72C157.29 31.3067 157.05 31.0133 156.716 30.84C156.396 30.6533 155.963 30.56 155.416 30.56C155.27 30.56 155.083 30.5667 154.856 30.58C154.63 30.58 154.403 30.5867 154.176 30.6C153.95 30.6 153.75 30.6067 153.576 30.62C153.416 30.62 153.31 30.62 153.256 30.62V33.86C153.256 34.4467 153.276 34.9133 153.316 35.26C153.37 35.6067 153.463 35.8733 153.596 36.06C153.73 36.2333 153.93 36.3533 154.196 36.42C154.476 36.4867 154.843 36.52 155.296 36.52ZM165.095 37.62C164.269 37.62 163.595 37.58 163.075 37.5C162.555 37.4333 162.155 37.3067 161.875 37.12C161.595 36.9333 161.402 36.68 161.295 36.36C161.202 36.04 161.155 35.64 161.155 35.16C161.155 34.48 161.229 33.9667 161.375 33.62C161.535 33.26 161.802 33.0133 162.175 32.88C162.562 32.7467 163.075 32.68 163.715 32.68C164.049 32.68 164.415 32.6867 164.815 32.7C165.229 32.7133 165.622 32.7333 165.995 32.76C166.382 32.7733 166.715 32.7933 166.995 32.82C167.289 32.8467 167.482 32.88 167.575 32.92C167.575 32.36 167.529 31.92 167.435 31.6C167.342 31.28 167.189 31.04 166.975 30.88C166.775 30.72 166.522 30.6133 166.215 30.56C165.909 30.5067 165.549 30.48 165.135 30.48C164.682 30.48 164.229 30.4933 163.775 30.52C163.335 30.5467 162.915 30.5933 162.515 30.66C162.129 30.7267 161.809 30.8133 161.555 30.92V30.54C161.555 30.2333 161.635 30.0133 161.795 29.88C161.969 29.7467 162.175 29.66 162.415 29.62C162.682 29.5533 163.075 29.5 163.595 29.46C164.115 29.42 164.669 29.4067 165.255 29.42C166.002 29.42 166.635 29.46 167.155 29.54C167.689 29.6067 168.115 29.7533 168.435 29.98C168.769 30.2067 169.009 30.5467 169.155 31C169.315 31.4533 169.395 32.06 169.395 32.82V36.9C169.275 37.1533 168.869 37.34 168.175 37.46C167.482 37.5667 166.455 37.62 165.095 37.62ZM165.095 36.78C165.629 36.78 166.062 36.7667 166.395 36.74C166.742 36.7 167.009 36.6533 167.195 36.6C167.382 36.5333 167.509 36.4533 167.575 36.36V33.6C167.455 33.56 167.242 33.5267 166.935 33.5C166.629 33.46 166.309 33.4267 165.975 33.4C165.642 33.3733 165.362 33.36 165.135 33.36C164.642 33.36 164.242 33.3933 163.935 33.46C163.629 33.5267 163.409 33.68 163.275 33.92C163.142 34.16 163.075 34.5333 163.075 35.04C163.075 35.4533 163.122 35.7867 163.215 36.04C163.309 36.2933 163.495 36.48 163.775 36.6C164.069 36.72 164.509 36.78 165.095 36.78ZM175.656 37.62C174.576 37.62 173.703 37.5133 173.036 37.3C172.369 37.0867 171.889 36.6933 171.596 36.12C171.303 35.5467 171.156 34.7067 171.156 33.6C171.156 32.4533 171.303 31.58 171.596 30.98C171.889 30.3667 172.369 29.9533 173.036 29.74C173.703 29.5133 174.576 29.4 175.656 29.4C176.003 29.4 176.329 29.4133 176.636 29.44C176.956 29.4667 177.323 29.5133 177.736 29.58C177.963 29.6067 178.143 29.66 178.276 29.74C178.423 29.82 178.529 29.94 178.596 30.1C178.663 30.2467 178.696 30.4667 178.696 30.76C178.536 30.6933 178.303 30.6333 177.996 30.58C177.689 30.5267 177.363 30.4867 177.016 30.46C176.669 30.4333 176.363 30.42 176.096 30.42C175.336 30.42 174.729 30.52 174.276 30.72C173.836 30.9067 173.523 31.22 173.336 31.66C173.163 32.1 173.076 32.7067 173.076 33.48C173.076 34.2533 173.163 34.8667 173.336 35.32C173.523 35.7733 173.836 36.0933 174.276 36.28C174.716 36.4667 175.323 36.56 176.096 36.56C176.456 36.56 176.803 36.5467 177.136 36.52C177.469 36.48 177.769 36.4333 178.036 36.38C178.316 36.3133 178.536 36.2533 178.696 36.2V36.74C178.696 36.98 178.563 37.1667 178.296 37.3C178.029 37.42 177.669 37.5 177.216 37.54C176.776 37.5933 176.256 37.62 175.656 37.62ZM180.382 37.5L180.362 28.1C180.362 27.82 180.402 27.6333 180.482 27.54C180.575 27.4333 180.768 27.38 181.062 27.38H182.262V33.5L185.662 29.94C185.835 29.78 186.008 29.6667 186.182 29.6C186.368 29.52 186.628 29.48 186.962 29.48C187.215 29.48 187.448 29.4867 187.662 29.5C187.875 29.5 188.068 29.5067 188.242 29.52C188.202 29.56 188.115 29.6267 187.982 29.72C187.862 29.8133 187.728 29.92 187.582 30.04C187.435 30.1467 187.302 30.2533 187.182 30.36L184.602 32.82L188.082 36.68C188.228 36.84 188.375 36.9867 188.522 37.12C188.668 37.2533 188.808 37.38 188.942 37.5C188.608 37.5133 188.268 37.52 187.922 37.52C187.588 37.52 187.288 37.52 187.022 37.52C186.715 37.52 186.482 37.4867 186.322 37.42C186.175 37.34 186.015 37.2133 185.842 37.04L183.302 34.18L182.262 35.06V37.5H180.382Z" fill="#1C274C"/>
<path d="M65.173 59.9489H66.1541C68.9375 59.9489 71.2027 57.7177 71.2027 54.9744C71.2027 52.2315 68.9379 50 66.1541 50H54.9631C54.4311 50 54 50.4251 54 50.9489C54 51.4731 54.4314 51.8979 54.9631 51.8979H66.1544C67.876 51.8979 69.2765 53.2778 69.2765 54.9741C69.2765 56.6703 67.876 58.0503 66.1544 58.0503H65.1734C64.6413 58.0503 64.2102 58.4754 64.2102 58.9992C64.2102 59.5231 64.6413 59.9489 65.173 59.9489Z" fill="#F3B811"/>
<path d="M54.9631 50H66.1541C68.9379 50 71.2027 52.2315 71.2027 54.9744C71.2027 57.7177 68.9375 59.9489 66.1541 59.9489H65.173C64.641 59.9489 64.21 59.5238 64.21 58.9999C64.21 58.4761 64.6415 58.051 65.1731 58.051H66.1542C67.8758 58.051 69.2763 56.671 69.2763 54.9748C69.2763 53.2785 67.8758 51.8986 66.1542 51.8986H54.9632C54.4312 51.8986 54.0001 51.4735 54.0001 50.9496C53.9998 50.4251 54.4311 50 54.9631 50Z" fill="#F3B811"/>
<path d="M59.8455 68H71.0368C71.5688 68 71.9999 67.5749 71.9999 67.0511C71.9999 66.5272 71.5685 66.1021 71.0368 66.1021H59.8455C58.1239 66.1021 56.7234 64.7222 56.7234 63.0259C56.7234 61.3297 58.1239 59.9497 59.8455 59.9497H60.8266C61.3586 59.9497 61.7897 59.5246 61.7897 59.0008C61.7897 58.4769 61.3582 58.0518 60.8266 58.0518H59.8455C57.062 58.0518 54.7968 60.283 54.7968 63.0263C54.7968 65.7688 57.0617 68 59.8455 68Z" fill="#F3B811"/>
<path d="M59.8455 58.0511H60.8266C61.3586 58.0511 61.7897 58.4762 61.7897 59C61.7897 59.5238 61.3582 59.9489 60.8266 59.9489H59.8455C58.1239 59.9489 56.7234 61.3289 56.7234 63.0251C56.7234 64.7211 58.1239 66.1013 59.8455 66.1013H71.0368C71.5688 66.1013 71.9999 66.5264 71.9999 67.0503C71.9999 67.5741 71.5685 67.9992 71.0368 67.9992H59.8455C57.062 67.9992 54.7968 65.7681 54.7968 63.0248C54.7968 60.2822 57.0617 58.0511 59.8455 58.0511Z" fill="#F3B811"/>
<path d="M63.5351 62.8618C63.7676 62.8618 64.0011 62.7793 64.186 62.612C64.5781 62.2579 64.6045 61.6575 64.2451 61.2712L58.823 55.4462C58.4636 55.0592 57.8542 55.0332 57.4622 55.3883C57.0698 55.7424 57.0437 56.3428 57.4031 56.7291L62.8252 62.5541C63.0151 62.7585 63.2746 62.8618 63.5351 62.8618Z" fill="#F3B811"/>
<path d="M67.8819 62.8616C68.1144 62.8616 68.3478 62.7792 68.5328 62.6118C68.9252 62.2577 68.9512 61.6573 68.5919 61.271L63.1698 55.446C62.81 55.059 62.201 55.0331 61.809 55.3882C61.4165 55.7423 61.3905 56.3427 61.7499 56.729L67.172 62.554C67.3619 62.7584 67.6214 62.8616 67.8819 62.8616Z" fill="#F3B811"/>
<path d="M78.1959 63.028C78.5639 63.1047 79.1082 63.1737 79.8289 63.235C80.5495 63.2963 81.3392 63.327 82.1979 63.327C83.1179 63.327 83.8155 63.2733 84.2909 63.166C84.7662 63.0587 85.0959 62.867 85.2799 62.591C85.4792 62.2997 85.6095 61.901 85.6709 61.395C85.6862 61.257 85.6939 61.1037 85.6939 60.935C85.7092 60.751 85.7169 60.5823 85.7169 60.429C85.7322 60.2757 85.7399 60.1607 85.7399 60.084C85.5559 60.1147 85.3412 60.153 85.0959 60.199C84.8659 60.2297 84.6129 60.2603 84.3369 60.291C83.9229 60.3677 83.4782 60.429 83.0029 60.475C82.5275 60.521 81.9909 60.544 81.3929 60.544C80.1662 60.544 79.2539 60.3293 78.6559 59.9C78.0732 59.4553 77.7819 58.635 77.7819 57.439C77.7819 56.4423 77.9352 55.691 78.2419 55.185C78.5639 54.6637 79.0929 54.311 79.8289 54.127C80.5649 53.9277 81.5539 53.828 82.7959 53.828C83.9152 53.828 84.7969 53.897 85.4409 54.035C86.0849 54.1577 86.5602 54.403 86.8669 54.771C87.1889 55.139 87.3882 55.668 87.4649 56.358C87.5569 57.0327 87.6029 57.9067 87.6029 58.98C87.6029 59.992 87.5569 60.8353 87.4649 61.51C87.3882 62.1847 87.2502 62.7213 87.0509 63.12C86.8669 63.5033 86.5985 63.7947 86.2459 63.994C85.9085 64.178 85.4792 64.316 84.9579 64.408C84.4979 64.4693 84.0072 64.5153 83.4859 64.546C82.9799 64.5767 82.4739 64.592 81.9679 64.592C81.4159 64.592 80.8945 64.5767 80.4039 64.546C79.9132 64.5307 79.4992 64.5 79.1619 64.454C78.8092 64.4233 78.5485 64.3313 78.3799 64.178C78.2112 64.0247 78.1345 63.7947 78.1499 63.488L78.1959 63.028ZM85.7169 59.026C85.7169 58.6427 85.7169 58.2747 85.7169 57.922C85.7169 57.554 85.7092 57.2243 85.6939 56.933C85.6479 56.427 85.5252 56.0437 85.3259 55.783C85.1265 55.507 84.8122 55.3153 84.3829 55.208C83.9689 55.1007 83.4092 55.047 82.7039 55.047C81.9985 55.047 81.4159 55.116 80.9559 55.254C80.5112 55.3767 80.1815 55.5913 79.9669 55.898C79.7522 56.1893 79.6449 56.6263 79.6449 57.209C79.6449 57.761 79.7215 58.1827 79.8749 58.474C80.0282 58.7653 80.2812 58.9723 80.6339 59.095C81.0019 59.2023 81.5002 59.256 82.1289 59.256C82.6349 59.256 83.1332 59.2483 83.6239 59.233C84.1299 59.2023 84.5745 59.164 84.9579 59.118C85.3412 59.072 85.5942 59.0413 85.7169 59.026ZM89.6734 63.028C90.0414 63.1047 90.5858 63.1737 91.3064 63.235C92.0271 63.2963 92.8168 63.327 93.6754 63.327C94.5954 63.327 95.2931 63.2733 95.7684 63.166C96.2438 63.0587 96.5734 62.867 96.7574 62.591C96.9568 62.2997 97.0871 61.901 97.1484 61.395C97.1638 61.257 97.1714 61.1037 97.1714 60.935C97.1868 60.751 97.1944 60.5823 97.1944 60.429C97.2098 60.2757 97.2174 60.1607 97.2174 60.084C97.0334 60.1147 96.8188 60.153 96.5734 60.199C96.3434 60.2297 96.0904 60.2603 95.8144 60.291C95.4004 60.3677 94.9558 60.429 94.4804 60.475C94.0051 60.521 93.4684 60.544 92.8704 60.544C91.6438 60.544 90.7314 60.3293 90.1334 59.9C89.5508 59.4553 89.2594 58.635 89.2594 57.439C89.2594 56.4423 89.4128 55.691 89.7194 55.185C90.0414 54.6637 90.5704 54.311 91.3064 54.127C92.0424 53.9277 93.0314 53.828 94.2734 53.828C95.3928 53.828 96.2744 53.897 96.9184 54.035C97.5624 54.1577 98.0378 54.403 98.3444 54.771C98.6664 55.139 98.8658 55.668 98.9424 56.358C99.0344 57.0327 99.0804 57.9067 99.0804 58.98C99.0804 59.992 99.0344 60.8353 98.9424 61.51C98.8658 62.1847 98.7278 62.7213 98.5284 63.12C98.3444 63.5033 98.0761 63.7947 97.7234 63.994C97.3861 64.178 96.9568 64.316 96.4354 64.408C95.9754 64.4693 95.4848 64.5153 94.9634 64.546C94.4574 64.5767 93.9514 64.592 93.4454 64.592C92.8934 64.592 92.3721 64.5767 91.8814 64.546C91.3908 64.5307 90.9768 64.5 90.6394 64.454C90.2868 64.4233 90.0261 64.3313 89.8574 64.178C89.6888 64.0247 89.6121 63.7947 89.6274 63.488L89.6734 63.028ZM97.1944 59.026C97.1944 58.6427 97.1944 58.2747 97.1944 57.922C97.1944 57.554 97.1868 57.2243 97.1714 56.933C97.1254 56.427 97.0028 56.0437 96.8034 55.783C96.6041 55.507 96.2898 55.3153 95.8604 55.208C95.4464 55.1007 94.8868 55.047 94.1814 55.047C93.4761 55.047 92.8934 55.116 92.4334 55.254C91.9888 55.3767 91.6591 55.5913 91.4444 55.898C91.2298 56.1893 91.1224 56.6263 91.1224 57.209C91.1224 57.761 91.1991 58.1827 91.3524 58.474C91.5058 58.7653 91.7588 58.9723 92.1114 59.095C92.4794 59.2023 92.9778 59.256 93.6064 59.256C94.1124 59.256 94.6108 59.2483 95.1014 59.233C95.6074 59.2023 96.0521 59.164 96.4354 59.118C96.8188 59.072 97.0718 59.0413 97.1944 59.026ZM101.151 63.028C101.519 63.1047 102.063 63.1737 102.784 63.235C103.505 63.2963 104.294 63.327 105.153 63.327C106.073 63.327 106.771 63.2733 107.246 63.166C107.721 63.0587 108.051 62.867 108.235 62.591C108.434 62.2997 108.565 61.901 108.626 61.395C108.641 61.257 108.649 61.1037 108.649 60.935C108.664 60.751 108.672 60.5823 108.672 60.429C108.687 60.2757 108.695 60.1607 108.695 60.084C108.511 60.1147 108.296 60.153 108.051 60.199C107.821 60.2297 107.568 60.2603 107.292 60.291C106.878 60.3677 106.433 60.429 105.958 60.475C105.483 60.521 104.946 60.544 104.348 60.544C103.121 60.544 102.209 60.3293 101.611 59.9C101.028 59.4553 100.737 58.635 100.737 57.439C100.737 56.4423 100.89 55.691 101.197 55.185C101.519 54.6637 102.048 54.311 102.784 54.127C103.52 53.9277 104.509 53.828 105.751 53.828C106.87 53.828 107.752 53.897 108.396 54.035C109.04 54.1577 109.515 54.403 109.822 54.771C110.144 55.139 110.343 55.668 110.42 56.358C110.512 57.0327 110.558 57.9067 110.558 58.98C110.558 59.992 110.512 60.8353 110.42 61.51C110.343 62.1847 110.205 62.7213 110.006 63.12C109.822 63.5033 109.554 63.7947 109.201 63.994C108.864 64.178 108.434 64.316 107.913 64.408C107.453 64.4693 106.962 64.5153 106.441 64.546C105.935 64.5767 105.429 64.592 104.923 64.592C104.371 64.592 103.85 64.5767 103.359 64.546C102.868 64.5307 102.454 64.5 102.117 64.454C101.764 64.4233 101.504 64.3313 101.335 64.178C101.166 64.0247 101.09 63.7947 101.105 63.488L101.151 63.028ZM108.672 59.026C108.672 58.6427 108.672 58.2747 108.672 57.922C108.672 57.554 108.664 57.2243 108.649 56.933C108.603 56.427 108.48 56.0437 108.281 55.783C108.082 55.507 107.767 55.3153 107.338 55.208C106.924 55.1007 106.364 55.047 105.659 55.047C104.954 55.047 104.371 55.116 103.911 55.254C103.466 55.3767 103.137 55.5913 102.922 55.898C102.707 56.1893 102.6 56.6263 102.6 57.209C102.6 57.761 102.677 58.1827 102.83 58.474C102.983 58.7653 103.236 58.9723 103.589 59.095C103.957 59.2023 104.455 59.256 105.084 59.256C105.59 59.256 106.088 59.2483 106.579 59.233C107.085 59.2023 107.53 59.164 107.913 59.118C108.296 59.072 108.549 59.0413 108.672 59.026ZM113.111 63.741C113.111 63.3883 113.226 63.1737 113.456 63.097C113.686 63.005 113.962 62.959 114.284 62.959C114.606 62.959 114.867 63.005 115.066 63.097C115.281 63.1737 115.388 63.3883 115.388 63.741C115.388 63.9863 115.335 64.1703 115.227 64.293C115.135 64.4003 115.005 64.4693 114.836 64.5C114.668 64.5307 114.476 64.546 114.261 64.546C114.047 64.546 113.855 64.5307 113.686 64.5C113.518 64.4693 113.38 64.4003 113.272 64.293C113.165 64.1703 113.111 63.9863 113.111 63.741ZM117.682 63.028C118.05 63.1047 118.595 63.1737 119.315 63.235C120.036 63.2963 120.826 63.327 121.684 63.327C122.604 63.327 123.302 63.2733 123.777 63.166C124.253 63.0587 124.582 62.867 124.766 62.591C124.966 62.2997 125.096 61.901 125.157 61.395C125.173 61.257 125.18 61.1037 125.18 60.935C125.196 60.751 125.203 60.5823 125.203 60.429C125.219 60.2757 125.226 60.1607 125.226 60.084C125.042 60.1147 124.828 60.153 124.582 60.199C124.352 60.2297 124.099 60.2603 123.823 60.291C123.409 60.3677 122.965 60.429 122.489 60.475C122.014 60.521 121.477 60.544 120.879 60.544C119.653 60.544 118.74 60.3293 118.142 59.9C117.56 59.4553 117.268 58.635 117.268 57.439C117.268 56.4423 117.422 55.691 117.728 55.185C118.05 54.6637 118.579 54.311 119.315 54.127C120.051 53.9277 121.04 53.828 122.282 53.828C123.402 53.828 124.283 53.897 124.927 54.035C125.571 54.1577 126.047 54.403 126.353 54.771C126.675 55.139 126.875 55.668 126.951 56.358C127.043 57.0327 127.089 57.9067 127.089 58.98C127.089 59.992 127.043 60.8353 126.951 61.51C126.875 62.1847 126.737 62.7213 126.537 63.12C126.353 63.5033 126.085 63.7947 125.732 63.994C125.395 64.178 124.966 64.316 124.444 64.408C123.984 64.4693 123.494 64.5153 122.972 64.546C122.466 64.5767 121.96 64.592 121.454 64.592C120.902 64.592 120.381 64.5767 119.89 64.546C119.4 64.5307 118.986 64.5 118.648 64.454C118.296 64.4233 118.035 64.3313 117.866 64.178C117.698 64.0247 117.621 63.7947 117.636 63.488L117.682 63.028ZM125.203 59.026C125.203 58.6427 125.203 58.2747 125.203 57.922C125.203 57.554 125.196 57.2243 125.18 56.933C125.134 56.427 125.012 56.0437 124.812 55.783C124.613 55.507 124.299 55.3153 123.869 55.208C123.455 55.1007 122.896 55.047 122.19 55.047C121.485 55.047 120.902 55.116 120.442 55.254C119.998 55.3767 119.668 55.5913 119.453 55.898C119.239 56.1893 119.131 56.6263 119.131 57.209C119.131 57.761 119.208 58.1827 119.361 58.474C119.515 58.7653 119.768 58.9723 120.12 59.095C120.488 59.2023 120.987 59.256 121.615 59.256C122.121 59.256 122.62 59.2483 123.11 59.233C123.616 59.2023 124.061 59.164 124.444 59.118C124.828 59.072 125.081 59.0413 125.203 59.026ZM129.16 63.028C129.528 63.1047 130.072 63.1737 130.793 63.235C131.513 63.2963 132.303 63.327 133.162 63.327C134.082 63.327 134.779 63.2733 135.255 63.166C135.73 63.0587 136.06 62.867 136.244 62.591C136.443 62.2997 136.573 61.901 136.635 61.395C136.65 61.257 136.658 61.1037 136.658 60.935C136.673 60.751 136.681 60.5823 136.681 60.429C136.696 60.2757 136.704 60.1607 136.704 60.084C136.52 60.1147 136.305 60.153 136.06 60.199C135.83 60.2297 135.577 60.2603 135.301 60.291C134.887 60.3677 134.442 60.429 133.967 60.475C133.491 60.521 132.955 60.544 132.357 60.544C131.13 60.544 130.218 60.3293 129.62 59.9C129.037 59.4553 128.746 58.635 128.746 57.439C128.746 56.4423 128.899 55.691 129.206 55.185C129.528 54.6637 130.057 54.311 130.793 54.127C131.529 53.9277 132.518 53.828 133.76 53.828C134.879 53.828 135.761 53.897 136.405 54.035C137.049 54.1577 137.524 54.403 137.831 54.771C138.153 55.139 138.352 55.668 138.429 56.358C138.521 57.0327 138.567 57.9067 138.567 58.98C138.567 59.992 138.521 60.8353 138.429 61.51C138.352 62.1847 138.214 62.7213 138.015 63.12C137.831 63.5033 137.562 63.7947 137.21 63.994C136.872 64.178 136.443 64.316 135.922 64.408C135.462 64.4693 134.971 64.5153 134.45 64.546C133.944 64.5767 133.438 64.592 132.932 64.592C132.38 64.592 131.858 64.5767 131.368 64.546C130.877 64.5307 130.463 64.5 130.126 64.454C129.773 64.4233 129.512 64.3313 129.344 64.178C129.175 64.0247 129.098 63.7947 129.114 63.488L129.16 63.028ZM136.681 59.026C136.681 58.6427 136.681 58.2747 136.681 57.922C136.681 57.554 136.673 57.2243 136.658 56.933C136.612 56.427 136.489 56.0437 136.29 55.783C136.09 55.507 135.776 55.3153 135.347 55.208C134.933 55.1007 134.373 55.047 133.668 55.047C132.962 55.047 132.38 55.116 131.92 55.254C131.475 55.3767 131.145 55.5913 130.931 55.898C130.716 56.1893 130.609 56.6263 130.609 57.209C130.609 57.761 130.685 58.1827 130.839 58.474C130.992 58.7653 131.245 58.9723 131.598 59.095C131.966 59.2023 132.464 59.256 133.093 59.256C133.599 59.256 134.097 59.2483 134.588 59.233C135.094 59.2023 135.538 59.164 135.922 59.118C136.305 59.072 136.558 59.0413 136.681 59.026ZM140.637 63.028C141.005 63.1047 141.55 63.1737 142.27 63.235C142.991 63.2963 143.781 63.327 144.639 63.327C145.559 63.327 146.257 63.2733 146.732 63.166C147.208 63.0587 147.537 62.867 147.721 62.591C147.921 62.2997 148.051 61.901 148.112 61.395C148.128 61.257 148.135 61.1037 148.135 60.935C148.151 60.751 148.158 60.5823 148.158 60.429C148.174 60.2757 148.181 60.1607 148.181 60.084C147.997 60.1147 147.783 60.153 147.537 60.199C147.307 60.2297 147.054 60.2603 146.778 60.291C146.364 60.3677 145.92 60.429 145.444 60.475C144.969 60.521 144.432 60.544 143.834 60.544C142.608 60.544 141.695 60.3293 141.097 59.9C140.515 59.4553 140.223 58.635 140.223 57.439C140.223 56.4423 140.377 55.691 140.683 55.185C141.005 54.6637 141.534 54.311 142.27 54.127C143.006 53.9277 143.995 53.828 145.237 53.828C146.357 53.828 147.238 53.897 147.882 54.035C148.526 54.1577 149.002 54.403 149.308 54.771C149.63 55.139 149.83 55.668 149.906 56.358C149.998 57.0327 150.044 57.9067 150.044 58.98C150.044 59.992 149.998 60.8353 149.906 61.51C149.83 62.1847 149.692 62.7213 149.492 63.12C149.308 63.5033 149.04 63.7947 148.687 63.994C148.35 64.178 147.921 64.316 147.399 64.408C146.939 64.4693 146.449 64.5153 145.927 64.546C145.421 64.5767 144.915 64.592 144.409 64.592C143.857 64.592 143.336 64.5767 142.845 64.546C142.355 64.5307 141.941 64.5 141.603 64.454C141.251 64.4233 140.99 64.3313 140.821 64.178C140.653 64.0247 140.576 63.7947 140.591 63.488L140.637 63.028ZM148.158 59.026C148.158 58.6427 148.158 58.2747 148.158 57.922C148.158 57.554 148.151 57.2243 148.135 56.933C148.089 56.427 147.967 56.0437 147.767 55.783C147.568 55.507 147.254 55.3153 146.824 55.208C146.41 55.1007 145.851 55.047 145.145 55.047C144.44 55.047 143.857 55.116 143.397 55.254C142.953 55.3767 142.623 55.5913 142.408 55.898C142.194 56.1893 142.086 56.6263 142.086 57.209C142.086 57.761 142.163 58.1827 142.316 58.474C142.47 58.7653 142.723 58.9723 143.075 59.095C143.443 59.2023 143.942 59.256 144.57 59.256C145.076 59.256 145.575 59.2483 146.065 59.233C146.571 59.2023 147.016 59.164 147.399 59.118C147.783 59.072 148.036 59.0413 148.158 59.026ZM152.598 63.741C152.598 63.3883 152.713 63.1737 152.943 63.097C153.173 63.005 153.449 62.959 153.771 62.959C154.093 62.959 154.353 63.005 154.553 63.097C154.767 63.1737 154.875 63.3883 154.875 63.741C154.875 63.9863 154.821 64.1703 154.714 64.293C154.622 64.4003 154.491 64.4693 154.323 64.5C154.154 64.5307 153.962 64.546 153.748 64.546C153.533 64.546 153.341 64.5307 153.173 64.5C153.004 64.4693 152.866 64.4003 152.759 64.293C152.651 64.1703 152.598 63.9863 152.598 63.741ZM161.746 64.661C161.025 64.661 160.366 64.5997 159.768 64.477C159.17 64.3543 158.648 64.1167 158.204 63.764C157.759 63.396 157.414 62.844 157.169 62.108C156.939 61.372 156.824 60.3983 156.824 59.187C156.824 57.945 156.954 56.956 157.215 56.22C157.491 55.484 157.874 54.9397 158.365 54.587C158.855 54.219 159.415 53.9813 160.044 53.874C160.688 53.7667 161.362 53.713 162.068 53.713C162.788 53.713 163.448 53.7743 164.046 53.897C164.659 54.0197 165.188 54.265 165.633 54.633C166.077 54.9857 166.415 55.53 166.645 56.266C166.89 57.002 167.013 57.9757 167.013 59.187C167.013 60.429 166.875 61.418 166.599 62.154C166.323 62.89 165.939 63.442 165.449 63.81C164.973 64.1627 164.414 64.3927 163.77 64.5C163.141 64.6073 162.466 64.661 161.746 64.661ZM161.907 63.557C162.351 63.557 162.742 63.511 163.08 63.419C163.432 63.3117 163.724 63.1123 163.954 62.821C164.199 62.5143 164.383 62.0697 164.506 61.487C164.644 60.9043 164.713 60.1377 164.713 59.187C164.713 58.2363 164.644 57.4697 164.506 56.887C164.383 56.3043 164.199 55.8673 163.954 55.576C163.724 55.2693 163.432 55.07 163.08 54.978C162.742 54.8707 162.351 54.817 161.907 54.817C161.477 54.817 161.094 54.8707 160.757 54.978C160.419 55.07 160.128 55.2693 159.883 55.576C159.653 55.8673 159.469 56.3043 159.331 56.887C159.208 57.4697 159.147 58.2363 159.147 59.187C159.147 60.153 159.208 60.9273 159.331 61.51C159.469 62.0773 159.653 62.5143 159.883 62.821C160.113 63.1123 160.396 63.3117 160.734 63.419C161.086 63.511 161.477 63.557 161.907 63.557ZM173.627 64.661C172.907 64.661 172.247 64.5997 171.649 64.477C171.051 64.3543 170.53 64.1167 170.085 63.764C169.641 63.396 169.296 62.844 169.05 62.108C168.82 61.372 168.705 60.3983 168.705 59.187C168.705 57.945 168.836 56.956 169.096 56.22C169.372 55.484 169.756 54.9397 170.246 54.587C170.737 54.219 171.297 53.9813 171.925 53.874C172.569 53.7667 173.244 53.713 173.949 53.713C174.67 53.713 175.329 53.7743 175.927 53.897C176.541 54.0197 177.07 54.265 177.514 54.633C177.959 54.9857 178.296 55.53 178.526 56.266C178.772 57.002 178.894 57.9757 178.894 59.187C178.894 60.429 178.756 61.418 178.48 62.154C178.204 62.89 177.821 63.442 177.33 63.81C176.855 64.1627 176.295 64.3927 175.651 64.5C175.023 64.6073 174.348 64.661 173.627 64.661ZM173.788 63.557C174.233 63.557 174.624 63.511 174.961 63.419C175.314 63.3117 175.605 63.1123 175.835 62.821C176.081 62.5143 176.265 62.0697 176.387 61.487C176.525 60.9043 176.594 60.1377 176.594 59.187C176.594 58.2363 176.525 57.4697 176.387 56.887C176.265 56.3043 176.081 55.8673 175.835 55.576C175.605 55.2693 175.314 55.07 174.961 54.978C174.624 54.8707 174.233 54.817 173.788 54.817C173.359 54.817 172.976 54.8707 172.638 54.978C172.301 55.07 172.01 55.2693 171.764 55.576C171.534 55.8673 171.35 56.3043 171.212 56.887C171.09 57.4697 171.028 58.2363 171.028 59.187C171.028 60.153 171.09 60.9273 171.212 61.51C171.35 62.0773 171.534 62.5143 171.764 62.821C171.994 63.1123 172.278 63.3117 172.615 63.419C172.968 63.511 173.359 63.557 173.788 63.557Z" fill="#333333"/>
</g>
<defs>
<filter id="filter0_d_329_512" x="0" y="-14" width="246" height="149" filterUnits="userSpaceOnUse" color-interpolation-filters="sRGB">
<feFlood flood-opacity="0" result="BackgroundImageFix"/>
<feColorMatrix in="SourceAlpha" type="matrix" values="0 0 0 0 0 0 0 0 0 0 0 0 0 0 0 0 0 0 127 0" result="hardAlpha"/>
<feOffset dy="14"/>
<feGaussianBlur stdDeviation="21"/>
<feColorMatrix type="matrix" values="0 0 0 0 0.0323264 0 0 0 0 0.0598209 0 0 0 0 0.204167 0 0 0 0.06 0"/>
<feBlend mode="normal" in2="BackgroundImageFix" result="effect1_dropShadow_329_512"/>
<feBlend mode="normal" in="SourceGraphic" in2="effect1_dropShadow_329_512" result="shape"/>
</filter>
<linearGradient id="paint0_linear_329_512" x1="64.9951" y1="25.9224" x2="64.9951" y2="40.071" gradientUnits="userSpaceOnUse">
<stop stop-color="#FFD270"/>
<stop offset="1" stop-color="#F79F63"/>
</linearGradient>
<linearGradient id="paint1_linear_329_512" x1="64.0128" y1="21.9921" x2="64.0128" y2="44.001" gradientUnits="userSpaceOnUse">
<stop stop-color="#F2756B"/>
<stop offset="1" stop-color="#C44747"/>
</linearGradient>
<linearGradient id="paint2_linear_329_512" x1="75.2098" y1="34.5687" x2="75.2098" y2="36.9268" gradientUnits="userSpaceOnUse">
<stop stop-color="#F2756B"/>
<stop offset="1" stop-color="#C44747"/>
</linearGradient>
<linearGradient id="paint3_linear_329_512" x1="73.1722" y1="38.4987" x2="73.1722" y2="40.8568" gradientUnits="userSpaceOnUse">
<stop stop-color="#F2756B"/>
<stop offset="1" stop-color="#C44747"/>
</linearGradient>
<linearGradient id="paint4_linear_329_512" x1="75.5169" y1="30.6383" x2="75.5169" y2="32.9968" gradientUnits="userSpaceOnUse">
<stop stop-color="#F2756B"/>
<stop offset="1" stop-color="#C44747"/>
</linearGradient>
<clipPath id="clip0_329_512">
<rect width="22" height="22" fill="white" transform="translate(54 22)"/>
</clipPath>
</defs>
</svg>
