<svg width="235" height="94" viewBox="0 0 235 94" fill="none" xmlns="http://www.w3.org/2000/svg">
<g filter="url(#filter0_d_329_498)">
<rect x="42" y="14" width="151" height="65" rx="12" fill="white"/>
<g clip-path="url(#clip0_329_498)">
<path d="M75.3348 27.5799C74.7578 25.4538 72.5466 23.2427 70.4205 22.6656C69.1173 22.3403 67.3706 22.0056 65 22C62.6298 22.006 60.8832 22.3403 59.5799 22.6656C57.4538 23.2431 55.2427 25.4538 54.6656 27.5799C54.3403 28.8832 54.006 30.6298 54 33C54.006 35.3706 54.3403 37.1173 54.6656 38.4205C55.2427 40.5466 57.4538 42.7573 59.5799 43.3348C60.8832 43.6601 62.6307 43.9944 65 44.0004C67.3706 43.9944 69.1173 43.6601 70.4205 43.3348C72.5466 42.7573 74.7578 40.5466 75.3348 38.4205C75.6601 37.1173 75.9944 35.3697 76.0004 33C75.9944 30.6298 75.6601 28.8832 75.3348 27.5799Z" fill="#DFF8FF"/>
<path d="M69.168 28.5545C68.8066 27.5327 67.8858 26.7193 66.8373 26.5848C66.1 26.4929 65.0937 26.4177 63.7178 26.4362C62.342 26.4546 61.3339 26.5608 60.5944 26.6725C59.3724 26.865 58.281 27.9396 58.0713 29.1703C58.0713 29.1703 57.7477 30.9066 57.6846 33.245H69.5293C69.5293 33.245 69.5293 30.1482 69.168 28.5545Z" fill="url(#paint0_linear_329_498)"/>
<path d="M72.1928 31.478C72.0536 30.39 71.0847 29.4696 69.9507 29.3192C67.9527 29.1211 65.0012 29.1044 65.0003 29.1117C63.7237 29.0984 60.7348 29.2204 60.0503 29.3192C59.3568 29.4086 58.7303 29.7919 58.3109 30.317C58.04 30.6502 57.8661 31.0516 57.8082 31.4771C57.727 32.1345 57.6625 33.0326 57.6952 34.2615C57.7278 35.4904 57.843 36.391 57.9582 37.0506C58.1567 38.1424 59.1389 39.1015 60.2321 39.285C60.8942 39.4113 63.7718 39.5857 65.0016 39.5643C66.2305 39.5866 69.1081 39.4113 69.7711 39.285C70.8643 39.1015 71.8465 38.1424 72.045 37.0506C72.1602 36.391 72.2732 35.4908 72.308 34.2615C72.3428 33.0321 72.2741 32.1354 72.1928 31.478Z" fill="url(#paint1_linear_329_498)"/>
<path d="M69.7617 35.3516C69.5613 35.3517 69.3653 35.2923 69.1986 35.181C69.0319 35.0697 68.902 34.9115 68.8253 34.7263C68.7485 34.5412 68.7284 34.3374 68.7675 34.1408C68.8066 33.9443 68.9031 33.7637 69.0448 33.622C69.1865 33.4802 69.3671 33.3837 69.5637 33.3446C69.7603 33.3056 69.964 33.3257 70.1492 33.4024C70.3343 33.4791 70.4926 33.6091 70.6039 33.7758C70.7152 33.9424 70.7745 34.1384 70.7745 34.3388C70.7745 34.6074 70.6678 34.865 70.4778 35.055C70.2879 35.2449 70.0303 35.3516 69.7617 35.3516Z" fill="url(#paint2_linear_329_498)"/>
</g>
<path opacity="0.5" d="M82.52 37.5V29.16C82.52 28.76 82.5667 28.52 82.66 28.44C82.7533 28.3467 82.98 28.3 83.34 28.3H84.86L87.88 35L87.92 35.16L87.96 35.12L88 34.96L90.98 28.3H92.6C92.9333 28.3 93.1467 28.34 93.24 28.42C93.3467 28.5 93.4 28.7 93.4 29.02V36.76C93.4 36.9867 93.38 37.1533 93.34 37.26C93.3 37.3533 93.22 37.42 93.1 37.46C92.9933 37.4867 92.8333 37.5 92.62 37.5H91.34V30.52L91.24 30.9L88.28 37.5H86.96L84.08 31.02L83.98 30.66V37.5H82.52ZM99.6658 39.72C99.0124 39.72 98.3991 39.6867 97.8258 39.62C97.2658 39.5667 96.8058 39.4733 96.4458 39.34C96.0991 39.22 95.9258 39.0667 95.9258 38.88V38.28C96.1391 38.4 96.4258 38.5 96.7858 38.58C97.1591 38.66 97.5458 38.72 97.9458 38.76C98.3591 38.8133 98.7524 38.84 99.1258 38.84C99.7658 38.84 100.279 38.7533 100.666 38.58C101.066 38.42 101.359 38.16 101.546 37.8C101.732 37.44 101.826 36.98 101.826 36.42V35.44C101.706 35.7067 101.512 35.9267 101.246 36.1C100.992 36.2733 100.672 36.4 100.286 36.48C99.8991 36.5467 99.4324 36.58 98.8858 36.58C97.9658 36.58 97.2858 36.4467 96.8458 36.18C96.4058 35.9133 96.1191 35.5333 95.9858 35.04C95.8658 34.5467 95.8058 33.9733 95.8058 33.32V30.38C95.8058 30.18 95.8191 30.02 95.8458 29.9C95.8724 29.7667 95.9324 29.6733 96.0258 29.62C96.1191 29.5533 96.2724 29.52 96.4858 29.52H97.7258C97.7258 29.8667 97.7258 30.1867 97.7258 30.48C97.7258 30.7733 97.7258 31.06 97.7258 31.34C97.7258 31.6067 97.7258 31.8933 97.7258 32.2C97.7258 32.4933 97.7258 32.8133 97.7258 33.16C97.7258 33.92 97.8124 34.48 97.9858 34.84C98.1591 35.1867 98.3991 35.4067 98.7058 35.5C99.0124 35.5933 99.3658 35.64 99.7658 35.64C100.166 35.64 100.519 35.5867 100.826 35.48C101.132 35.36 101.372 35.1333 101.546 34.8C101.719 34.4667 101.806 33.9667 101.806 33.3V29.52H103.026C103.266 29.52 103.439 29.5533 103.546 29.62C103.652 29.6867 103.706 29.88 103.706 30.2V36.26C103.706 37.46 103.386 38.3333 102.746 38.88C102.106 39.44 101.079 39.72 99.6658 39.72ZM117.027 37.54C116 37.54 115.12 37.54 114.387 37.54C113.653 37.54 113.033 37.5333 112.527 37.52C112.033 37.52 111.627 37.5133 111.307 37.5V29.22C111.307 28.8333 111.387 28.5867 111.547 28.48C111.72 28.3733 111.953 28.3133 112.247 28.3C112.647 28.3 113 28.3 113.307 28.3C113.627 28.2867 113.913 28.28 114.167 28.28C114.433 28.2667 114.687 28.26 114.927 28.26C115.18 28.26 115.447 28.26 115.727 28.26C116.047 28.26 116.387 28.2667 116.747 28.28C117.107 28.28 117.447 28.2867 117.767 28.3C118.087 28.3 118.333 28.3067 118.507 28.32C119.253 28.3733 119.8 28.58 120.147 28.94C120.493 29.3 120.667 29.8333 120.667 30.54C120.667 31.06 120.58 31.48 120.407 31.8C120.247 32.1067 120.033 32.3267 119.767 32.46C119.513 32.58 119.26 32.6533 119.007 32.68C119.287 32.68 119.547 32.7067 119.787 32.76C120.027 32.8133 120.24 32.92 120.427 33.08C120.613 33.2267 120.76 33.4533 120.867 33.76C120.973 34.0533 121.027 34.4467 121.027 34.94C121.027 35.54 120.927 36.02 120.727 36.38C120.527 36.7267 120.247 36.9867 119.887 37.16C119.54 37.32 119.12 37.4267 118.627 37.48C118.133 37.52 117.6 37.54 117.027 37.54ZM116.427 36.5C116.76 36.5 117.073 36.4933 117.367 36.48C117.673 36.4533 117.947 36.3933 118.187 36.3C118.427 36.2067 118.613 36.0467 118.747 35.82C118.893 35.58 118.967 35.2533 118.967 34.84C118.967 34.2533 118.833 33.8467 118.567 33.62C118.313 33.3933 117.807 33.28 117.047 33.28H114.027C113.84 33.28 113.713 33.2 113.647 33.04C113.593 32.8667 113.567 32.6133 113.567 32.28H116.987C117.267 32.28 117.527 32.2467 117.767 32.18C118.02 32.1 118.22 31.9467 118.367 31.72C118.527 31.48 118.607 31.1267 118.607 30.66C118.607 30.22 118.507 29.88 118.307 29.64C118.12 29.4 117.807 29.26 117.367 29.22C117.14 29.2067 116.88 29.2 116.587 29.2C116.293 29.1867 116.007 29.18 115.727 29.18C115.367 29.18 115.027 29.18 114.707 29.18C114.387 29.18 114.113 29.1867 113.887 29.2C113.74 29.2 113.613 29.2467 113.507 29.34C113.413 29.42 113.367 29.56 113.367 29.76V36.48C113.487 36.48 113.62 36.4867 113.767 36.5C113.913 36.5 114.087 36.5 114.287 36.5C114.5 36.5 114.773 36.5 115.107 36.5C115.453 36.5 115.893 36.5 116.427 36.5ZM126.814 37.62C125.988 37.62 125.314 37.58 124.794 37.5C124.274 37.4333 123.874 37.3067 123.594 37.12C123.314 36.9333 123.121 36.68 123.014 36.36C122.921 36.04 122.874 35.64 122.874 35.16C122.874 34.48 122.948 33.9667 123.094 33.62C123.254 33.26 123.521 33.0133 123.894 32.88C124.281 32.7467 124.794 32.68 125.434 32.68C125.768 32.68 126.134 32.6867 126.534 32.7C126.948 32.7133 127.341 32.7333 127.714 32.76C128.101 32.7733 128.434 32.7933 128.714 32.82C129.008 32.8467 129.201 32.88 129.294 32.92C129.294 32.36 129.248 31.92 129.154 31.6C129.061 31.28 128.908 31.04 128.694 30.88C128.494 30.72 128.241 30.6133 127.934 30.56C127.628 30.5067 127.268 30.48 126.854 30.48C126.401 30.48 125.948 30.4933 125.494 30.52C125.054 30.5467 124.634 30.5933 124.234 30.66C123.848 30.7267 123.528 30.8133 123.274 30.92V30.54C123.274 30.2333 123.354 30.0133 123.514 29.88C123.688 29.7467 123.894 29.66 124.134 29.62C124.401 29.5533 124.794 29.5 125.314 29.46C125.834 29.42 126.388 29.4067 126.974 29.42C127.721 29.42 128.354 29.46 128.874 29.54C129.408 29.6067 129.834 29.7533 130.154 29.98C130.488 30.2067 130.728 30.5467 130.874 31C131.034 31.4533 131.114 32.06 131.114 32.82V36.9C130.994 37.1533 130.588 37.34 129.894 37.46C129.201 37.5667 128.174 37.62 126.814 37.62ZM126.814 36.78C127.348 36.78 127.781 36.7667 128.114 36.74C128.461 36.7 128.728 36.6533 128.914 36.6C129.101 36.5333 129.228 36.4533 129.294 36.36V33.6C129.174 33.56 128.961 33.5267 128.654 33.5C128.348 33.46 128.028 33.4267 127.694 33.4C127.361 33.3733 127.081 33.36 126.854 33.36C126.361 33.36 125.961 33.3933 125.654 33.46C125.348 33.5267 125.128 33.68 124.994 33.92C124.861 34.16 124.794 34.5333 124.794 35.04C124.794 35.4533 124.841 35.7867 124.934 36.04C125.028 36.2933 125.214 36.48 125.494 36.6C125.788 36.72 126.228 36.78 126.814 36.78ZM135.115 37.58C134.408 37.58 133.901 37.44 133.595 37.16C133.288 36.8667 133.135 36.3533 133.135 35.62V28.2C133.135 27.9867 133.148 27.8267 133.175 27.72C133.215 27.6 133.288 27.52 133.395 27.48C133.501 27.4267 133.661 27.4 133.875 27.4H135.035C135.035 27.4267 135.021 27.5333 134.995 27.72C134.981 27.9067 134.975 28.1267 134.975 28.38V35.38C134.975 35.8733 135.035 36.2267 135.155 36.44C135.275 36.6533 135.501 36.76 135.835 36.76C135.941 36.76 136.068 36.7467 136.215 36.72C136.375 36.6933 136.475 36.6733 136.515 36.66V37.42C136.435 37.4333 136.295 37.46 136.095 37.5C135.895 37.5533 135.568 37.58 135.115 37.58ZM141.424 37.62C140.597 37.62 139.924 37.58 139.404 37.5C138.884 37.4333 138.484 37.3067 138.204 37.12C137.924 36.9333 137.73 36.68 137.624 36.36C137.53 36.04 137.484 35.64 137.484 35.16C137.484 34.48 137.557 33.9667 137.704 33.62C137.864 33.26 138.13 33.0133 138.504 32.88C138.89 32.7467 139.404 32.68 140.044 32.68C140.377 32.68 140.744 32.6867 141.144 32.7C141.557 32.7133 141.95 32.7333 142.324 32.76C142.71 32.7733 143.044 32.7933 143.324 32.82C143.617 32.8467 143.81 32.88 143.904 32.92C143.904 32.36 143.857 31.92 143.764 31.6C143.67 31.28 143.517 31.04 143.304 30.88C143.104 30.72 142.85 30.6133 142.544 30.56C142.237 30.5067 141.877 30.48 141.464 30.48C141.01 30.48 140.557 30.4933 140.104 30.52C139.664 30.5467 139.244 30.5933 138.844 30.66C138.457 30.7267 138.137 30.8133 137.884 30.92V30.54C137.884 30.2333 137.964 30.0133 138.124 29.88C138.297 29.7467 138.504 29.66 138.744 29.62C139.01 29.5533 139.404 29.5 139.924 29.46C140.444 29.42 140.997 29.4067 141.584 29.42C142.33 29.42 142.964 29.46 143.484 29.54C144.017 29.6067 144.444 29.7533 144.764 29.98C145.097 30.2067 145.337 30.5467 145.484 31C145.644 31.4533 145.724 32.06 145.724 32.82V36.9C145.604 37.1533 145.197 37.34 144.504 37.46C143.81 37.5667 142.784 37.62 141.424 37.62ZM141.424 36.78C141.957 36.78 142.39 36.7667 142.724 36.74C143.07 36.7 143.337 36.6533 143.524 36.6C143.71 36.5333 143.837 36.4533 143.904 36.36V33.6C143.784 33.56 143.57 33.5267 143.264 33.5C142.957 33.46 142.637 33.4267 142.304 33.4C141.97 33.3733 141.69 33.36 141.464 33.36C140.97 33.36 140.57 33.3933 140.264 33.46C139.957 33.5267 139.737 33.68 139.604 33.92C139.47 34.16 139.404 34.5333 139.404 35.04C139.404 35.4533 139.45 35.7867 139.544 36.04C139.637 36.2933 139.824 36.48 140.104 36.6C140.397 36.72 140.837 36.78 141.424 36.78ZM148.324 37.5C147.951 37.5 147.764 37.3133 147.764 36.94V30.06C148.164 29.9 148.704 29.76 149.384 29.64C150.064 29.5067 150.837 29.44 151.704 29.44C152.557 29.44 153.237 29.4933 153.744 29.6C154.264 29.7067 154.657 29.88 154.924 30.12C155.191 30.3467 155.364 30.6467 155.444 31.02C155.537 31.3933 155.584 31.8533 155.584 32.4V36.74C155.584 36.9267 155.564 37.08 155.524 37.2C155.497 37.32 155.424 37.4 155.304 37.44C155.197 37.48 155.031 37.5 154.804 37.5H153.704V32C153.704 31.48 153.544 31.1067 153.224 30.88C152.904 30.6533 152.397 30.54 151.704 30.54C151.491 30.54 151.251 30.56 150.984 30.6C150.717 30.6267 150.464 30.6733 150.224 30.74C149.984 30.8067 149.791 30.8933 149.644 31V37.5H148.324ZM161.886 37.62C160.806 37.62 159.933 37.5133 159.266 37.3C158.6 37.0867 158.12 36.6933 157.826 36.12C157.533 35.5467 157.386 34.7067 157.386 33.6C157.386 32.4533 157.533 31.58 157.826 30.98C158.12 30.3667 158.6 29.9533 159.266 29.74C159.933 29.5133 160.806 29.4 161.886 29.4C162.233 29.4 162.56 29.4133 162.866 29.44C163.186 29.4667 163.553 29.5133 163.966 29.58C164.193 29.6067 164.373 29.66 164.506 29.74C164.653 29.82 164.76 29.94 164.826 30.1C164.893 30.2467 164.926 30.4667 164.926 30.76C164.766 30.6933 164.533 30.6333 164.226 30.58C163.92 30.5267 163.593 30.4867 163.246 30.46C162.9 30.4333 162.593 30.42 162.326 30.42C161.566 30.42 160.96 30.52 160.506 30.72C160.066 30.9067 159.753 31.22 159.566 31.66C159.393 32.1 159.306 32.7067 159.306 33.48C159.306 34.2533 159.393 34.8667 159.566 35.32C159.753 35.7733 160.066 36.0933 160.506 36.28C160.946 36.4667 161.553 36.56 162.326 36.56C162.686 36.56 163.033 36.5467 163.366 36.52C163.7 36.48 164 36.4333 164.266 36.38C164.546 36.3133 164.766 36.2533 164.926 36.2V36.74C164.926 36.98 164.793 37.1667 164.526 37.3C164.26 37.42 163.9 37.5 163.446 37.54C163.006 37.5933 162.486 37.62 161.886 37.62ZM170.572 37.62C169.759 37.62 169.072 37.5667 168.512 37.46C167.966 37.3533 167.526 37.1533 167.192 36.86C166.872 36.5667 166.646 36.16 166.512 35.64C166.379 35.12 166.312 34.4467 166.312 33.62C166.312 32.6333 166.439 31.8333 166.692 31.22C166.946 30.6067 167.392 30.16 168.032 29.88C168.686 29.5867 169.592 29.44 170.752 29.44C171.659 29.44 172.379 29.5533 172.912 29.78C173.459 29.9933 173.852 30.3333 174.092 30.8C174.332 31.2667 174.452 31.86 174.452 32.58V33.86H168.832C168.832 33.6467 168.879 33.4733 168.972 33.34C169.066 33.2067 169.239 33.14 169.492 33.14H172.772L172.752 32.62C172.739 31.8733 172.579 31.3267 172.272 30.98C171.979 30.6333 171.446 30.46 170.672 30.46C170.032 30.46 169.532 30.56 169.172 30.76C168.812 30.96 168.559 31.2867 168.412 31.74C168.266 32.18 168.192 32.7933 168.192 33.58C168.192 34.3933 168.272 35.0133 168.432 35.44C168.606 35.8533 168.886 36.1333 169.272 36.28C169.672 36.4267 170.226 36.5 170.932 36.5C171.186 36.5 171.479 36.4933 171.812 36.48C172.159 36.4667 172.506 36.4467 172.852 36.42C173.212 36.3933 173.532 36.36 173.812 36.32C174.092 36.28 174.279 36.24 174.372 36.2V36.48C174.372 36.6267 174.339 36.7733 174.272 36.92C174.206 37.0667 174.066 37.1867 173.852 37.28C173.572 37.4133 173.159 37.5 172.612 37.54C172.079 37.5933 171.399 37.62 170.572 37.62Z" fill="#1C274C"/>
<path d="M65.173 59.9489H66.1541C68.9375 59.9489 71.2027 57.7177 71.2027 54.9744C71.2027 52.2315 68.9379 50 66.1541 50H54.9631C54.4311 50 54 50.4251 54 50.9489C54 51.4731 54.4314 51.8979 54.9631 51.8979H66.1544C67.876 51.8979 69.2765 53.2778 69.2765 54.9741C69.2765 56.6703 67.876 58.0503 66.1544 58.0503H65.1734C64.6413 58.0503 64.2102 58.4754 64.2102 58.9992C64.2102 59.5231 64.6413 59.9489 65.173 59.9489Z" fill="#F3B811"/>
<path d="M54.9631 50H66.1541C68.9379 50 71.2027 52.2315 71.2027 54.9744C71.2027 57.7177 68.9375 59.9489 66.1541 59.9489H65.173C64.641 59.9489 64.21 59.5238 64.21 58.9999C64.21 58.4761 64.6415 58.051 65.1731 58.051H66.1542C67.8758 58.051 69.2763 56.671 69.2763 54.9748C69.2763 53.2785 67.8758 51.8986 66.1542 51.8986H54.9632C54.4312 51.8986 54.0001 51.4735 54.0001 50.9496C53.9998 50.4251 54.4311 50 54.9631 50Z" fill="#F3B811"/>
<path d="M59.8455 68H71.0368C71.5688 68 71.9999 67.5749 71.9999 67.0511C71.9999 66.5272 71.5685 66.1021 71.0368 66.1021H59.8455C58.1239 66.1021 56.7234 64.7222 56.7234 63.0259C56.7234 61.3297 58.1239 59.9497 59.8455 59.9497H60.8266C61.3586 59.9497 61.7897 59.5246 61.7897 59.0008C61.7897 58.4769 61.3582 58.0518 60.8266 58.0518H59.8455C57.062 58.0518 54.7968 60.283 54.7968 63.0263C54.7968 65.7688 57.0617 68 59.8455 68Z" fill="#F3B811"/>
<path d="M59.8455 58.0511H60.8266C61.3586 58.0511 61.7897 58.4762 61.7897 59C61.7897 59.5238 61.3582 59.9489 60.8266 59.9489H59.8455C58.1239 59.9489 56.7234 61.3289 56.7234 63.0251C56.7234 64.7211 58.1239 66.1013 59.8455 66.1013H71.0368C71.5688 66.1013 71.9999 66.5264 71.9999 67.0503C71.9999 67.5741 71.5685 67.9992 71.0368 67.9992H59.8455C57.062 67.9992 54.7968 65.7681 54.7968 63.0248C54.7968 60.2822 57.0617 58.0511 59.8455 58.0511Z" fill="#F3B811"/>
<path d="M63.5351 62.8618C63.7676 62.8618 64.0011 62.7793 64.186 62.612C64.5781 62.2579 64.6045 61.6575 64.2451 61.2712L58.823 55.4462C58.4636 55.0592 57.8542 55.0332 57.4622 55.3883C57.0698 55.7424 57.0437 56.3428 57.4031 56.7291L62.8252 62.5541C63.0151 62.7585 63.2746 62.8618 63.5351 62.8618Z" fill="#F3B811"/>
<path d="M67.8819 62.8616C68.1144 62.8616 68.3478 62.7792 68.5328 62.6118C68.9252 62.2577 68.9512 61.6573 68.5919 61.271L63.1698 55.446C62.81 55.059 62.201 55.0331 61.809 55.3882C61.4165 55.7423 61.3905 56.3427 61.7499 56.729L67.172 62.554C67.3619 62.7584 67.6214 62.8616 67.8819 62.8616Z" fill="#F3B811"/>
<path d="M78.1959 63.028C78.5639 63.1047 79.1082 63.1737 79.8289 63.235C80.5495 63.2963 81.3392 63.327 82.1979 63.327C83.1179 63.327 83.8155 63.2733 84.2909 63.166C84.7662 63.0587 85.0959 62.867 85.2799 62.591C85.4792 62.2997 85.6095 61.901 85.6709 61.395C85.6862 61.257 85.6939 61.1037 85.6939 60.935C85.7092 60.751 85.7169 60.5823 85.7169 60.429C85.7322 60.2757 85.7399 60.1607 85.7399 60.084C85.5559 60.1147 85.3412 60.153 85.0959 60.199C84.8659 60.2297 84.6129 60.2603 84.3369 60.291C83.9229 60.3677 83.4782 60.429 83.0029 60.475C82.5275 60.521 81.9909 60.544 81.3929 60.544C80.1662 60.544 79.2539 60.3293 78.6559 59.9C78.0732 59.4553 77.7819 58.635 77.7819 57.439C77.7819 56.4423 77.9352 55.691 78.2419 55.185C78.5639 54.6637 79.0929 54.311 79.8289 54.127C80.5649 53.9277 81.5539 53.828 82.7959 53.828C83.9152 53.828 84.7969 53.897 85.4409 54.035C86.0849 54.1577 86.5602 54.403 86.8669 54.771C87.1889 55.139 87.3882 55.668 87.4649 56.358C87.5569 57.0327 87.6029 57.9067 87.6029 58.98C87.6029 59.992 87.5569 60.8353 87.4649 61.51C87.3882 62.1847 87.2502 62.7213 87.0509 63.12C86.8669 63.5033 86.5985 63.7947 86.2459 63.994C85.9085 64.178 85.4792 64.316 84.9579 64.408C84.4979 64.4693 84.0072 64.5153 83.4859 64.546C82.9799 64.5767 82.4739 64.592 81.9679 64.592C81.4159 64.592 80.8945 64.5767 80.4039 64.546C79.9132 64.5307 79.4992 64.5 79.1619 64.454C78.8092 64.4233 78.5485 64.3313 78.3799 64.178C78.2112 64.0247 78.1345 63.7947 78.1499 63.488L78.1959 63.028ZM85.7169 59.026C85.7169 58.6427 85.7169 58.2747 85.7169 57.922C85.7169 57.554 85.7092 57.2243 85.6939 56.933C85.6479 56.427 85.5252 56.0437 85.3259 55.783C85.1265 55.507 84.8122 55.3153 84.3829 55.208C83.9689 55.1007 83.4092 55.047 82.7039 55.047C81.9985 55.047 81.4159 55.116 80.9559 55.254C80.5112 55.3767 80.1815 55.5913 79.9669 55.898C79.7522 56.1893 79.6449 56.6263 79.6449 57.209C79.6449 57.761 79.7215 58.1827 79.8749 58.474C80.0282 58.7653 80.2812 58.9723 80.6339 59.095C81.0019 59.2023 81.5002 59.256 82.1289 59.256C82.6349 59.256 83.1332 59.2483 83.6239 59.233C84.1299 59.2023 84.5745 59.164 84.9579 59.118C85.3412 59.072 85.5942 59.0413 85.7169 59.026ZM89.6734 63.028C90.0414 63.1047 90.5858 63.1737 91.3064 63.235C92.0271 63.2963 92.8168 63.327 93.6754 63.327C94.5954 63.327 95.2931 63.2733 95.7684 63.166C96.2438 63.0587 96.5734 62.867 96.7574 62.591C96.9568 62.2997 97.0871 61.901 97.1484 61.395C97.1638 61.257 97.1714 61.1037 97.1714 60.935C97.1868 60.751 97.1944 60.5823 97.1944 60.429C97.2098 60.2757 97.2174 60.1607 97.2174 60.084C97.0334 60.1147 96.8188 60.153 96.5734 60.199C96.3434 60.2297 96.0904 60.2603 95.8144 60.291C95.4004 60.3677 94.9558 60.429 94.4804 60.475C94.0051 60.521 93.4684 60.544 92.8704 60.544C91.6438 60.544 90.7314 60.3293 90.1334 59.9C89.5508 59.4553 89.2594 58.635 89.2594 57.439C89.2594 56.4423 89.4128 55.691 89.7194 55.185C90.0414 54.6637 90.5704 54.311 91.3064 54.127C92.0424 53.9277 93.0314 53.828 94.2734 53.828C95.3928 53.828 96.2744 53.897 96.9184 54.035C97.5624 54.1577 98.0378 54.403 98.3444 54.771C98.6664 55.139 98.8658 55.668 98.9424 56.358C99.0344 57.0327 99.0804 57.9067 99.0804 58.98C99.0804 59.992 99.0344 60.8353 98.9424 61.51C98.8658 62.1847 98.7278 62.7213 98.5284 63.12C98.3444 63.5033 98.0761 63.7947 97.7234 63.994C97.3861 64.178 96.9568 64.316 96.4354 64.408C95.9754 64.4693 95.4848 64.5153 94.9634 64.546C94.4574 64.5767 93.9514 64.592 93.4454 64.592C92.8934 64.592 92.3721 64.5767 91.8814 64.546C91.3908 64.5307 90.9768 64.5 90.6394 64.454C90.2868 64.4233 90.0261 64.3313 89.8574 64.178C89.6888 64.0247 89.6121 63.7947 89.6274 63.488L89.6734 63.028ZM97.1944 59.026C97.1944 58.6427 97.1944 58.2747 97.1944 57.922C97.1944 57.554 97.1868 57.2243 97.1714 56.933C97.1254 56.427 97.0028 56.0437 96.8034 55.783C96.6041 55.507 96.2898 55.3153 95.8604 55.208C95.4464 55.1007 94.8868 55.047 94.1814 55.047C93.4761 55.047 92.8934 55.116 92.4334 55.254C91.9888 55.3767 91.6591 55.5913 91.4444 55.898C91.2298 56.1893 91.1224 56.6263 91.1224 57.209C91.1224 57.761 91.1991 58.1827 91.3524 58.474C91.5058 58.7653 91.7588 58.9723 92.1114 59.095C92.4794 59.2023 92.9778 59.256 93.6064 59.256C94.1124 59.256 94.6108 59.2483 95.1014 59.233C95.6074 59.2023 96.0521 59.164 96.4354 59.118C96.8188 59.072 97.0718 59.0413 97.1944 59.026ZM101.151 63.028C101.519 63.1047 102.063 63.1737 102.784 63.235C103.505 63.2963 104.294 63.327 105.153 63.327C106.073 63.327 106.771 63.2733 107.246 63.166C107.721 63.0587 108.051 62.867 108.235 62.591C108.434 62.2997 108.565 61.901 108.626 61.395C108.641 61.257 108.649 61.1037 108.649 60.935C108.664 60.751 108.672 60.5823 108.672 60.429C108.687 60.2757 108.695 60.1607 108.695 60.084C108.511 60.1147 108.296 60.153 108.051 60.199C107.821 60.2297 107.568 60.2603 107.292 60.291C106.878 60.3677 106.433 60.429 105.958 60.475C105.483 60.521 104.946 60.544 104.348 60.544C103.121 60.544 102.209 60.3293 101.611 59.9C101.028 59.4553 100.737 58.635 100.737 57.439C100.737 56.4423 100.89 55.691 101.197 55.185C101.519 54.6637 102.048 54.311 102.784 54.127C103.52 53.9277 104.509 53.828 105.751 53.828C106.87 53.828 107.752 53.897 108.396 54.035C109.04 54.1577 109.515 54.403 109.822 54.771C110.144 55.139 110.343 55.668 110.42 56.358C110.512 57.0327 110.558 57.9067 110.558 58.98C110.558 59.992 110.512 60.8353 110.42 61.51C110.343 62.1847 110.205 62.7213 110.006 63.12C109.822 63.5033 109.554 63.7947 109.201 63.994C108.864 64.178 108.434 64.316 107.913 64.408C107.453 64.4693 106.962 64.5153 106.441 64.546C105.935 64.5767 105.429 64.592 104.923 64.592C104.371 64.592 103.85 64.5767 103.359 64.546C102.868 64.5307 102.454 64.5 102.117 64.454C101.764 64.4233 101.504 64.3313 101.335 64.178C101.166 64.0247 101.09 63.7947 101.105 63.488L101.151 63.028ZM108.672 59.026C108.672 58.6427 108.672 58.2747 108.672 57.922C108.672 57.554 108.664 57.2243 108.649 56.933C108.603 56.427 108.48 56.0437 108.281 55.783C108.082 55.507 107.767 55.3153 107.338 55.208C106.924 55.1007 106.364 55.047 105.659 55.047C104.954 55.047 104.371 55.116 103.911 55.254C103.466 55.3767 103.137 55.5913 102.922 55.898C102.707 56.1893 102.6 56.6263 102.6 57.209C102.6 57.761 102.677 58.1827 102.83 58.474C102.983 58.7653 103.236 58.9723 103.589 59.095C103.957 59.2023 104.455 59.256 105.084 59.256C105.59 59.256 106.088 59.2483 106.579 59.233C107.085 59.2023 107.53 59.164 107.913 59.118C108.296 59.072 108.549 59.0413 108.672 59.026ZM113.111 63.741C113.111 63.3883 113.226 63.1737 113.456 63.097C113.686 63.005 113.962 62.959 114.284 62.959C114.606 62.959 114.867 63.005 115.066 63.097C115.281 63.1737 115.388 63.3883 115.388 63.741C115.388 63.9863 115.335 64.1703 115.227 64.293C115.135 64.4003 115.005 64.4693 114.836 64.5C114.668 64.5307 114.476 64.546 114.261 64.546C114.047 64.546 113.855 64.5307 113.686 64.5C113.518 64.4693 113.38 64.4003 113.272 64.293C113.165 64.1703 113.111 63.9863 113.111 63.741ZM117.682 63.028C118.05 63.1047 118.595 63.1737 119.315 63.235C120.036 63.2963 120.826 63.327 121.684 63.327C122.604 63.327 123.302 63.2733 123.777 63.166C124.253 63.0587 124.582 62.867 124.766 62.591C124.966 62.2997 125.096 61.901 125.157 61.395C125.173 61.257 125.18 61.1037 125.18 60.935C125.196 60.751 125.203 60.5823 125.203 60.429C125.219 60.2757 125.226 60.1607 125.226 60.084C125.042 60.1147 124.828 60.153 124.582 60.199C124.352 60.2297 124.099 60.2603 123.823 60.291C123.409 60.3677 122.965 60.429 122.489 60.475C122.014 60.521 121.477 60.544 120.879 60.544C119.653 60.544 118.74 60.3293 118.142 59.9C117.56 59.4553 117.268 58.635 117.268 57.439C117.268 56.4423 117.422 55.691 117.728 55.185C118.05 54.6637 118.579 54.311 119.315 54.127C120.051 53.9277 121.04 53.828 122.282 53.828C123.402 53.828 124.283 53.897 124.927 54.035C125.571 54.1577 126.047 54.403 126.353 54.771C126.675 55.139 126.875 55.668 126.951 56.358C127.043 57.0327 127.089 57.9067 127.089 58.98C127.089 59.992 127.043 60.8353 126.951 61.51C126.875 62.1847 126.737 62.7213 126.537 63.12C126.353 63.5033 126.085 63.7947 125.732 63.994C125.395 64.178 124.966 64.316 124.444 64.408C123.984 64.4693 123.494 64.5153 122.972 64.546C122.466 64.5767 121.96 64.592 121.454 64.592C120.902 64.592 120.381 64.5767 119.89 64.546C119.4 64.5307 118.986 64.5 118.648 64.454C118.296 64.4233 118.035 64.3313 117.866 64.178C117.698 64.0247 117.621 63.7947 117.636 63.488L117.682 63.028ZM125.203 59.026C125.203 58.6427 125.203 58.2747 125.203 57.922C125.203 57.554 125.196 57.2243 125.18 56.933C125.134 56.427 125.012 56.0437 124.812 55.783C124.613 55.507 124.299 55.3153 123.869 55.208C123.455 55.1007 122.896 55.047 122.19 55.047C121.485 55.047 120.902 55.116 120.442 55.254C119.998 55.3767 119.668 55.5913 119.453 55.898C119.239 56.1893 119.131 56.6263 119.131 57.209C119.131 57.761 119.208 58.1827 119.361 58.474C119.515 58.7653 119.768 58.9723 120.12 59.095C120.488 59.2023 120.987 59.256 121.615 59.256C122.121 59.256 122.62 59.2483 123.11 59.233C123.616 59.2023 124.061 59.164 124.444 59.118C124.828 59.072 125.081 59.0413 125.203 59.026ZM129.16 63.028C129.528 63.1047 130.072 63.1737 130.793 63.235C131.513 63.2963 132.303 63.327 133.162 63.327C134.082 63.327 134.779 63.2733 135.255 63.166C135.73 63.0587 136.06 62.867 136.244 62.591C136.443 62.2997 136.573 61.901 136.635 61.395C136.65 61.257 136.658 61.1037 136.658 60.935C136.673 60.751 136.681 60.5823 136.681 60.429C136.696 60.2757 136.704 60.1607 136.704 60.084C136.52 60.1147 136.305 60.153 136.06 60.199C135.83 60.2297 135.577 60.2603 135.301 60.291C134.887 60.3677 134.442 60.429 133.967 60.475C133.491 60.521 132.955 60.544 132.357 60.544C131.13 60.544 130.218 60.3293 129.62 59.9C129.037 59.4553 128.746 58.635 128.746 57.439C128.746 56.4423 128.899 55.691 129.206 55.185C129.528 54.6637 130.057 54.311 130.793 54.127C131.529 53.9277 132.518 53.828 133.76 53.828C134.879 53.828 135.761 53.897 136.405 54.035C137.049 54.1577 137.524 54.403 137.831 54.771C138.153 55.139 138.352 55.668 138.429 56.358C138.521 57.0327 138.567 57.9067 138.567 58.98C138.567 59.992 138.521 60.8353 138.429 61.51C138.352 62.1847 138.214 62.7213 138.015 63.12C137.831 63.5033 137.562 63.7947 137.21 63.994C136.872 64.178 136.443 64.316 135.922 64.408C135.462 64.4693 134.971 64.5153 134.45 64.546C133.944 64.5767 133.438 64.592 132.932 64.592C132.38 64.592 131.858 64.5767 131.368 64.546C130.877 64.5307 130.463 64.5 130.126 64.454C129.773 64.4233 129.512 64.3313 129.344 64.178C129.175 64.0247 129.098 63.7947 129.114 63.488L129.16 63.028ZM136.681 59.026C136.681 58.6427 136.681 58.2747 136.681 57.922C136.681 57.554 136.673 57.2243 136.658 56.933C136.612 56.427 136.489 56.0437 136.29 55.783C136.09 55.507 135.776 55.3153 135.347 55.208C134.933 55.1007 134.373 55.047 133.668 55.047C132.962 55.047 132.38 55.116 131.92 55.254C131.475 55.3767 131.145 55.5913 130.931 55.898C130.716 56.1893 130.609 56.6263 130.609 57.209C130.609 57.761 130.685 58.1827 130.839 58.474C130.992 58.7653 131.245 58.9723 131.598 59.095C131.966 59.2023 132.464 59.256 133.093 59.256C133.599 59.256 134.097 59.2483 134.588 59.233C135.094 59.2023 135.538 59.164 135.922 59.118C136.305 59.072 136.558 59.0413 136.681 59.026ZM140.637 63.028C141.005 63.1047 141.55 63.1737 142.27 63.235C142.991 63.2963 143.781 63.327 144.639 63.327C145.559 63.327 146.257 63.2733 146.732 63.166C147.208 63.0587 147.537 62.867 147.721 62.591C147.921 62.2997 148.051 61.901 148.112 61.395C148.128 61.257 148.135 61.1037 148.135 60.935C148.151 60.751 148.158 60.5823 148.158 60.429C148.174 60.2757 148.181 60.1607 148.181 60.084C147.997 60.1147 147.783 60.153 147.537 60.199C147.307 60.2297 147.054 60.2603 146.778 60.291C146.364 60.3677 145.92 60.429 145.444 60.475C144.969 60.521 144.432 60.544 143.834 60.544C142.608 60.544 141.695 60.3293 141.097 59.9C140.515 59.4553 140.223 58.635 140.223 57.439C140.223 56.4423 140.377 55.691 140.683 55.185C141.005 54.6637 141.534 54.311 142.27 54.127C143.006 53.9277 143.995 53.828 145.237 53.828C146.357 53.828 147.238 53.897 147.882 54.035C148.526 54.1577 149.002 54.403 149.308 54.771C149.63 55.139 149.83 55.668 149.906 56.358C149.998 57.0327 150.044 57.9067 150.044 58.98C150.044 59.992 149.998 60.8353 149.906 61.51C149.83 62.1847 149.692 62.7213 149.492 63.12C149.308 63.5033 149.04 63.7947 148.687 63.994C148.35 64.178 147.921 64.316 147.399 64.408C146.939 64.4693 146.449 64.5153 145.927 64.546C145.421 64.5767 144.915 64.592 144.409 64.592C143.857 64.592 143.336 64.5767 142.845 64.546C142.355 64.5307 141.941 64.5 141.603 64.454C141.251 64.4233 140.99 64.3313 140.821 64.178C140.653 64.0247 140.576 63.7947 140.591 63.488L140.637 63.028ZM148.158 59.026C148.158 58.6427 148.158 58.2747 148.158 57.922C148.158 57.554 148.151 57.2243 148.135 56.933C148.089 56.427 147.967 56.0437 147.767 55.783C147.568 55.507 147.254 55.3153 146.824 55.208C146.41 55.1007 145.851 55.047 145.145 55.047C144.44 55.047 143.857 55.116 143.397 55.254C142.953 55.3767 142.623 55.5913 142.408 55.898C142.194 56.1893 142.086 56.6263 142.086 57.209C142.086 57.761 142.163 58.1827 142.316 58.474C142.47 58.7653 142.723 58.9723 143.075 59.095C143.443 59.2023 143.942 59.256 144.57 59.256C145.076 59.256 145.575 59.2483 146.065 59.233C146.571 59.2023 147.016 59.164 147.399 59.118C147.783 59.072 148.036 59.0413 148.158 59.026ZM152.598 63.741C152.598 63.3883 152.713 63.1737 152.943 63.097C153.173 63.005 153.449 62.959 153.771 62.959C154.093 62.959 154.353 63.005 154.553 63.097C154.767 63.1737 154.875 63.3883 154.875 63.741C154.875 63.9863 154.821 64.1703 154.714 64.293C154.622 64.4003 154.491 64.4693 154.323 64.5C154.154 64.5307 153.962 64.546 153.748 64.546C153.533 64.546 153.341 64.5307 153.173 64.5C153.004 64.4693 152.866 64.4003 152.759 64.293C152.651 64.1703 152.598 63.9863 152.598 63.741ZM161.746 64.661C161.025 64.661 160.366 64.5997 159.768 64.477C159.17 64.3543 158.648 64.1167 158.204 63.764C157.759 63.396 157.414 62.844 157.169 62.108C156.939 61.372 156.824 60.3983 156.824 59.187C156.824 57.945 156.954 56.956 157.215 56.22C157.491 55.484 157.874 54.9397 158.365 54.587C158.855 54.219 159.415 53.9813 160.044 53.874C160.688 53.7667 161.362 53.713 162.068 53.713C162.788 53.713 163.448 53.7743 164.046 53.897C164.659 54.0197 165.188 54.265 165.633 54.633C166.077 54.9857 166.415 55.53 166.645 56.266C166.89 57.002 167.013 57.9757 167.013 59.187C167.013 60.429 166.875 61.418 166.599 62.154C166.323 62.89 165.939 63.442 165.449 63.81C164.973 64.1627 164.414 64.3927 163.77 64.5C163.141 64.6073 162.466 64.661 161.746 64.661ZM161.907 63.557C162.351 63.557 162.742 63.511 163.08 63.419C163.432 63.3117 163.724 63.1123 163.954 62.821C164.199 62.5143 164.383 62.0697 164.506 61.487C164.644 60.9043 164.713 60.1377 164.713 59.187C164.713 58.2363 164.644 57.4697 164.506 56.887C164.383 56.3043 164.199 55.8673 163.954 55.576C163.724 55.2693 163.432 55.07 163.08 54.978C162.742 54.8707 162.351 54.817 161.907 54.817C161.477 54.817 161.094 54.8707 160.757 54.978C160.419 55.07 160.128 55.2693 159.883 55.576C159.653 55.8673 159.469 56.3043 159.331 56.887C159.208 57.4697 159.147 58.2363 159.147 59.187C159.147 60.153 159.208 60.9273 159.331 61.51C159.469 62.0773 159.653 62.5143 159.883 62.821C160.113 63.1123 160.396 63.3117 160.734 63.419C161.086 63.511 161.477 63.557 161.907 63.557ZM173.627 64.661C172.907 64.661 172.247 64.5997 171.649 64.477C171.051 64.3543 170.53 64.1167 170.085 63.764C169.641 63.396 169.296 62.844 169.05 62.108C168.82 61.372 168.705 60.3983 168.705 59.187C168.705 57.945 168.836 56.956 169.096 56.22C169.372 55.484 169.756 54.9397 170.246 54.587C170.737 54.219 171.297 53.9813 171.925 53.874C172.569 53.7667 173.244 53.713 173.949 53.713C174.67 53.713 175.329 53.7743 175.927 53.897C176.541 54.0197 177.07 54.265 177.514 54.633C177.959 54.9857 178.296 55.53 178.526 56.266C178.772 57.002 178.894 57.9757 178.894 59.187C178.894 60.429 178.756 61.418 178.48 62.154C178.204 62.89 177.821 63.442 177.33 63.81C176.855 64.1627 176.295 64.3927 175.651 64.5C175.023 64.6073 174.348 64.661 173.627 64.661ZM173.788 63.557C174.233 63.557 174.624 63.511 174.961 63.419C175.314 63.3117 175.605 63.1123 175.835 62.821C176.081 62.5143 176.265 62.0697 176.387 61.487C176.525 60.9043 176.594 60.1377 176.594 59.187C176.594 58.2363 176.525 57.4697 176.387 56.887C176.265 56.3043 176.081 55.8673 175.835 55.576C175.605 55.2693 175.314 55.07 174.961 54.978C174.624 54.8707 174.233 54.817 173.788 54.817C173.359 54.817 172.976 54.8707 172.638 54.978C172.301 55.07 172.01 55.2693 171.764 55.576C171.534 55.8673 171.35 56.3043 171.212 56.887C171.09 57.4697 171.028 58.2363 171.028 59.187C171.028 60.153 171.09 60.9273 171.212 61.51C171.35 62.0773 171.534 62.5143 171.764 62.821C171.994 63.1123 172.278 63.3117 172.615 63.419C172.968 63.511 173.359 63.557 173.788 63.557Z" fill="#333333"/>
</g>
<defs>
<filter id="filter0_d_329_498" x="0" y="-14" width="235" height="149" filterUnits="userSpaceOnUse" color-interpolation-filters="sRGB">
<feFlood flood-opacity="0" result="BackgroundImageFix"/>
<feColorMatrix in="SourceAlpha" type="matrix" values="0 0 0 0 0 0 0 0 0 0 0 0 0 0 0 0 0 0 127 0" result="hardAlpha"/>
<feOffset dy="14"/>
<feGaussianBlur stdDeviation="21"/>
<feColorMatrix type="matrix" values="0 0 0 0 0.0323264 0 0 0 0 0.0598209 0 0 0 0 0.204167 0 0 0 0.06 0"/>
<feBlend mode="normal" in2="BackgroundImageFix" result="effect1_dropShadow_329_498"/>
<feBlend mode="normal" in="SourceGraphic" in2="effect1_dropShadow_329_498" result="shape"/>
</filter>
<linearGradient id="paint0_linear_329_498" x1="61.3154" y1="35.3401" x2="66.5864" y2="26.2106" gradientUnits="userSpaceOnUse">
<stop stop-color="#34344F"/>
<stop offset="0.54" stop-color="#353551"/>
<stop offset="1" stop-color="#666684"/>
</linearGradient>
<linearGradient id="paint1_linear_329_498" x1="70.2876" y1="39.4633" x2="59.7139" y2="28.8895" gradientUnits="userSpaceOnUse">
<stop stop-color="#1EB4EB"/>
<stop offset="0.54" stop-color="#1EB4EB"/>
<stop offset="1" stop-color="#92F4FE"/>
</linearGradient>
<linearGradient id="paint2_linear_329_498" x1="70.478" y1="35.0551" x2="69.0454" y2="33.6225" gradientUnits="userSpaceOnUse">
<stop stop-color="#BCE4ED"/>
<stop offset="0.57" stop-color="white"/>
<stop offset="1" stop-color="white"/>
</linearGradient>
<clipPath id="clip0_329_498">
<rect width="22" height="22" fill="white" transform="translate(54 22)"/>
</clipPath>
</defs>
</svg>
