<svg width="282" height="188" viewBox="0 0 282 188" fill="none" xmlns="http://www.w3.org/2000/svg">
<g clip-path="url(#clip0_7_15552)">
<path d="M282 0H0V188H282V0Z" fill="white"/>
<mask id="mask0_7_15552" style="mask-type:luminance" maskUnits="userSpaceOnUse" x="0" y="0" width="140" height="188">
<path d="M139.768 188L20.4043 0H0V188H139.768Z" fill="white"/>
</mask>
<g mask="url(#mask0_7_15552)">
<path d="M139.768 0H0V188H139.768V0Z" fill="url(#paint0_linear_7_15552)"/>
</g>
<mask id="mask1_7_15552" style="mask-type:luminance" maskUnits="userSpaceOnUse" x="20" y="0" width="161" height="188">
<path d="M20.4043 0L139.768 188H180.688L113.611 86.46L75.0949 28.1549L56.4959 0H20.4043Z" fill="white"/>
</mask>
<g mask="url(#mask1_7_15552)">
<path d="M180.688 0H20.4043V188H180.688V0Z" fill="url(#paint1_linear_7_15552)"/>
</g>
<mask id="mask2_7_15552" style="mask-type:luminance" maskUnits="userSpaceOnUse" x="113" y="37" width="160" height="151">
<path d="M113.611 86.4599L180.688 188H272.466L169.131 37.6328L113.611 86.4599Z" fill="white"/>
</mask>
<g mask="url(#mask2_7_15552)">
<path d="M272.466 37.6328H113.611V188H272.466V37.6328Z" fill="url(#paint2_linear_7_15552)"/>
</g>
<mask id="mask3_7_15552" style="mask-type:luminance" maskUnits="userSpaceOnUse" x="75" y="0" width="95" height="87">
<path d="M113.611 86.4599L169.131 37.6329L143.268 0H110.601L75.095 28.1549L113.611 86.4599Z" fill="white"/>
</mask>
<g mask="url(#mask3_7_15552)">
<path d="M169.131 0H75.095V86.4599H169.131V0Z" fill="url(#paint3_linear_7_15552)"/>
</g>
<mask id="mask4_7_15552" style="mask-type:luminance" maskUnits="userSpaceOnUse" x="56" y="0" width="55" height="29">
<path d="M75.0949 28.1549L110.601 0H56.496L75.0949 28.1549Z" fill="white"/>
</mask>
<g mask="url(#mask4_7_15552)">
<path d="M110.601 0H56.496V28.1549H110.601V0Z" fill="url(#paint4_linear_7_15552)"/>
</g>
<mask id="mask5_7_15552" style="mask-type:luminance" maskUnits="userSpaceOnUse" x="143" y="0" width="69" height="38">
<path d="M143.268 0L169.13 37.6329L211.921 0H143.268Z" fill="white"/>
</mask>
<g mask="url(#mask5_7_15552)">
<path d="M211.921 0H143.268V37.6329H211.921V0Z" fill="url(#paint5_linear_7_15552)"/>
</g>
<mask id="mask6_7_15552" style="mask-type:luminance" maskUnits="userSpaceOnUse" x="169" y="0" width="114" height="188">
<path d="M211.922 0L169.131 37.6329L272.466 188H282V0H211.922Z" fill="white"/>
</mask>
<g mask="url(#mask6_7_15552)">
<path d="M282 0H169.131V188H282V0Z" fill="url(#paint6_linear_7_15552)"/>
</g>
</g>
<rect y="0.000488281" width="282" height="188" rx="8" fill="black" fill-opacity="0.35"/>
<rect x="176" y="7.00049" width="100" height="21" rx="10.5" fill="#1BC469"/>
<path d="M190.594 18.4705C190.594 18.8998 190.543 19.2498 190.44 19.5205C190.347 19.7912 190.183 20.0058 189.95 20.1645C189.726 20.3232 189.423 20.4352 189.04 20.5005C188.667 20.5565 188.195 20.5845 187.626 20.5845C186.973 20.5845 186.403 20.5612 185.918 20.5145C185.442 20.4678 185.111 20.4118 184.924 20.3465C184.803 20.3092 184.709 20.2718 184.644 20.2345C184.588 20.1878 184.551 20.1225 184.532 20.0385C184.513 19.9452 184.509 19.8145 184.518 19.6465V19.3805C184.91 19.4925 185.353 19.5858 185.848 19.6605C186.343 19.7258 186.861 19.7585 187.402 19.7585C187.813 19.7585 188.167 19.7258 188.466 19.6605C188.765 19.5858 188.993 19.4552 189.152 19.2685C189.311 19.0725 189.39 18.7925 189.39 18.4285C189.39 18.1112 189.348 17.8685 189.264 17.7005C189.189 17.5325 189.045 17.4158 188.83 17.3505C188.625 17.2758 188.326 17.2385 187.934 17.2385C187.654 17.2292 187.36 17.2245 187.052 17.2245C186.744 17.2245 186.436 17.2338 186.128 17.2525C185.829 17.2712 185.559 17.2945 185.316 17.3225C185.073 17.3412 184.882 17.3598 184.742 17.3785V14.0605H190.468V14.8445H185.904V16.5105C186.091 16.5012 186.305 16.4965 186.548 16.4965C186.791 16.4872 187.038 16.4825 187.29 16.4825C187.542 16.4732 187.785 16.4732 188.018 16.4825C188.261 16.4825 188.466 16.4872 188.634 16.4965C189.175 16.5245 189.586 16.6085 189.866 16.7485C190.155 16.8885 190.347 17.0985 190.44 17.3785C190.543 17.6492 190.594 18.0132 190.594 18.4705ZM197.199 14.0605L194.553 20.6125H193.629L196.275 14.0605H197.199ZM199.033 19.0585C199.033 19.5065 198.972 19.8332 198.851 20.0385C198.73 20.2345 198.562 20.3605 198.347 20.4165C198.142 20.4725 197.899 20.5005 197.619 20.5005C197.348 20.5005 197.11 20.4725 196.905 20.4165C196.7 20.3512 196.541 20.2158 196.429 20.0105C196.317 19.8052 196.261 19.4878 196.261 19.0585C196.261 18.6198 196.326 18.2978 196.457 18.0925C196.588 17.8872 196.76 17.7565 196.975 17.7005C197.199 17.6352 197.442 17.6025 197.703 17.6025C197.983 17.6025 198.221 17.6352 198.417 17.7005C198.622 17.7658 198.776 17.9058 198.879 18.1205C198.982 18.3258 199.033 18.6385 199.033 19.0585ZM198.305 19.0585C198.305 18.7225 198.277 18.4752 198.221 18.3165C198.174 18.1578 198.104 18.0552 198.011 18.0085C197.918 17.9525 197.796 17.9245 197.647 17.9245C197.507 17.9245 197.39 17.9525 197.297 18.0085C197.204 18.0552 197.129 18.1578 197.073 18.3165C197.026 18.4752 197.003 18.7225 197.003 19.0585C197.003 19.3852 197.026 19.6278 197.073 19.7865C197.12 19.9452 197.19 20.0525 197.283 20.1085C197.386 20.1552 197.507 20.1785 197.647 20.1785C197.796 20.1785 197.918 20.1552 198.011 20.1085C198.104 20.0525 198.174 19.9452 198.221 19.7865C198.277 19.6278 198.305 19.3852 198.305 19.0585ZM194.637 15.5165C194.637 15.9645 194.576 16.2912 194.455 16.4965C194.334 16.7018 194.166 16.8325 193.951 16.8885C193.746 16.9352 193.503 16.9585 193.223 16.9585C192.952 16.9585 192.714 16.9305 192.509 16.8745C192.304 16.8092 192.145 16.6785 192.033 16.4825C191.921 16.2772 191.865 15.9552 191.865 15.5165C191.865 15.0778 191.926 14.7605 192.047 14.5645C192.178 14.3592 192.35 14.2238 192.565 14.1585C192.789 14.0932 193.036 14.0605 193.307 14.0605C193.578 14.0605 193.811 14.0978 194.007 14.1725C194.212 14.2378 194.366 14.3732 194.469 14.5785C194.581 14.7838 194.637 15.0965 194.637 15.5165ZM193.909 15.5165C193.909 15.1805 193.881 14.9378 193.825 14.7885C193.778 14.6298 193.708 14.5272 193.615 14.4805C193.522 14.4245 193.4 14.3965 193.251 14.3965C193.111 14.3965 192.99 14.4245 192.887 14.4805C192.794 14.5272 192.724 14.6298 192.677 14.7885C192.63 14.9378 192.607 15.1805 192.607 15.5165C192.607 15.8432 192.63 16.0858 192.677 16.2445C192.724 16.4032 192.794 16.5105 192.887 16.5665C192.98 16.6132 193.102 16.6365 193.251 16.6365C193.4 16.6365 193.522 16.6132 193.615 16.5665C193.708 16.5105 193.778 16.4032 193.825 16.2445C193.881 16.0858 193.909 15.8432 193.909 15.5165ZM204.043 17.2805C204.043 16.6178 204.113 16.0765 204.253 15.6565C204.393 15.2272 204.617 14.8912 204.925 14.6485C205.242 14.4058 205.653 14.2378 206.157 14.1445C206.67 14.0418 207.295 13.9905 208.033 13.9905C208.387 13.9905 208.723 14.0045 209.041 14.0325C209.367 14.0512 209.703 14.0885 210.049 14.1445C210.357 14.1912 210.557 14.2658 210.651 14.3685C210.753 14.4618 210.805 14.5925 210.805 14.7605V15.2225C210.59 15.1292 210.319 15.0545 209.993 14.9985C209.666 14.9332 209.33 14.8865 208.985 14.8585C208.649 14.8212 208.345 14.8025 208.075 14.8025C207.459 14.8025 206.959 14.8725 206.577 15.0125C206.203 15.1525 205.933 15.3998 205.765 15.7545C205.597 16.1092 205.513 16.6178 205.513 17.2805C205.513 17.9432 205.592 18.4565 205.751 18.8205C205.919 19.1752 206.194 19.4225 206.577 19.5625C206.969 19.7025 207.501 19.7725 208.173 19.7725C208.434 19.7725 208.719 19.7585 209.027 19.7305C209.335 19.6932 209.643 19.6465 209.951 19.5905C210.259 19.5345 210.543 19.4692 210.805 19.3945V19.8285C210.805 19.9778 210.753 20.1038 210.651 20.2065C210.557 20.3092 210.347 20.3838 210.021 20.4305C209.685 20.4958 209.349 20.5378 209.013 20.5565C208.677 20.5752 208.336 20.5845 207.991 20.5845C207.235 20.5845 206.6 20.5378 206.087 20.4445C205.583 20.3512 205.181 20.1832 204.883 19.9405C204.584 19.6978 204.369 19.3618 204.239 18.9325C204.108 18.5032 204.043 17.9525 204.043 17.2805ZM211.403 20.5005L213.363 15.0545C213.493 14.7185 213.671 14.4618 213.895 14.2845C214.119 14.0978 214.483 14.0045 214.987 14.0045C215.435 14.0045 215.775 14.0885 216.009 14.2565C216.251 14.4245 216.438 14.6905 216.569 15.0545L218.571 20.5005H217.017L216.415 18.8205H213.097L212.509 20.5005H211.403ZM213.321 18.2185H216.149L215.267 15.6565C215.229 15.5352 215.178 15.4278 215.113 15.3345C215.057 15.2412 214.931 15.1945 214.735 15.1945C214.529 15.1945 214.394 15.2458 214.329 15.3485C214.263 15.4418 214.212 15.5445 214.175 15.6565L213.321 18.2185ZM219.494 19.3525C219.7 19.4738 219.966 19.5672 220.292 19.6325C220.628 19.6885 220.974 19.7258 221.328 19.7445C221.683 19.7538 221.991 19.7585 222.252 19.7585C222.355 19.7585 222.472 19.7585 222.602 19.7585C222.742 19.7492 222.864 19.7445 222.966 19.7445C223.302 19.7352 223.596 19.6978 223.848 19.6325C224.1 19.5578 224.292 19.4365 224.422 19.2685C224.562 19.1005 224.632 18.8625 224.632 18.5545C224.632 18.1718 224.53 17.9245 224.324 17.8125C224.128 17.7005 223.839 17.6445 223.456 17.6445C223.326 17.6445 223.186 17.6445 223.036 17.6445C222.887 17.6445 222.714 17.6445 222.518 17.6445C222.332 17.6445 222.112 17.6445 221.86 17.6445C221.58 17.6445 221.3 17.6305 221.02 17.6025C220.74 17.5745 220.488 17.5138 220.264 17.4205C220.04 17.3178 219.858 17.1592 219.718 16.9445C219.578 16.7205 219.508 16.4078 219.508 16.0065C219.508 15.5398 219.592 15.1712 219.76 14.9005C219.928 14.6298 220.162 14.4338 220.46 14.3125C220.768 14.1818 221.118 14.0978 221.51 14.0605C221.912 14.0232 222.35 14.0045 222.826 14.0045C223.106 14.0045 223.414 14.0092 223.75 14.0185C224.086 14.0278 224.408 14.0512 224.716 14.0885C225.024 14.1165 225.262 14.1678 225.43 14.2425C225.626 14.2612 225.776 14.3218 225.878 14.4245C225.99 14.5178 226.046 14.6392 226.046 14.7885C226.046 14.8165 226.046 14.8632 226.046 14.9285C226.046 14.9938 226.046 15.0545 226.046 15.1105C226.046 15.1665 226.046 15.2085 226.046 15.2365C225.972 15.1432 225.832 15.0732 225.626 15.0265C225.43 14.9705 225.206 14.9285 224.954 14.9005C224.702 14.8725 224.455 14.8538 224.212 14.8445C223.979 14.8258 223.778 14.8165 223.61 14.8165H222.658C222.341 14.8165 222.056 14.8445 221.804 14.9005C221.552 14.9472 221.352 15.0498 221.202 15.2085C221.053 15.3578 220.978 15.5912 220.978 15.9085C220.978 16.1512 221.025 16.3378 221.118 16.4685C221.221 16.5898 221.366 16.6738 221.552 16.7205C221.748 16.7578 221.977 16.7765 222.238 16.7765C222.668 16.7765 223.032 16.7765 223.33 16.7765C223.629 16.7765 223.858 16.7765 224.016 16.7765C224.436 16.7765 224.805 16.8138 225.122 16.8885C225.449 16.9538 225.701 17.1078 225.878 17.3505C226.065 17.5932 226.158 17.9758 226.158 18.4985C226.158 18.9932 226.051 19.3898 225.836 19.6885C225.622 19.9778 225.328 20.1878 224.954 20.3185C224.581 20.4398 224.152 20.5145 223.666 20.5425C223.377 20.5612 223.097 20.5705 222.826 20.5705C222.556 20.5798 222.271 20.5798 221.972 20.5705C221.702 20.5705 221.422 20.5612 221.132 20.5425C220.843 20.5238 220.572 20.4912 220.32 20.4445C220.078 20.3885 219.877 20.3138 219.718 20.2205C219.569 20.1272 219.494 20.0012 219.494 19.8425V19.3525ZM227.843 20.5005V14.5365C227.843 14.3312 227.881 14.2005 227.955 14.1445C228.03 14.0885 228.161 14.0605 228.347 14.0605H229.285V16.7765H233.205V14.0605H234.647V19.9685C234.647 20.1832 234.615 20.3278 234.549 20.4025C234.493 20.4678 234.353 20.5005 234.129 20.5005H233.205V17.5605H229.285V20.5005H227.843ZM240.691 20.5285C239.973 20.5285 239.357 20.5285 238.843 20.5285C238.33 20.5285 237.896 20.5238 237.541 20.5145C237.196 20.5145 236.911 20.5098 236.687 20.5005V14.7045C236.687 14.4338 236.743 14.2612 236.855 14.1865C236.977 14.1118 237.14 14.0698 237.345 14.0605C237.625 14.0605 237.873 14.0605 238.087 14.0605C238.311 14.0512 238.512 14.0465 238.689 14.0465C238.876 14.0372 239.053 14.0325 239.221 14.0325C239.399 14.0325 239.585 14.0325 239.781 14.0325C240.005 14.0325 240.243 14.0372 240.495 14.0465C240.747 14.0465 240.985 14.0512 241.209 14.0605C241.433 14.0605 241.606 14.0652 241.727 14.0745C242.25 14.1118 242.633 14.2565 242.875 14.5085C243.118 14.7605 243.239 15.1338 243.239 15.6285C243.239 15.9925 243.179 16.2865 243.057 16.5105C242.945 16.7252 242.796 16.8792 242.609 16.9725C242.432 17.0565 242.255 17.1078 242.077 17.1265C242.273 17.1265 242.455 17.1452 242.623 17.1825C242.791 17.2198 242.941 17.2945 243.071 17.4065C243.202 17.5092 243.305 17.6678 243.379 17.8825C243.454 18.0878 243.491 18.3632 243.491 18.7085C243.491 19.1285 243.421 19.4645 243.281 19.7165C243.141 19.9592 242.945 20.1412 242.693 20.2625C242.451 20.3745 242.157 20.4492 241.811 20.4865C241.466 20.5145 241.093 20.5285 240.691 20.5285ZM240.271 19.8005C240.505 19.8005 240.724 19.7958 240.929 19.7865C241.144 19.7678 241.335 19.7258 241.503 19.6605C241.671 19.5952 241.802 19.4832 241.895 19.3245C241.998 19.1565 242.049 18.9278 242.049 18.6385C242.049 18.2278 241.956 17.9432 241.769 17.7845C241.592 17.6258 241.237 17.5465 240.705 17.5465H238.591C238.461 17.5465 238.372 17.4905 238.325 17.3785C238.288 17.2572 238.269 17.0798 238.269 16.8465H240.663C240.859 16.8465 241.041 16.8232 241.209 16.7765C241.387 16.7205 241.527 16.6132 241.629 16.4545C241.741 16.2865 241.797 16.0392 241.797 15.7125C241.797 15.4045 241.727 15.1665 241.587 14.9985C241.457 14.8305 241.237 14.7325 240.929 14.7045C240.771 14.6952 240.589 14.6905 240.383 14.6905C240.178 14.6812 239.977 14.6765 239.781 14.6765C239.529 14.6765 239.291 14.6765 239.067 14.6765C238.843 14.6765 238.652 14.6812 238.493 14.6905C238.391 14.6905 238.302 14.7232 238.227 14.7885C238.162 14.8445 238.129 14.9425 238.129 15.0825V19.7865C238.213 19.7865 238.307 19.7912 238.409 19.8005C238.512 19.8005 238.633 19.8005 238.773 19.8005C238.923 19.8005 239.114 19.8005 239.347 19.8005C239.59 19.8005 239.898 19.8005 240.271 19.8005ZM244.407 20.5005L246.367 15.0545C246.497 14.7185 246.675 14.4618 246.899 14.2845C247.123 14.0978 247.487 14.0045 247.991 14.0045C248.439 14.0045 248.779 14.0885 249.013 14.2565C249.255 14.4245 249.442 14.6905 249.573 15.0545L251.575 20.5005H250.021L249.419 18.8205H246.101L245.513 20.5005H244.407ZM246.325 18.2185H249.153L248.271 15.6565C248.233 15.5352 248.182 15.4278 248.117 15.3345C248.061 15.2412 247.935 15.1945 247.739 15.1945C247.533 15.1945 247.398 15.2458 247.333 15.3485C247.267 15.4418 247.216 15.5445 247.179 15.6565L246.325 18.2185ZM252.4 17.2805C252.4 16.6178 252.47 16.0765 252.61 15.6565C252.75 15.2272 252.974 14.8912 253.282 14.6485C253.6 14.4058 254.01 14.2378 254.514 14.1445C255.028 14.0418 255.653 13.9905 256.39 13.9905C256.745 13.9905 257.081 14.0045 257.398 14.0325C257.725 14.0512 258.061 14.0885 258.406 14.1445C258.714 14.1912 258.915 14.2658 259.008 14.3685C259.111 14.4618 259.162 14.5925 259.162 14.7605V15.2225C258.948 15.1292 258.677 15.0545 258.35 14.9985C258.024 14.9332 257.688 14.8865 257.342 14.8585C257.006 14.8212 256.703 14.8025 256.432 14.8025C255.816 14.8025 255.317 14.8725 254.934 15.0125C254.561 15.1525 254.29 15.3998 254.122 15.7545C253.954 16.1092 253.87 16.6178 253.87 17.2805C253.87 17.9432 253.95 18.4565 254.108 18.8205C254.276 19.1752 254.552 19.4225 254.934 19.5625C255.326 19.7025 255.858 19.7725 256.53 19.7725C256.792 19.7725 257.076 19.7585 257.384 19.7305C257.692 19.6932 258 19.6465 258.308 19.5905C258.616 19.5345 258.901 19.4692 259.162 19.3945V19.8285C259.162 19.9778 259.111 20.1038 259.008 20.2065C258.915 20.3092 258.705 20.3838 258.378 20.4305C258.042 20.4958 257.706 20.5378 257.37 20.5565C257.034 20.5752 256.694 20.5845 256.348 20.5845C255.592 20.5845 254.958 20.5378 254.444 20.4445C253.94 20.3512 253.539 20.1832 253.24 19.9405C252.942 19.6978 252.727 19.3618 252.596 18.9325C252.466 18.5032 252.4 17.9525 252.4 17.2805ZM266.2 20.6125C266.013 20.6125 265.841 20.5892 265.682 20.5425C265.533 20.4958 265.388 20.4212 265.248 20.3185C265.183 20.2625 265.089 20.1692 264.968 20.0385C264.847 19.9078 264.707 19.7585 264.548 19.5905C264.389 19.4132 264.226 19.2358 264.058 19.0585C263.899 18.8812 263.755 18.7225 263.624 18.5825C263.493 18.4332 263.391 18.3212 263.316 18.2465C263.213 18.1345 263.125 18.0505 263.05 17.9945C262.975 17.9385 262.859 17.8872 262.7 17.8405L262.07 17.7985V20.5005H260.642V14.5505C260.642 14.4385 260.647 14.3498 260.656 14.2845C260.675 14.2098 260.717 14.1538 260.782 14.1165C260.857 14.0792 260.964 14.0605 261.104 14.0605C261.272 14.0605 261.435 14.0605 261.594 14.0605C261.753 14.0605 261.911 14.0605 262.07 14.0605C262.07 14.1912 262.07 14.3732 262.07 14.6065C262.07 14.8398 262.07 15.0872 262.07 15.3485C262.07 15.6098 262.07 15.8572 262.07 16.0905C262.07 16.3238 262.07 16.5058 262.07 16.6365L262.714 16.5805C262.826 16.5618 262.915 16.5292 262.98 16.4825C263.045 16.4358 263.12 16.3658 263.204 16.2725C263.381 16.0765 263.577 15.8665 263.792 15.6425C264.016 15.4185 264.245 15.1898 264.478 14.9565C264.711 14.7232 264.926 14.5038 265.122 14.2985C265.262 14.1865 265.411 14.1118 265.57 14.0745C265.738 14.0372 265.929 14.0185 266.144 14.0185C266.312 14.0185 266.452 14.0278 266.564 14.0465C266.676 14.0652 266.793 14.0885 266.914 14.1165C266.895 14.1258 266.83 14.1865 266.718 14.2985C266.615 14.4105 266.499 14.5318 266.368 14.6625C266.237 14.7932 266.125 14.9098 266.032 15.0125C265.761 15.2365 265.477 15.4792 265.178 15.7405C264.879 15.9925 264.59 16.2445 264.31 16.4965C264.03 16.7485 263.773 16.9865 263.54 17.2105L263.568 16.8465C263.736 16.9772 263.951 17.1685 264.212 17.4205C264.473 17.6632 264.763 17.9432 265.08 18.2605C265.407 18.5778 265.743 18.9092 266.088 19.2545C266.433 19.5905 266.774 19.9125 267.11 20.2205C267.082 20.2578 267.026 20.3092 266.942 20.3745C266.858 20.4305 266.755 20.4818 266.634 20.5285C266.513 20.5845 266.368 20.6125 266.2 20.6125Z" fill="white"/>
<g clip-path="url(#clip1_7_15552)">
<path d="M193.539 158H102.461C95.59 158 90 152.362 90 145.432V53.5684C90 46.6382 95.59 41 102.461 41H193.539C200.41 41 206 46.6382 206 53.5684V145.432C206 152.362 200.41 158 193.539 158Z" fill="#F3B811"/>
<path d="M206 145.432V53.5684C206 46.6382 200.41 41 193.539 41H148V158H193.539C200.41 158 206 152.362 206 145.432Z" fill="#F3B811"/>
<path d="M175.188 107.498H120.812C115.191 107.498 110.617 102.885 110.617 97.2148V65.2227C110.617 59.5525 115.191 54.9395 120.812 54.9395H175.188C180.809 54.9395 185.383 59.5525 185.383 65.2227V97.2148C185.383 102.885 180.809 107.498 175.188 107.498Z" fill="#FF6378"/>
<path d="M175.188 54.9395H148V107.498H175.188C180.809 107.498 185.383 102.885 185.383 97.2148V65.2227C185.383 59.5525 180.809 54.9395 175.188 54.9395Z" fill="#FF1F3D"/>
<path d="M122.147 138.442C122.141 138.442 122.134 138.442 122.128 138.442C120.59 138.451 118.971 138.457 117.611 138.46V119.038C117.611 117.145 116.09 115.61 114.213 115.61C112.336 115.61 110.815 117.145 110.815 119.038V141.87C110.815 143.54 112.007 144.966 113.639 145.249C113.884 145.291 114.046 145.319 116.575 145.319C117.796 145.319 119.568 145.313 122.166 145.298C124.042 145.287 125.555 143.744 125.545 141.851C125.535 139.964 124.015 138.442 122.147 138.442Z" fill="#FFF5F5"/>
<path d="M181.786 138.461H175.638V133.891H181.082C182.958 133.891 184.48 132.356 184.48 130.463C184.48 128.57 182.958 127.036 181.082 127.036H175.638V122.465H181.786C183.663 122.465 185.184 120.931 185.184 119.038C185.184 117.145 183.663 115.61 181.786 115.61H172.239C170.362 115.61 168.841 117.145 168.841 119.038V141.889C168.841 143.782 170.362 145.317 172.239 145.317H181.786C183.663 145.317 185.184 143.782 185.184 141.889C185.184 139.996 183.663 138.461 181.786 138.461Z" fill="#DFDEF5"/>
<path d="M161.985 115.827C160.203 115.229 158.28 116.202 157.688 117.999L152.972 132.319L148.014 117.914C147.399 116.125 145.462 115.178 143.689 115.8C141.916 116.42 140.978 118.373 141.593 120.162L149.339 142.67C149.342 142.678 149.344 142.685 149.347 142.693C149.9 144.265 151.379 145.317 153.032 145.317H153.058C154.721 145.306 156.198 144.231 156.734 142.643C156.736 142.635 156.739 142.628 156.741 142.62L164.139 120.161C164.73 118.364 163.766 116.423 161.985 115.827Z" fill="#FFF5F5"/>
<path d="M161.984 115.826C160.202 115.229 158.279 116.202 157.687 117.999L152.971 132.319L148.013 117.913C148.01 117.902 148.004 117.892 148 117.88V138.781L149.338 142.67C149.341 142.677 149.344 142.685 149.346 142.693C149.899 144.265 151.378 145.317 153.031 145.317H153.057C154.72 145.306 156.197 144.231 156.733 142.642C156.735 142.635 156.738 142.628 156.74 142.62L164.138 120.16C164.729 118.363 163.765 116.423 161.984 115.826Z" fill="#DFDEF5"/>
<path d="M133.475 115.61C131.598 115.61 130.076 117.145 130.076 119.038V141.889C130.076 143.782 131.598 145.317 133.475 145.317C135.351 145.317 136.873 143.782 136.873 141.889V119.038C136.873 117.145 135.351 115.61 133.475 115.61Z" fill="#FFF5F5"/>
<path d="M137.805 90.3596V72.0783C137.805 69.4465 140.624 67.7964 142.889 69.1022L158.749 78.2428C161.032 79.5586 161.032 82.8791 158.749 84.1949L142.889 93.3356C140.624 94.6415 137.805 92.9914 137.805 90.3596Z" fill="#FFF5F5"/>
<path d="M158.749 78.2427L148 72.0479V90.3901L158.749 84.1951C161.032 82.879 161.032 79.5587 158.749 78.2427Z" fill="#DFDEF5"/>
</g>
<defs>
<linearGradient id="paint0_linear_7_15552" x1="1.81723" y1="93.9926" x2="139.767" y2="94.0041" gradientUnits="userSpaceOnUse">
<stop stop-color="#6E3C1B"/>
<stop offset="0.33" stop-color="#F8BE3B"/>
<stop offset="0.49" stop-color="#FCE2A6"/>
<stop offset="0.7" stop-color="#F8BE3B"/>
<stop offset="1" stop-color="#6E3C1B"/>
</linearGradient>
<linearGradient id="paint1_linear_7_15552" x1="22.4893" y1="93.9905" x2="180.687" y2="94.0052" gradientUnits="userSpaceOnUse">
<stop stop-color="#6E3C1B"/>
<stop offset="0.33" stop-color="#F8BE3B"/>
<stop offset="0.49" stop-color="#FCE2A6"/>
<stop offset="0.7" stop-color="#F8BE3B"/>
<stop offset="1" stop-color="#6E3C1B"/>
</linearGradient>
<linearGradient id="paint2_linear_7_15552" x1="115.678" y1="112.805" x2="272.466" y2="112.823" gradientUnits="userSpaceOnUse">
<stop stop-color="#6E3C1B"/>
<stop offset="0.33" stop-color="#F8BE3B"/>
<stop offset="0.49" stop-color="#FCE2A6"/>
<stop offset="0.7" stop-color="#F8BE3B"/>
<stop offset="1" stop-color="#6E3C1B"/>
</linearGradient>
<linearGradient id="paint3_linear_7_15552" x1="76.317" y1="43.2226" x2="169.131" y2="43.234" gradientUnits="userSpaceOnUse">
<stop stop-color="#6E3C1B"/>
<stop offset="0.33" stop-color="#F8BE3B"/>
<stop offset="0.49" stop-color="#FCE2A6"/>
<stop offset="0.7" stop-color="#F8BE3B"/>
<stop offset="1" stop-color="#6E3C1B"/>
</linearGradient>
<linearGradient id="paint4_linear_7_15552" x1="57.2004" y1="14.0701" x2="110.602" y2="14.0815" gradientUnits="userSpaceOnUse">
<stop stop-color="#6E3C1B"/>
<stop offset="0.33" stop-color="#F8BE3B"/>
<stop offset="0.49" stop-color="#FCE2A6"/>
<stop offset="0.7" stop-color="#F8BE3B"/>
<stop offset="1" stop-color="#6E3C1B"/>
</linearGradient>
<linearGradient id="paint5_linear_7_15552" x1="144.161" y1="18.8081" x2="211.921" y2="18.8211" gradientUnits="userSpaceOnUse">
<stop stop-color="#6E3C1B"/>
<stop offset="0.33" stop-color="#F8BE3B"/>
<stop offset="0.49" stop-color="#FCE2A6"/>
<stop offset="0.7" stop-color="#F8BE3B"/>
<stop offset="1" stop-color="#6E3C1B"/>
</linearGradient>
<linearGradient id="paint6_linear_7_15552" x1="170.599" y1="93.9958" x2="282.001" y2="94.0023" gradientUnits="userSpaceOnUse">
<stop stop-color="#6E3C1B"/>
<stop offset="0.33" stop-color="#F8BE3B"/>
<stop offset="0.49" stop-color="#FCE2A6"/>
<stop offset="0.7" stop-color="#F8BE3B"/>
<stop offset="1" stop-color="#6E3C1B"/>
</linearGradient>
<clipPath id="clip0_7_15552">
<rect width="282" height="188" rx="8" fill="white"/>
</clipPath>
<clipPath id="clip1_7_15552">
<rect width="116" height="117" fill="white" transform="translate(90 41)"/>
</clipPath>
</defs>
</svg>
